M48
; DRILL file {KiCad (5.99.0-7714-g70c397a9b4)} date 02/07/21 00:17:44
; FORMAT={-:-/ absolute / metric / decimal}
; #@! TF.CreationDate,2021-02-07T00:17:44+03:00
; #@! TF.GenerationSoftware,Kicad,Pcbnew,(5.99.0-7714-g70c397a9b4)
; #@! TF.FileFunction,Plated,1,2,PTH
FMAT,2
METRIC
T1C0.800
T2C1.000
T3C1.016
%
G90
G05
T1
X56.896Y-46.431
X56.896Y-48.971
X56.896Y-51.511
X56.896Y-54.051
X56.896Y-56.591
X56.896Y-59.131
X56.896Y-61.671
X56.896Y-64.211
X56.896Y-66.751
X56.896Y-69.291
X56.896Y-71.831
X56.896Y-74.371
X56.896Y-76.911
X56.896Y-79.451
X56.896Y-81.991
X56.896Y-84.531
X56.896Y-87.071
X56.896Y-89.611
X56.896Y-92.151
X56.896Y-94.691
X72.136Y-46.431
X72.136Y-48.971
X72.136Y-51.511
X72.136Y-54.051
X72.136Y-56.591
X72.136Y-59.131
X72.136Y-61.671
X72.136Y-64.211
X72.136Y-66.751
X72.136Y-69.291
X72.136Y-71.831
X72.136Y-74.371
X72.136Y-76.911
X72.136Y-79.451
X72.136Y-81.991
X72.136Y-84.531
X72.136Y-87.071
X72.136Y-89.611
X72.136Y-92.151
X72.136Y-94.691
T2
X41.681Y-46.431
X41.681Y-48.971
X41.681Y-51.511
X41.681Y-54.051
X41.681Y-56.591
X41.681Y-59.131
X41.681Y-61.671
X41.681Y-64.211
X41.681Y-66.751
X41.681Y-69.291
X41.681Y-71.831
X41.681Y-74.371
X41.681Y-76.911
X41.681Y-79.451
X41.681Y-81.991
X41.681Y-84.531
X41.681Y-87.071
X41.681Y-89.611
X41.681Y-92.151
X41.681Y-94.691
X45.364Y-46.431
X45.364Y-48.971
X45.364Y-51.511
X45.364Y-54.051
X45.364Y-56.591
X45.364Y-59.131
X45.364Y-61.671
X45.364Y-64.211
X45.364Y-66.751
X45.364Y-69.291
X45.364Y-71.831
X45.364Y-74.371
X45.364Y-76.911
X45.364Y-79.451
X45.364Y-81.991
X45.364Y-84.531
X45.364Y-87.071
X45.364Y-89.611
X45.364Y-92.151
X45.364Y-94.691
X47.904Y-46.431
X47.904Y-48.971
X47.904Y-51.511
X47.904Y-54.051
X47.904Y-56.591
X47.904Y-59.131
X47.904Y-61.671
X47.904Y-64.211
X47.904Y-66.751
X47.904Y-69.291
X47.904Y-71.831
X47.904Y-74.371
X47.904Y-76.911
X47.904Y-79.451
X47.904Y-81.991
X47.904Y-84.531
X47.904Y-87.071
X47.904Y-89.611
X47.904Y-92.151
X47.904Y-94.691
X51.511Y-46.431
X51.511Y-48.971
X51.511Y-51.511
X51.511Y-54.051
X51.511Y-56.591
X51.511Y-59.131
X51.511Y-61.671
X51.511Y-64.211
X51.511Y-66.751
X51.511Y-69.291
X51.511Y-71.831
X51.511Y-74.371
X51.511Y-76.911
X51.511Y-79.451
X51.511Y-81.991
X51.511Y-84.531
X51.511Y-87.071
X51.511Y-89.611
X51.511Y-92.151
X51.511Y-94.691
X77.495Y-46.457
X77.495Y-48.997
X77.495Y-51.537
X77.495Y-54.077
X77.495Y-56.617
X77.495Y-59.157
X77.495Y-61.697
X77.495Y-64.237
X77.495Y-66.777
X77.495Y-69.317
X77.495Y-71.857
X77.495Y-74.397
X77.495Y-76.937
X77.495Y-79.477
X77.495Y-82.017
X77.495Y-84.557
X77.495Y-87.097
X77.495Y-89.637
X77.495Y-92.177
X77.495Y-94.717
X81.153Y-46.457
X81.153Y-48.997
X81.153Y-51.537
X81.153Y-54.077
X81.153Y-56.617
X81.153Y-59.157
X81.153Y-61.697
X81.153Y-64.237
X81.153Y-66.777
X81.153Y-69.317
X81.153Y-71.857
X81.153Y-74.397
X81.153Y-76.937
X81.153Y-79.477
X81.153Y-82.017
X81.153Y-84.557
X81.153Y-87.097
X81.153Y-89.637
X81.153Y-92.177
X81.153Y-94.717
X83.693Y-46.457
X83.693Y-48.997
X83.693Y-51.537
X83.693Y-54.077
X83.693Y-56.617
X83.693Y-59.157
X83.693Y-61.697
X83.693Y-64.237
X83.693Y-66.777
X83.693Y-69.317
X83.693Y-71.857
X83.693Y-74.397
X83.693Y-76.937
X83.693Y-79.477
X83.693Y-82.017
X83.693Y-84.557
X83.693Y-87.097
X83.693Y-89.637
X83.693Y-92.177
X83.693Y-94.717
X87.351Y-46.457
X87.351Y-48.997
X87.351Y-51.537
X87.351Y-54.077
X87.351Y-56.617
X87.351Y-59.157
X87.351Y-61.697
X87.351Y-64.237
X87.351Y-66.777
X87.351Y-69.317
X87.351Y-71.857
X87.351Y-74.397
X87.351Y-76.937
X87.351Y-79.477
X87.351Y-82.017
X87.351Y-84.557
X87.351Y-87.097
X87.351Y-89.637
X87.351Y-92.177
X87.351Y-94.717
T3
X93.066Y-46.457
X93.066Y-48.997
X93.066Y-51.537
X93.066Y-54.077
X93.066Y-56.617
X93.066Y-59.157
X93.066Y-61.697
X93.066Y-64.237
X93.066Y-66.777
X93.066Y-69.317
X93.066Y-71.857
X93.066Y-74.397
X93.066Y-76.937
X93.066Y-79.477
X93.066Y-82.017
X93.066Y-84.557
X93.066Y-87.097
X93.066Y-89.637
X93.066Y-92.177
X93.066Y-94.717
X95.606Y-46.457
X95.606Y-48.997
X95.606Y-51.537
X95.606Y-54.077
X95.606Y-56.617
X95.606Y-59.157
X95.606Y-61.697
X95.606Y-64.237
X95.606Y-66.777
X95.606Y-69.317
X95.606Y-71.857
X95.606Y-74.397
X95.606Y-76.937
X95.606Y-79.477
X95.606Y-82.017
X95.606Y-84.557
X95.606Y-87.097
X95.606Y-89.637
X95.606Y-92.177
X95.606Y-94.717
T0
M30
