%TF.GenerationSoftware,KiCad,Pcbnew,(5.99.0-7714-g70c397a9b4)*%
%TF.CreationDate,2021-02-07T00:17:42+03:00*%
%TF.ProjectId,dipext-pin_r4,64697065-7874-42d7-9069-6e5f72342e6b,rev?*%
%TF.SameCoordinates,Original*%
%TF.FileFunction,Copper,L2,Bot*%
%TF.FilePolarity,Positive*%
%FSLAX46Y46*%
G04 Gerber Fmt 4.6, Leading zero omitted, Abs format (unit mm)*
G04 Created by KiCad (PCBNEW (5.99.0-7714-g70c397a9b4)) date 2021-02-07 00:17:42*
%MOMM*%
%LPD*%
G01*
G04 APERTURE LIST*
%TA.AperFunction,ComponentPad*%
%ADD10O,1.700000X1.700000*%
%TD*%
%TA.AperFunction,ComponentPad*%
%ADD11R,1.700000X1.700000*%
%TD*%
%TA.AperFunction,ComponentPad*%
%ADD12R,1.600000X1.600000*%
%TD*%
%TA.AperFunction,ComponentPad*%
%ADD13O,1.600000X1.600000*%
%TD*%
%TA.AperFunction,ComponentPad*%
%ADD14R,1.727200X1.727200*%
%TD*%
%TA.AperFunction,ComponentPad*%
%ADD15O,1.727200X1.727200*%
%TD*%
%TA.AperFunction,Conductor*%
%ADD16C,0.304800*%
%TD*%
G04 APERTURE END LIST*
D10*
%TO.P,J8,20,Pin_20*%
%TO.N,Net-(J1-Pad20)*%
X51511199Y-94691201D03*
%TO.P,J8,19,Pin_19*%
%TO.N,Net-(J1-Pad19)*%
X51511199Y-92151201D03*
%TO.P,J8,18,Pin_18*%
%TO.N,Net-(J1-Pad18)*%
X51511199Y-89611201D03*
%TO.P,J8,17,Pin_17*%
%TO.N,Net-(J1-Pad17)*%
X51511199Y-87071201D03*
%TO.P,J8,16,Pin_16*%
%TO.N,Net-(J1-Pad16)*%
X51511199Y-84531201D03*
%TO.P,J8,15,Pin_15*%
%TO.N,Net-(J1-Pad15)*%
X51511199Y-81991201D03*
%TO.P,J8,14,Pin_14*%
%TO.N,Net-(J1-Pad14)*%
X51511199Y-79451201D03*
%TO.P,J8,13,Pin_13*%
%TO.N,Net-(J1-Pad13)*%
X51511199Y-76911201D03*
%TO.P,J8,12,Pin_12*%
%TO.N,Net-(J1-Pad12)*%
X51511199Y-74371201D03*
%TO.P,J8,11,Pin_11*%
%TO.N,Net-(J1-Pad11)*%
X51511199Y-71831201D03*
%TO.P,J8,10,Pin_10*%
%TO.N,Net-(J1-Pad10)*%
X51511199Y-69291201D03*
%TO.P,J8,9,Pin_9*%
%TO.N,Net-(J1-Pad9)*%
X51511199Y-66751201D03*
%TO.P,J8,8,Pin_8*%
%TO.N,Net-(J1-Pad8)*%
X51511199Y-64211201D03*
%TO.P,J8,7,Pin_7*%
%TO.N,Net-(J1-Pad7)*%
X51511199Y-61671201D03*
%TO.P,J8,6,Pin_6*%
%TO.N,Net-(J1-Pad6)*%
X51511199Y-59131201D03*
%TO.P,J8,5,Pin_5*%
%TO.N,Net-(J1-Pad5)*%
X51511199Y-56591201D03*
%TO.P,J8,4,Pin_4*%
%TO.N,Net-(J1-Pad4)*%
X51511199Y-54051201D03*
%TO.P,J8,3,Pin_3*%
%TO.N,Net-(J1-Pad3)*%
X51511199Y-51511201D03*
%TO.P,J8,2,Pin_2*%
%TO.N,Net-(J1-Pad2)*%
X51511199Y-48971201D03*
D11*
%TO.P,J8,1,Pin_1*%
%TO.N,Net-(J1-Pad1)*%
X51511199Y-46431201D03*
%TD*%
D10*
%TO.P,J7,20,Pin_20*%
%TO.N,/P20*%
X41681399Y-94691201D03*
%TO.P,J7,19,Pin_19*%
%TO.N,/P19*%
X41681399Y-92151201D03*
%TO.P,J7,18,Pin_18*%
%TO.N,/P18*%
X41681399Y-89611201D03*
%TO.P,J7,17,Pin_17*%
%TO.N,/P17*%
X41681399Y-87071201D03*
%TO.P,J7,16,Pin_16*%
%TO.N,/P16*%
X41681399Y-84531201D03*
%TO.P,J7,15,Pin_15*%
%TO.N,/P15*%
X41681399Y-81991201D03*
%TO.P,J7,14,Pin_14*%
%TO.N,/P14*%
X41681399Y-79451201D03*
%TO.P,J7,13,Pin_13*%
%TO.N,/P13*%
X41681399Y-76911201D03*
%TO.P,J7,12,Pin_12*%
%TO.N,/P12*%
X41681399Y-74371201D03*
%TO.P,J7,11,Pin_11*%
%TO.N,/P11*%
X41681399Y-71831201D03*
%TO.P,J7,10,Pin_10*%
%TO.N,/P10*%
X41681399Y-69291201D03*
%TO.P,J7,9,Pin_9*%
%TO.N,/P9*%
X41681399Y-66751201D03*
%TO.P,J7,8,Pin_8*%
%TO.N,/P8*%
X41681399Y-64211201D03*
%TO.P,J7,7,Pin_7*%
%TO.N,/P7*%
X41681399Y-61671201D03*
%TO.P,J7,6,Pin_6*%
%TO.N,/P6*%
X41681399Y-59131201D03*
%TO.P,J7,5,Pin_5*%
%TO.N,/P5*%
X41681399Y-56591201D03*
%TO.P,J7,4,Pin_4*%
%TO.N,/P4*%
X41681399Y-54051201D03*
%TO.P,J7,3,Pin_3*%
%TO.N,/P3*%
X41681399Y-51511201D03*
%TO.P,J7,2,Pin_2*%
%TO.N,/P2*%
X41681399Y-48971201D03*
D11*
%TO.P,J7,1,Pin_1*%
%TO.N,/P1*%
X41681399Y-46431201D03*
%TD*%
D10*
%TO.P,J6,20,Pin_20*%
%TO.N,Net-(J1-Pad21)*%
X77495399Y-94716601D03*
%TO.P,J6,19,Pin_19*%
%TO.N,Net-(J1-Pad22)*%
X77495399Y-92176601D03*
%TO.P,J6,18,Pin_18*%
%TO.N,Net-(J1-Pad23)*%
X77495399Y-89636601D03*
%TO.P,J6,17,Pin_17*%
%TO.N,Net-(J1-Pad24)*%
X77495399Y-87096601D03*
%TO.P,J6,16,Pin_16*%
%TO.N,Net-(J1-Pad25)*%
X77495399Y-84556601D03*
%TO.P,J6,15,Pin_15*%
%TO.N,Net-(J1-Pad26)*%
X77495399Y-82016601D03*
%TO.P,J6,14,Pin_14*%
%TO.N,Net-(J1-Pad27)*%
X77495399Y-79476601D03*
%TO.P,J6,13,Pin_13*%
%TO.N,Net-(J1-Pad28)*%
X77495399Y-76936601D03*
%TO.P,J6,12,Pin_12*%
%TO.N,Net-(J1-Pad29)*%
X77495399Y-74396601D03*
%TO.P,J6,11,Pin_11*%
%TO.N,Net-(J6-Pad11)*%
X77495399Y-71856601D03*
%TO.P,J6,10,Pin_10*%
%TO.N,Net-(J6-Pad10)*%
X77495399Y-69316601D03*
%TO.P,J6,9,Pin_9*%
%TO.N,Net-(J6-Pad9)*%
X77495399Y-66776601D03*
%TO.P,J6,8,Pin_8*%
%TO.N,Net-(J6-Pad8)*%
X77495399Y-64236601D03*
%TO.P,J6,7,Pin_7*%
%TO.N,Net-(J1-Pad34)*%
X77495399Y-61696601D03*
%TO.P,J6,6,Pin_6*%
%TO.N,Net-(J1-Pad35)*%
X77495399Y-59156601D03*
%TO.P,J6,5,Pin_5*%
%TO.N,Net-(J1-Pad36)*%
X77495399Y-56616601D03*
%TO.P,J6,4,Pin_4*%
%TO.N,Net-(J1-Pad37)*%
X77495399Y-54076601D03*
%TO.P,J6,3,Pin_3*%
%TO.N,Net-(J1-Pad38)*%
X77495399Y-51536601D03*
%TO.P,J6,2,Pin_2*%
%TO.N,Net-(J6-Pad2)*%
X77495399Y-48996601D03*
D11*
%TO.P,J6,1,Pin_1*%
%TO.N,Net-(J6-Pad1)*%
X77495399Y-46456601D03*
%TD*%
D10*
%TO.P,J5,20,Pin_20*%
%TO.N,/P21*%
X87350599Y-94716601D03*
%TO.P,J5,19,Pin_19*%
%TO.N,/P22*%
X87350599Y-92176601D03*
%TO.P,J5,18,Pin_18*%
%TO.N,/P23*%
X87350599Y-89636601D03*
%TO.P,J5,17,Pin_17*%
%TO.N,/P24*%
X87350599Y-87096601D03*
%TO.P,J5,16,Pin_16*%
%TO.N,/P25*%
X87350599Y-84556601D03*
%TO.P,J5,15,Pin_15*%
%TO.N,/P26*%
X87350599Y-82016601D03*
%TO.P,J5,14,Pin_14*%
%TO.N,/P27*%
X87350599Y-79476601D03*
%TO.P,J5,13,Pin_13*%
%TO.N,/P28*%
X87350599Y-76936601D03*
%TO.P,J5,12,Pin_12*%
%TO.N,/P29*%
X87350599Y-74396601D03*
%TO.P,J5,11,Pin_11*%
%TO.N,/P30*%
X87350599Y-71856601D03*
%TO.P,J5,10,Pin_10*%
%TO.N,/P31*%
X87350599Y-69316601D03*
%TO.P,J5,9,Pin_9*%
%TO.N,/P32*%
X87350599Y-66776601D03*
%TO.P,J5,8,Pin_8*%
%TO.N,/P33*%
X87350599Y-64236601D03*
%TO.P,J5,7,Pin_7*%
%TO.N,/P34*%
X87350599Y-61696601D03*
%TO.P,J5,6,Pin_6*%
%TO.N,/P35*%
X87350599Y-59156601D03*
%TO.P,J5,5,Pin_5*%
%TO.N,/P36*%
X87350599Y-56616601D03*
%TO.P,J5,4,Pin_4*%
%TO.N,/P37*%
X87350599Y-54076601D03*
%TO.P,J5,3,Pin_3*%
%TO.N,/P38*%
X87350599Y-51536601D03*
%TO.P,J5,2,Pin_2*%
%TO.N,/P39*%
X87350599Y-48996601D03*
D11*
%TO.P,J5,1,Pin_1*%
%TO.N,/P40*%
X87350599Y-46456601D03*
%TD*%
D12*
%TO.P,J1,1,Pin_1*%
%TO.N,Net-(J1-Pad1)*%
X56895999Y-46431201D03*
D13*
%TO.P,J1,21,Pin_21*%
%TO.N,Net-(J1-Pad21)*%
X72135999Y-94691201D03*
%TO.P,J1,2,Pin_2*%
%TO.N,Net-(J1-Pad2)*%
X56895999Y-48971201D03*
%TO.P,J1,22,Pin_22*%
%TO.N,Net-(J1-Pad22)*%
X72135999Y-92151201D03*
%TO.P,J1,3,Pin_3*%
%TO.N,Net-(J1-Pad3)*%
X56895999Y-51511201D03*
%TO.P,J1,23,Pin_23*%
%TO.N,Net-(J1-Pad23)*%
X72135999Y-89611201D03*
%TO.P,J1,4,Pin_4*%
%TO.N,Net-(J1-Pad4)*%
X56895999Y-54051201D03*
%TO.P,J1,24,Pin_24*%
%TO.N,Net-(J1-Pad24)*%
X72135999Y-87071201D03*
%TO.P,J1,5,Pin_5*%
%TO.N,Net-(J1-Pad5)*%
X56895999Y-56591201D03*
%TO.P,J1,25,Pin_25*%
%TO.N,Net-(J1-Pad25)*%
X72135999Y-84531201D03*
%TO.P,J1,6,Pin_6*%
%TO.N,Net-(J1-Pad6)*%
X56895999Y-59131201D03*
%TO.P,J1,26,Pin_26*%
%TO.N,Net-(J1-Pad26)*%
X72135999Y-81991201D03*
%TO.P,J1,7,Pin_7*%
%TO.N,Net-(J1-Pad7)*%
X56895999Y-61671201D03*
%TO.P,J1,27,Pin_27*%
%TO.N,Net-(J1-Pad27)*%
X72135999Y-79451201D03*
%TO.P,J1,8,Pin_8*%
%TO.N,Net-(J1-Pad8)*%
X56895999Y-64211201D03*
%TO.P,J1,28,Pin_28*%
%TO.N,Net-(J1-Pad28)*%
X72135999Y-76911201D03*
%TO.P,J1,9,Pin_9*%
%TO.N,Net-(J1-Pad9)*%
X56895999Y-66751201D03*
%TO.P,J1,29,Pin_29*%
%TO.N,Net-(J1-Pad29)*%
X72135999Y-74371201D03*
%TO.P,J1,10,Pin_10*%
%TO.N,Net-(J1-Pad10)*%
X56895999Y-69291201D03*
%TO.P,J1,30,Pin_30*%
%TO.N,Net-(J6-Pad11)*%
X72135999Y-71831201D03*
%TO.P,J1,11,Pin_11*%
%TO.N,Net-(J1-Pad11)*%
X56895999Y-71831201D03*
%TO.P,J1,31,Pin_31*%
%TO.N,Net-(J6-Pad10)*%
X72135999Y-69291201D03*
%TO.P,J1,12,Pin_12*%
%TO.N,Net-(J1-Pad12)*%
X56895999Y-74371201D03*
%TO.P,J1,32,Pin_32*%
%TO.N,Net-(J6-Pad9)*%
X72135999Y-66751201D03*
%TO.P,J1,13,Pin_13*%
%TO.N,Net-(J1-Pad13)*%
X56895999Y-76911201D03*
%TO.P,J1,33,Pin_33*%
%TO.N,Net-(J6-Pad8)*%
X72135999Y-64211201D03*
%TO.P,J1,14,Pin_14*%
%TO.N,Net-(J1-Pad14)*%
X56895999Y-79451201D03*
%TO.P,J1,34,Pin_34*%
%TO.N,Net-(J1-Pad34)*%
X72135999Y-61671201D03*
%TO.P,J1,15,Pin_15*%
%TO.N,Net-(J1-Pad15)*%
X56895999Y-81991201D03*
%TO.P,J1,35,Pin_35*%
%TO.N,Net-(J1-Pad35)*%
X72135999Y-59131201D03*
%TO.P,J1,16,Pin_16*%
%TO.N,Net-(J1-Pad16)*%
X56895999Y-84531201D03*
%TO.P,J1,36,Pin_36*%
%TO.N,Net-(J1-Pad36)*%
X72135999Y-56591201D03*
%TO.P,J1,17,Pin_17*%
%TO.N,Net-(J1-Pad17)*%
X56895999Y-87071201D03*
%TO.P,J1,37,Pin_37*%
%TO.N,Net-(J1-Pad37)*%
X72135999Y-54051201D03*
%TO.P,J1,18,Pin_18*%
%TO.N,Net-(J1-Pad18)*%
X56895999Y-89611201D03*
%TO.P,J1,38,Pin_38*%
%TO.N,Net-(J1-Pad38)*%
X72135999Y-51511201D03*
%TO.P,J1,19,Pin_19*%
%TO.N,Net-(J1-Pad19)*%
X56895999Y-92151201D03*
%TO.P,J1,39,Pin_39*%
%TO.N,Net-(J6-Pad2)*%
X72135999Y-48971201D03*
%TO.P,J1,20,Pin_20*%
%TO.N,Net-(J1-Pad20)*%
X56895999Y-94691201D03*
%TO.P,J1,40,Pin_40*%
%TO.N,Net-(J6-Pad1)*%
X72135999Y-46431201D03*
%TD*%
D14*
%TO.P,J2,1,Pin_1*%
%TO.N,/P1*%
X93065599Y-46456601D03*
D15*
%TO.P,J2,2,Pin_2*%
%TO.N,/P40*%
X95605599Y-46456601D03*
%TO.P,J2,3,Pin_3*%
%TO.N,/P2*%
X93065599Y-48996601D03*
%TO.P,J2,4,Pin_4*%
%TO.N,/P39*%
X95605599Y-48996601D03*
%TO.P,J2,5,Pin_5*%
%TO.N,/P3*%
X93065599Y-51536601D03*
%TO.P,J2,6,Pin_6*%
%TO.N,/P38*%
X95605599Y-51536601D03*
%TO.P,J2,7,Pin_7*%
%TO.N,/P4*%
X93065599Y-54076601D03*
%TO.P,J2,8,Pin_8*%
%TO.N,/P37*%
X95605599Y-54076601D03*
%TO.P,J2,9,Pin_9*%
%TO.N,/P5*%
X93065599Y-56616601D03*
%TO.P,J2,10,Pin_10*%
%TO.N,/P36*%
X95605599Y-56616601D03*
%TO.P,J2,11,Pin_11*%
%TO.N,/P6*%
X93065599Y-59156601D03*
%TO.P,J2,12,Pin_12*%
%TO.N,/P35*%
X95605599Y-59156601D03*
%TO.P,J2,13,Pin_13*%
%TO.N,/P7*%
X93065599Y-61696601D03*
%TO.P,J2,14,Pin_14*%
%TO.N,/P34*%
X95605599Y-61696601D03*
%TO.P,J2,15,Pin_15*%
%TO.N,/P8*%
X93065599Y-64236601D03*
%TO.P,J2,16,Pin_16*%
%TO.N,/P33*%
X95605599Y-64236601D03*
%TO.P,J2,17,Pin_17*%
%TO.N,/P9*%
X93065599Y-66776601D03*
%TO.P,J2,18,Pin_18*%
%TO.N,/P32*%
X95605599Y-66776601D03*
%TO.P,J2,19,Pin_19*%
%TO.N,/P10*%
X93065599Y-69316601D03*
%TO.P,J2,20,Pin_20*%
%TO.N,/P31*%
X95605599Y-69316601D03*
%TO.P,J2,21,Pin_21*%
%TO.N,/P11*%
X93065599Y-71856601D03*
%TO.P,J2,22,Pin_22*%
%TO.N,/P30*%
X95605599Y-71856601D03*
%TO.P,J2,23,Pin_23*%
%TO.N,/P12*%
X93065599Y-74396601D03*
%TO.P,J2,24,Pin_24*%
%TO.N,/P29*%
X95605599Y-74396601D03*
%TO.P,J2,25,Pin_25*%
%TO.N,/P13*%
X93065599Y-76936601D03*
%TO.P,J2,26,Pin_26*%
%TO.N,/P28*%
X95605599Y-76936601D03*
%TO.P,J2,27,Pin_27*%
%TO.N,/P14*%
X93065599Y-79476601D03*
%TO.P,J2,28,Pin_28*%
%TO.N,/P27*%
X95605599Y-79476601D03*
%TO.P,J2,29,Pin_29*%
%TO.N,/P15*%
X93065599Y-82016601D03*
%TO.P,J2,30,Pin_30*%
%TO.N,/P26*%
X95605599Y-82016601D03*
%TO.P,J2,31,Pin_31*%
%TO.N,/P16*%
X93065599Y-84556601D03*
%TO.P,J2,32,Pin_32*%
%TO.N,/P25*%
X95605599Y-84556601D03*
%TO.P,J2,33,Pin_33*%
%TO.N,/P17*%
X93065599Y-87096601D03*
%TO.P,J2,34,Pin_34*%
%TO.N,/P24*%
X95605599Y-87096601D03*
%TO.P,J2,35,Pin_35*%
%TO.N,/P18*%
X93065599Y-89636601D03*
%TO.P,J2,36,Pin_36*%
%TO.N,/P23*%
X95605599Y-89636601D03*
%TO.P,J2,37,Pin_37*%
%TO.N,/P19*%
X93065599Y-92176601D03*
%TO.P,J2,38,Pin_38*%
%TO.N,/P22*%
X95605599Y-92176601D03*
%TO.P,J2,39,Pin_39*%
%TO.N,/P20*%
X93065599Y-94716601D03*
%TO.P,J2,40,Pin_40*%
%TO.N,/P21*%
X95605599Y-94716601D03*
%TD*%
D11*
%TO.P,J3,1,Pin_1*%
%TO.N,/P1*%
X45364399Y-46431201D03*
D10*
%TO.P,J3,2,Pin_2*%
%TO.N,Net-(J1-Pad1)*%
X47904399Y-46431201D03*
%TO.P,J3,3,Pin_3*%
%TO.N,/P2*%
X45364399Y-48971201D03*
%TO.P,J3,4,Pin_4*%
%TO.N,Net-(J1-Pad2)*%
X47904399Y-48971201D03*
%TO.P,J3,5,Pin_5*%
%TO.N,/P3*%
X45364399Y-51511201D03*
%TO.P,J3,6,Pin_6*%
%TO.N,Net-(J1-Pad3)*%
X47904399Y-51511201D03*
%TO.P,J3,7,Pin_7*%
%TO.N,/P4*%
X45364399Y-54051201D03*
%TO.P,J3,8,Pin_8*%
%TO.N,Net-(J1-Pad4)*%
X47904399Y-54051201D03*
%TO.P,J3,9,Pin_9*%
%TO.N,/P5*%
X45364399Y-56591201D03*
%TO.P,J3,10,Pin_10*%
%TO.N,Net-(J1-Pad5)*%
X47904399Y-56591201D03*
%TO.P,J3,11,Pin_11*%
%TO.N,/P6*%
X45364399Y-59131201D03*
%TO.P,J3,12,Pin_12*%
%TO.N,Net-(J1-Pad6)*%
X47904399Y-59131201D03*
%TO.P,J3,13,Pin_13*%
%TO.N,/P7*%
X45364399Y-61671201D03*
%TO.P,J3,14,Pin_14*%
%TO.N,Net-(J1-Pad7)*%
X47904399Y-61671201D03*
%TO.P,J3,15,Pin_15*%
%TO.N,/P8*%
X45364399Y-64211201D03*
%TO.P,J3,16,Pin_16*%
%TO.N,Net-(J1-Pad8)*%
X47904399Y-64211201D03*
%TO.P,J3,17,Pin_17*%
%TO.N,/P9*%
X45364399Y-66751201D03*
%TO.P,J3,18,Pin_18*%
%TO.N,Net-(J1-Pad9)*%
X47904399Y-66751201D03*
%TO.P,J3,19,Pin_19*%
%TO.N,/P10*%
X45364399Y-69291201D03*
%TO.P,J3,20,Pin_20*%
%TO.N,Net-(J1-Pad10)*%
X47904399Y-69291201D03*
%TO.P,J3,21,Pin_21*%
%TO.N,/P11*%
X45364399Y-71831201D03*
%TO.P,J3,22,Pin_22*%
%TO.N,Net-(J1-Pad11)*%
X47904399Y-71831201D03*
%TO.P,J3,23,Pin_23*%
%TO.N,/P12*%
X45364399Y-74371201D03*
%TO.P,J3,24,Pin_24*%
%TO.N,Net-(J1-Pad12)*%
X47904399Y-74371201D03*
%TO.P,J3,25,Pin_25*%
%TO.N,/P13*%
X45364399Y-76911201D03*
%TO.P,J3,26,Pin_26*%
%TO.N,Net-(J1-Pad13)*%
X47904399Y-76911201D03*
%TO.P,J3,27,Pin_27*%
%TO.N,/P14*%
X45364399Y-79451201D03*
%TO.P,J3,28,Pin_28*%
%TO.N,Net-(J1-Pad14)*%
X47904399Y-79451201D03*
%TO.P,J3,29,Pin_29*%
%TO.N,/P15*%
X45364399Y-81991201D03*
%TO.P,J3,30,Pin_30*%
%TO.N,Net-(J1-Pad15)*%
X47904399Y-81991201D03*
%TO.P,J3,31,Pin_31*%
%TO.N,/P16*%
X45364399Y-84531201D03*
%TO.P,J3,32,Pin_32*%
%TO.N,Net-(J1-Pad16)*%
X47904399Y-84531201D03*
%TO.P,J3,33,Pin_33*%
%TO.N,/P17*%
X45364399Y-87071201D03*
%TO.P,J3,34,Pin_34*%
%TO.N,Net-(J1-Pad17)*%
X47904399Y-87071201D03*
%TO.P,J3,35,Pin_35*%
%TO.N,/P18*%
X45364399Y-89611201D03*
%TO.P,J3,36,Pin_36*%
%TO.N,Net-(J1-Pad18)*%
X47904399Y-89611201D03*
%TO.P,J3,37,Pin_37*%
%TO.N,/P19*%
X45364399Y-92151201D03*
%TO.P,J3,38,Pin_38*%
%TO.N,Net-(J1-Pad19)*%
X47904399Y-92151201D03*
%TO.P,J3,39,Pin_39*%
%TO.N,/P20*%
X45364399Y-94691201D03*
%TO.P,J3,40,Pin_40*%
%TO.N,Net-(J1-Pad20)*%
X47904399Y-94691201D03*
%TD*%
D11*
%TO.P,J4,1,Pin_1*%
%TO.N,Net-(J6-Pad1)*%
X81152999Y-46456601D03*
D10*
%TO.P,J4,2,Pin_2*%
%TO.N,/P40*%
X83692999Y-46456601D03*
%TO.P,J4,3,Pin_3*%
%TO.N,Net-(J6-Pad2)*%
X81152999Y-48996601D03*
%TO.P,J4,4,Pin_4*%
%TO.N,/P39*%
X83692999Y-48996601D03*
%TO.P,J4,5,Pin_5*%
%TO.N,Net-(J1-Pad38)*%
X81152999Y-51536601D03*
%TO.P,J4,6,Pin_6*%
%TO.N,/P38*%
X83692999Y-51536601D03*
%TO.P,J4,7,Pin_7*%
%TO.N,Net-(J1-Pad37)*%
X81152999Y-54076601D03*
%TO.P,J4,8,Pin_8*%
%TO.N,/P37*%
X83692999Y-54076601D03*
%TO.P,J4,9,Pin_9*%
%TO.N,Net-(J1-Pad36)*%
X81152999Y-56616601D03*
%TO.P,J4,10,Pin_10*%
%TO.N,/P36*%
X83692999Y-56616601D03*
%TO.P,J4,11,Pin_11*%
%TO.N,Net-(J1-Pad35)*%
X81152999Y-59156601D03*
%TO.P,J4,12,Pin_12*%
%TO.N,/P35*%
X83692999Y-59156601D03*
%TO.P,J4,13,Pin_13*%
%TO.N,Net-(J1-Pad34)*%
X81152999Y-61696601D03*
%TO.P,J4,14,Pin_14*%
%TO.N,/P34*%
X83692999Y-61696601D03*
%TO.P,J4,15,Pin_15*%
%TO.N,Net-(J6-Pad8)*%
X81152999Y-64236601D03*
%TO.P,J4,16,Pin_16*%
%TO.N,/P33*%
X83692999Y-64236601D03*
%TO.P,J4,17,Pin_17*%
%TO.N,Net-(J6-Pad9)*%
X81152999Y-66776601D03*
%TO.P,J4,18,Pin_18*%
%TO.N,/P32*%
X83692999Y-66776601D03*
%TO.P,J4,19,Pin_19*%
%TO.N,Net-(J6-Pad10)*%
X81152999Y-69316601D03*
%TO.P,J4,20,Pin_20*%
%TO.N,/P31*%
X83692999Y-69316601D03*
%TO.P,J4,21,Pin_21*%
%TO.N,Net-(J6-Pad11)*%
X81152999Y-71856601D03*
%TO.P,J4,22,Pin_22*%
%TO.N,/P30*%
X83692999Y-71856601D03*
%TO.P,J4,23,Pin_23*%
%TO.N,Net-(J1-Pad29)*%
X81152999Y-74396601D03*
%TO.P,J4,24,Pin_24*%
%TO.N,/P29*%
X83692999Y-74396601D03*
%TO.P,J4,25,Pin_25*%
%TO.N,Net-(J1-Pad28)*%
X81152999Y-76936601D03*
%TO.P,J4,26,Pin_26*%
%TO.N,/P28*%
X83692999Y-76936601D03*
%TO.P,J4,27,Pin_27*%
%TO.N,Net-(J1-Pad27)*%
X81152999Y-79476601D03*
%TO.P,J4,28,Pin_28*%
%TO.N,/P27*%
X83692999Y-79476601D03*
%TO.P,J4,29,Pin_29*%
%TO.N,Net-(J1-Pad26)*%
X81152999Y-82016601D03*
%TO.P,J4,30,Pin_30*%
%TO.N,/P26*%
X83692999Y-82016601D03*
%TO.P,J4,31,Pin_31*%
%TO.N,Net-(J1-Pad25)*%
X81152999Y-84556601D03*
%TO.P,J4,32,Pin_32*%
%TO.N,/P25*%
X83692999Y-84556601D03*
%TO.P,J4,33,Pin_33*%
%TO.N,Net-(J1-Pad24)*%
X81152999Y-87096601D03*
%TO.P,J4,34,Pin_34*%
%TO.N,/P24*%
X83692999Y-87096601D03*
%TO.P,J4,35,Pin_35*%
%TO.N,Net-(J1-Pad23)*%
X81152999Y-89636601D03*
%TO.P,J4,36,Pin_36*%
%TO.N,/P23*%
X83692999Y-89636601D03*
%TO.P,J4,37,Pin_37*%
%TO.N,Net-(J1-Pad22)*%
X81152999Y-92176601D03*
%TO.P,J4,38,Pin_38*%
%TO.N,/P22*%
X83692999Y-92176601D03*
%TO.P,J4,39,Pin_39*%
%TO.N,Net-(J1-Pad21)*%
X81152999Y-94716601D03*
%TO.P,J4,40,Pin_40*%
%TO.N,/P21*%
X83692999Y-94716601D03*
%TD*%
D16*
%TO.N,/P20*%
X93065599Y-94716601D02*
X91885398Y-93536400D01*
X91885398Y-93536400D02*
X46519200Y-93536400D01*
X46519200Y-93536400D02*
X45364399Y-94691201D01*
%TO.N,/P19*%
X93065599Y-92176601D02*
X91885398Y-90996400D01*
X91885398Y-90996400D02*
X46519200Y-90996400D01*
X46519200Y-90996400D02*
X45364399Y-92151201D01*
%TO.N,/P18*%
X93065599Y-89636601D02*
X91885398Y-88456400D01*
X91885398Y-88456400D02*
X46519200Y-88456400D01*
X46519200Y-88456400D02*
X45364399Y-89611201D01*
%TO.N,/P17*%
X93065599Y-87096601D02*
X91885398Y-85916400D01*
X91885398Y-85916400D02*
X46519200Y-85916400D01*
X46519200Y-85916400D02*
X45364399Y-87071201D01*
%TO.N,/P16*%
X93065599Y-84556601D02*
X91885398Y-83376400D01*
X91885398Y-83376400D02*
X46519200Y-83376400D01*
X46519200Y-83376400D02*
X45364399Y-84531201D01*
%TO.N,/P15*%
X93065599Y-82016601D02*
X91885398Y-80836400D01*
X91885398Y-80836400D02*
X46519200Y-80836400D01*
X46519200Y-80836400D02*
X45364399Y-81991201D01*
%TO.N,/P14*%
X93065599Y-79476601D02*
X91885398Y-78296400D01*
X91885398Y-78296400D02*
X46519200Y-78296400D01*
X46519200Y-78296400D02*
X45364399Y-79451201D01*
%TO.N,/P13*%
X93065599Y-76936601D02*
X91885398Y-75756400D01*
X91885398Y-75756400D02*
X46519200Y-75756400D01*
X46519200Y-75756400D02*
X45364399Y-76911201D01*
%TO.N,/P12*%
X93065599Y-74396601D02*
X91885398Y-73216400D01*
X91885398Y-73216400D02*
X46519200Y-73216400D01*
X46519200Y-73216400D02*
X45364399Y-74371201D01*
%TO.N,/P11*%
X93065599Y-71856601D02*
X91680400Y-70471402D01*
X91680400Y-70471402D02*
X46724198Y-70471402D01*
X46724198Y-70471402D02*
X45364399Y-71831201D01*
%TO.N,/P10*%
X93065599Y-69316601D02*
X91885398Y-68136400D01*
X91885398Y-68136400D02*
X46519200Y-68136400D01*
X46519200Y-68136400D02*
X45364399Y-69291201D01*
%TO.N,/P9*%
X93065599Y-66776601D02*
X91885398Y-65596400D01*
X91885398Y-65596400D02*
X46519200Y-65596400D01*
X46519200Y-65596400D02*
X45364399Y-66751201D01*
%TO.N,/P8*%
X93065599Y-64236601D02*
X91885398Y-63056400D01*
X91885398Y-63056400D02*
X46519200Y-63056400D01*
X46519200Y-63056400D02*
X45364399Y-64211201D01*
%TO.N,/P7*%
X93065599Y-61696601D02*
X91885398Y-60516400D01*
X91885398Y-60516400D02*
X46519200Y-60516400D01*
X46519200Y-60516400D02*
X45364399Y-61671201D01*
%TO.N,/P6*%
X93065599Y-59156601D02*
X91885398Y-57976400D01*
X91885398Y-57976400D02*
X46519200Y-57976400D01*
X46519200Y-57976400D02*
X45364399Y-59131201D01*
%TO.N,/P5*%
X93065599Y-56616601D02*
X91744799Y-55295801D01*
X91744799Y-55295801D02*
X46659799Y-55295801D01*
X46659799Y-55295801D02*
X45364399Y-56591201D01*
%TO.N,/P2*%
X93065599Y-48996601D02*
X91820999Y-47752001D01*
X91820999Y-47752001D02*
X46583599Y-47752001D01*
X46583599Y-47752001D02*
X45364399Y-48971201D01*
%TO.N,/P3*%
X93065599Y-51536601D02*
X91820999Y-50292001D01*
X91820999Y-50292001D02*
X46583599Y-50292001D01*
X46583599Y-50292001D02*
X45364399Y-51511201D01*
%TO.N,/P4*%
X93065599Y-54076601D02*
X91820999Y-52832001D01*
X91820999Y-52832001D02*
X46583599Y-52832001D01*
X46583599Y-52832001D02*
X45364399Y-54051201D01*
%TO.N,/P20*%
X41681399Y-94691201D02*
X45364399Y-94691201D01*
%TO.N,/P19*%
X41681399Y-92151201D02*
X45364399Y-92151201D01*
%TO.N,/P18*%
X41681399Y-89611201D02*
X45364399Y-89611201D01*
%TO.N,/P17*%
X41681399Y-87071201D02*
X45364399Y-87071201D01*
%TO.N,/P16*%
X41681399Y-84531201D02*
X45364399Y-84531201D01*
%TO.N,/P15*%
X41681399Y-81991201D02*
X45364399Y-81991201D01*
%TO.N,/P14*%
X41681399Y-79451201D02*
X45364399Y-79451201D01*
%TO.N,/P13*%
X41681399Y-76911201D02*
X45364399Y-76911201D01*
%TO.N,/P12*%
X41681399Y-74371201D02*
X45364399Y-74371201D01*
%TO.N,/P11*%
X45364399Y-71831201D02*
X41681399Y-71831201D01*
%TO.N,/P10*%
X41681399Y-69291201D02*
X45364399Y-69291201D01*
%TO.N,/P9*%
X45364399Y-66751201D02*
X41681399Y-66751201D01*
%TO.N,/P8*%
X41681399Y-64211201D02*
X45364399Y-64211201D01*
%TO.N,/P7*%
X41681399Y-61671201D02*
X45364399Y-61671201D01*
%TO.N,/P6*%
X41681399Y-59131201D02*
X45364399Y-59131201D01*
%TO.N,/P5*%
X41681399Y-56591201D02*
X45364399Y-56591201D01*
%TO.N,/P4*%
X41681399Y-54051201D02*
X45364399Y-54051201D01*
%TO.N,/P3*%
X41681399Y-51511201D02*
X45364399Y-51511201D01*
%TO.N,/P2*%
X41681399Y-48971201D02*
X45364399Y-48971201D01*
%TO.N,/P1*%
X45364399Y-46431201D02*
X41681399Y-46431201D01*
X93065599Y-46456601D02*
X91211399Y-44602401D01*
X91211399Y-44602401D02*
X47193199Y-44602401D01*
X47193199Y-44602401D02*
X45364399Y-46431201D01*
%TD*%
M02*
