%TF.GenerationSoftware,KiCad,Pcbnew,(5.99.0-7714-g70c397a9b4)*%
%TF.CreationDate,2021-02-07T00:17:42+03:00*%
%TF.ProjectId,dipext-pin_r4,64697065-7874-42d7-9069-6e5f72342e6b,rev?*%
%TF.SameCoordinates,Original*%
%TF.FileFunction,Legend,Top*%
%TF.FilePolarity,Positive*%
%FSLAX46Y46*%
G04 Gerber Fmt 4.6, Leading zero omitted, Abs format (unit mm)*
G04 Created by KiCad (PCBNEW (5.99.0-7714-g70c397a9b4)) date 2021-02-07 00:17:42*
%MOMM*%
%LPD*%
G01*
G04 APERTURE LIST*
%ADD10C,0.300000*%
%ADD11C,0.250000*%
%ADD12C,0.150000*%
%ADD13C,0.120000*%
G04 APERTURE END LIST*
D10*
X62186513Y-40746072D02*
X62186513Y-39246072D01*
X62543656Y-39246072D01*
X62757941Y-39317501D01*
X62900799Y-39460358D01*
X62972227Y-39603215D01*
X63043656Y-39888929D01*
X63043656Y-40103215D01*
X62972227Y-40388929D01*
X62900799Y-40531786D01*
X62757941Y-40674643D01*
X62543656Y-40746072D01*
X62186513Y-40746072D01*
X63686513Y-40746072D02*
X63686513Y-39246072D01*
X64400799Y-40746072D02*
X64400799Y-39246072D01*
X64972227Y-39246072D01*
X65115084Y-39317501D01*
X65186513Y-39388929D01*
X65257941Y-39531786D01*
X65257941Y-39746072D01*
X65186513Y-39888929D01*
X65115084Y-39960358D01*
X64972227Y-40031786D01*
X64400799Y-40031786D01*
X66543656Y-39746072D02*
X66543656Y-40746072D01*
X66186513Y-39174643D02*
X65829370Y-40246072D01*
X66757941Y-40246072D01*
X67615084Y-39246072D02*
X67757941Y-39246072D01*
X67900799Y-39317501D01*
X67972227Y-39388929D01*
X68043656Y-39531786D01*
X68115084Y-39817501D01*
X68115084Y-40174643D01*
X68043656Y-40460358D01*
X67972227Y-40603215D01*
X67900799Y-40674643D01*
X67757941Y-40746072D01*
X67615084Y-40746072D01*
X67472227Y-40674643D01*
X67400799Y-40603215D01*
X67329370Y-40460358D01*
X67257941Y-40174643D01*
X67257941Y-39817501D01*
X67329370Y-39531786D01*
X67400799Y-39388929D01*
X67472227Y-39317501D01*
X67615084Y-39246072D01*
X68757941Y-39960358D02*
X69257941Y-39960358D01*
X69472227Y-40746072D02*
X68757941Y-40746072D01*
X68757941Y-39246072D01*
X69472227Y-39246072D01*
X69972227Y-39246072D02*
X70972227Y-40746072D01*
X70972227Y-39246072D02*
X69972227Y-40746072D01*
X71329370Y-39246072D02*
X72186513Y-39246072D01*
X71757941Y-40746072D02*
X71757941Y-39246072D01*
X72686513Y-40174643D02*
X73829370Y-40174643D01*
X74543656Y-40746072D02*
X74543656Y-39246072D01*
X75115084Y-39246072D01*
X75257941Y-39317501D01*
X75329370Y-39388929D01*
X75400799Y-39531786D01*
X75400799Y-39746072D01*
X75329370Y-39888929D01*
X75257941Y-39960358D01*
X75115084Y-40031786D01*
X74543656Y-40031786D01*
X76043656Y-40746072D02*
X76043656Y-39246072D01*
X76757941Y-40746072D02*
X76757941Y-39246072D01*
X77615084Y-40746072D01*
X77615084Y-39246072D01*
X69650799Y-43161072D02*
X69150799Y-42446786D01*
X68793656Y-43161072D02*
X68793656Y-41661072D01*
X69365084Y-41661072D01*
X69507941Y-41732501D01*
X69579370Y-41803929D01*
X69650799Y-41946786D01*
X69650799Y-42161072D01*
X69579370Y-42303929D01*
X69507941Y-42375358D01*
X69365084Y-42446786D01*
X68793656Y-42446786D01*
X71007941Y-41661072D02*
X70293656Y-41661072D01*
X70222227Y-42375358D01*
X70293656Y-42303929D01*
X70436513Y-42232501D01*
X70793656Y-42232501D01*
X70936513Y-42303929D01*
X71007941Y-42375358D01*
X71079370Y-42518215D01*
X71079370Y-42875358D01*
X71007941Y-43018215D01*
X70936513Y-43089643D01*
X70793656Y-43161072D01*
X70436513Y-43161072D01*
X70293656Y-43089643D01*
X70222227Y-43018215D01*
D11*
X37119647Y-112820895D02*
X37000600Y-112761371D01*
X36762504Y-112761371D01*
X36643457Y-112820895D01*
X36524409Y-112939942D01*
X36464885Y-113058990D01*
X36464885Y-113297085D01*
X36524409Y-113416133D01*
X36643457Y-113535180D01*
X36762504Y-113594704D01*
X37000600Y-113594704D01*
X37119647Y-113535180D01*
X36881552Y-112344704D02*
X36583933Y-112404228D01*
X36286314Y-112582800D01*
X36107742Y-112880419D01*
X36048219Y-113178038D01*
X36107742Y-113475657D01*
X36286314Y-113773276D01*
X36583933Y-113951847D01*
X36881552Y-114011371D01*
X37179171Y-113951847D01*
X37476790Y-113773276D01*
X37655361Y-113475657D01*
X37714885Y-113178038D01*
X37655361Y-112880419D01*
X37476790Y-112582800D01*
X37179171Y-112404228D01*
X36881552Y-112344704D01*
X39143457Y-112642323D02*
X39202980Y-112582800D01*
X39322028Y-112523276D01*
X39619647Y-112523276D01*
X39738695Y-112582800D01*
X39798219Y-112642323D01*
X39857742Y-112761371D01*
X39857742Y-112880419D01*
X39798219Y-113058990D01*
X39083933Y-113773276D01*
X39857742Y-113773276D01*
X40631552Y-112523276D02*
X40750600Y-112523276D01*
X40869647Y-112582800D01*
X40929171Y-112642323D01*
X40988695Y-112761371D01*
X41048219Y-112999466D01*
X41048219Y-113297085D01*
X40988695Y-113535180D01*
X40929171Y-113654228D01*
X40869647Y-113713752D01*
X40750600Y-113773276D01*
X40631552Y-113773276D01*
X40512504Y-113713752D01*
X40452980Y-113654228D01*
X40393457Y-113535180D01*
X40333933Y-113297085D01*
X40333933Y-112999466D01*
X40393457Y-112761371D01*
X40452980Y-112642323D01*
X40512504Y-112582800D01*
X40631552Y-112523276D01*
X42238695Y-113773276D02*
X41524409Y-113773276D01*
X41881552Y-113773276D02*
X41881552Y-112523276D01*
X41762504Y-112701847D01*
X41643457Y-112820895D01*
X41524409Y-112880419D01*
X42952980Y-113058990D02*
X42833933Y-112999466D01*
X42774409Y-112939942D01*
X42714885Y-112820895D01*
X42714885Y-112761371D01*
X42774409Y-112642323D01*
X42833933Y-112582800D01*
X42952980Y-112523276D01*
X43191076Y-112523276D01*
X43310123Y-112582800D01*
X43369647Y-112642323D01*
X43429171Y-112761371D01*
X43429171Y-112820895D01*
X43369647Y-112939942D01*
X43310123Y-112999466D01*
X43191076Y-113058990D01*
X42952980Y-113058990D01*
X42833933Y-113118514D01*
X42774409Y-113178038D01*
X42714885Y-113297085D01*
X42714885Y-113535180D01*
X42774409Y-113654228D01*
X42833933Y-113713752D01*
X42952980Y-113773276D01*
X43191076Y-113773276D01*
X43310123Y-113713752D01*
X43369647Y-113654228D01*
X43429171Y-113535180D01*
X43429171Y-113297085D01*
X43369647Y-113178038D01*
X43310123Y-113118514D01*
X43191076Y-113058990D01*
X45274409Y-112523276D02*
X45274409Y-113416133D01*
X45214885Y-113594704D01*
X45095838Y-113713752D01*
X44917266Y-113773276D01*
X44798219Y-113773276D01*
X46107742Y-112523276D02*
X46345838Y-112523276D01*
X46464885Y-112582800D01*
X46583933Y-112701847D01*
X46643457Y-112939942D01*
X46643457Y-113356609D01*
X46583933Y-113594704D01*
X46464885Y-113713752D01*
X46345838Y-113773276D01*
X46107742Y-113773276D01*
X45988695Y-113713752D01*
X45869647Y-113594704D01*
X45810123Y-113356609D01*
X45810123Y-112939942D01*
X45869647Y-112701847D01*
X45988695Y-112582800D01*
X46107742Y-112523276D01*
X47179171Y-113773276D02*
X47179171Y-112523276D01*
X47179171Y-113118514D02*
X47893457Y-113118514D01*
X47893457Y-113773276D02*
X47893457Y-112523276D01*
X48488695Y-113773276D02*
X48488695Y-112523276D01*
X49202980Y-113773276D01*
X49202980Y-112523276D01*
X50750600Y-113773276D02*
X50750600Y-112523276D01*
X51167266Y-113416133D01*
X51583933Y-112523276D01*
X51583933Y-113773276D01*
X52893457Y-113654228D02*
X52833933Y-113713752D01*
X52655361Y-113773276D01*
X52536314Y-113773276D01*
X52357742Y-113713752D01*
X52238695Y-113594704D01*
X52179171Y-113475657D01*
X52119647Y-113237561D01*
X52119647Y-113058990D01*
X52179171Y-112820895D01*
X52238695Y-112701847D01*
X52357742Y-112582800D01*
X52536314Y-112523276D01*
X52655361Y-112523276D01*
X52833933Y-112582800D01*
X52893457Y-112642323D01*
X53429171Y-113773276D02*
X53429171Y-112523276D01*
X53845838Y-113416133D01*
X54262504Y-112523276D01*
X54262504Y-113773276D01*
X54798219Y-113416133D02*
X55393457Y-113416133D01*
X54679171Y-113773276D02*
X55095838Y-112523276D01*
X55512504Y-113773276D01*
X55869647Y-113713752D02*
X56048219Y-113773276D01*
X56345838Y-113773276D01*
X56464885Y-113713752D01*
X56524409Y-113654228D01*
X56583933Y-113535180D01*
X56583933Y-113416133D01*
X56524409Y-113297085D01*
X56464885Y-113237561D01*
X56345838Y-113178038D01*
X56107742Y-113118514D01*
X55988695Y-113058990D01*
X55929171Y-112999466D01*
X55869647Y-112880419D01*
X55869647Y-112761371D01*
X55929171Y-112642323D01*
X55988695Y-112582800D01*
X56107742Y-112523276D01*
X56405361Y-112523276D01*
X56583933Y-112582800D01*
X56941076Y-112523276D02*
X57655361Y-112523276D01*
X57298219Y-113773276D02*
X57298219Y-112523276D01*
X58072028Y-113118514D02*
X58488695Y-113118514D01*
X58667266Y-113773276D02*
X58072028Y-113773276D01*
X58072028Y-112523276D01*
X58667266Y-112523276D01*
X59917266Y-113773276D02*
X59500600Y-113178038D01*
X59202980Y-113773276D02*
X59202980Y-112523276D01*
X59679171Y-112523276D01*
X59798219Y-112582800D01*
X59857742Y-112642323D01*
X59917266Y-112761371D01*
X59917266Y-112939942D01*
X59857742Y-113058990D01*
X59798219Y-113118514D01*
X59679171Y-113178038D01*
X59202980Y-113178038D01*
X60512504Y-113713752D02*
X60512504Y-113773276D01*
X60452980Y-113892323D01*
X60393457Y-113951847D01*
X61941076Y-112642323D02*
X62000600Y-112582800D01*
X62119647Y-112523276D01*
X62417266Y-112523276D01*
X62536314Y-112582800D01*
X62595838Y-112642323D01*
X62655361Y-112761371D01*
X62655361Y-112880419D01*
X62595838Y-113058990D01*
X61881552Y-113773276D01*
X62655361Y-113773276D01*
X63429171Y-112523276D02*
X63548219Y-112523276D01*
X63667266Y-112582800D01*
X63726790Y-112642323D01*
X63786314Y-112761371D01*
X63845838Y-112999466D01*
X63845838Y-113297085D01*
X63786314Y-113535180D01*
X63726790Y-113654228D01*
X63667266Y-113713752D01*
X63548219Y-113773276D01*
X63429171Y-113773276D01*
X63310123Y-113713752D01*
X63250600Y-113654228D01*
X63191076Y-113535180D01*
X63131552Y-113297085D01*
X63131552Y-112999466D01*
X63191076Y-112761371D01*
X63250600Y-112642323D01*
X63310123Y-112582800D01*
X63429171Y-112523276D01*
X64322028Y-112642323D02*
X64381552Y-112582800D01*
X64500600Y-112523276D01*
X64798219Y-112523276D01*
X64917266Y-112582800D01*
X64976790Y-112642323D01*
X65036314Y-112761371D01*
X65036314Y-112880419D01*
X64976790Y-113058990D01*
X64262504Y-113773276D01*
X65036314Y-113773276D01*
X66226790Y-113773276D02*
X65512504Y-113773276D01*
X65869647Y-113773276D02*
X65869647Y-112523276D01*
X65750600Y-112701847D01*
X65631552Y-112820895D01*
X65512504Y-112880419D01*
X67655361Y-113416133D02*
X68250600Y-113416133D01*
X67536314Y-113773276D02*
X67952980Y-112523276D01*
X68369647Y-113773276D01*
X68786314Y-113773276D02*
X68786314Y-112523276D01*
X69500600Y-113773276D01*
X69500600Y-112523276D01*
X70095838Y-113773276D02*
X70095838Y-112523276D01*
X70393457Y-112523276D01*
X70572028Y-112582800D01*
X70691076Y-112701847D01*
X70750600Y-112820895D01*
X70810123Y-113058990D01*
X70810123Y-113237561D01*
X70750600Y-113475657D01*
X70691076Y-113594704D01*
X70572028Y-113713752D01*
X70393457Y-113773276D01*
X70095838Y-113773276D01*
X72060123Y-113773276D02*
X71643457Y-113178038D01*
X71345838Y-113773276D02*
X71345838Y-112523276D01*
X71822028Y-112523276D01*
X71941076Y-112582800D01*
X72000600Y-112642323D01*
X72060123Y-112761371D01*
X72060123Y-112939942D01*
X72000600Y-113058990D01*
X71941076Y-113118514D01*
X71822028Y-113178038D01*
X71345838Y-113178038D01*
X72595838Y-113118514D02*
X73012504Y-113118514D01*
X73191076Y-113773276D02*
X72595838Y-113773276D01*
X72595838Y-112523276D01*
X73191076Y-112523276D01*
X73964885Y-113178038D02*
X73964885Y-113773276D01*
X73548219Y-112523276D02*
X73964885Y-113178038D01*
X74381552Y-112523276D01*
X75572028Y-112523276D02*
X76286314Y-112523276D01*
X75929171Y-113773276D02*
X75929171Y-112523276D01*
X76702980Y-113654228D02*
X76762504Y-113713752D01*
X76702980Y-113773276D01*
X76643457Y-113713752D01*
X76702980Y-113654228D01*
X76702980Y-113773276D01*
X78250600Y-113773276D02*
X78250600Y-112523276D01*
X78786314Y-113773276D02*
X78786314Y-113118514D01*
X78726790Y-112999466D01*
X78607742Y-112939942D01*
X78429171Y-112939942D01*
X78310123Y-112999466D01*
X78250600Y-113058990D01*
X79202980Y-112939942D02*
X79679171Y-112939942D01*
X79381552Y-112523276D02*
X79381552Y-113594704D01*
X79441076Y-113713752D01*
X79560123Y-113773276D01*
X79679171Y-113773276D01*
X79917266Y-112939942D02*
X80393457Y-112939942D01*
X80095838Y-112523276D02*
X80095838Y-113594704D01*
X80155361Y-113713752D01*
X80274409Y-113773276D01*
X80393457Y-113773276D01*
X80810123Y-112939942D02*
X80810123Y-114189942D01*
X80810123Y-112999466D02*
X80929171Y-112939942D01*
X81167266Y-112939942D01*
X81286314Y-112999466D01*
X81345838Y-113058990D01*
X81405361Y-113178038D01*
X81405361Y-113535180D01*
X81345838Y-113654228D01*
X81286314Y-113713752D01*
X81167266Y-113773276D01*
X80929171Y-113773276D01*
X80810123Y-113713752D01*
X81881552Y-113713752D02*
X82000600Y-113773276D01*
X82238695Y-113773276D01*
X82357742Y-113713752D01*
X82417266Y-113594704D01*
X82417266Y-113535180D01*
X82357742Y-113416133D01*
X82238695Y-113356609D01*
X82060123Y-113356609D01*
X81941076Y-113297085D01*
X81881552Y-113178038D01*
X81881552Y-113118514D01*
X81941076Y-112999466D01*
X82060123Y-112939942D01*
X82238695Y-112939942D01*
X82357742Y-112999466D01*
X82952980Y-113654228D02*
X83012504Y-113713752D01*
X82952980Y-113773276D01*
X82893457Y-113713752D01*
X82952980Y-113654228D01*
X82952980Y-113773276D01*
X82952980Y-112999466D02*
X83012504Y-113058990D01*
X82952980Y-113118514D01*
X82893457Y-113058990D01*
X82952980Y-112999466D01*
X82952980Y-113118514D01*
X84441076Y-112463752D02*
X83369647Y-114070895D01*
X85750600Y-112463752D02*
X84679171Y-114070895D01*
X86107742Y-113713752D02*
X86226790Y-113773276D01*
X86464885Y-113773276D01*
X86583933Y-113713752D01*
X86643457Y-113594704D01*
X86643457Y-113535180D01*
X86583933Y-113416133D01*
X86464885Y-113356609D01*
X86286314Y-113356609D01*
X86167266Y-113297085D01*
X86107742Y-113178038D01*
X86107742Y-113118514D01*
X86167266Y-112999466D01*
X86286314Y-112939942D01*
X86464885Y-112939942D01*
X86583933Y-112999466D01*
X87179171Y-112939942D02*
X87179171Y-114189942D01*
X87179171Y-112999466D02*
X87298219Y-112939942D01*
X87536314Y-112939942D01*
X87655361Y-112999466D01*
X87714885Y-113058990D01*
X87774409Y-113178038D01*
X87774409Y-113535180D01*
X87714885Y-113654228D01*
X87655361Y-113713752D01*
X87536314Y-113773276D01*
X87298219Y-113773276D01*
X87179171Y-113713752D01*
X88310123Y-113773276D02*
X88310123Y-112939942D01*
X88310123Y-112523276D02*
X88250600Y-112582800D01*
X88310123Y-112642323D01*
X88369647Y-112582800D01*
X88310123Y-112523276D01*
X88310123Y-112642323D01*
X88905361Y-113773276D02*
X88905361Y-112939942D01*
X88905361Y-113178038D02*
X88964885Y-113058990D01*
X89024409Y-112999466D01*
X89143457Y-112939942D01*
X89262504Y-112939942D01*
X89679171Y-113773276D02*
X89679171Y-112939942D01*
X89679171Y-112523276D02*
X89619647Y-112582800D01*
X89679171Y-112642323D01*
X89738695Y-112582800D01*
X89679171Y-112523276D01*
X89679171Y-112642323D01*
X90095838Y-112939942D02*
X90572028Y-112939942D01*
X90274409Y-112523276D02*
X90274409Y-113594704D01*
X90333933Y-113713752D01*
X90452980Y-113773276D01*
X90572028Y-113773276D01*
X90988695Y-113654228D02*
X91048219Y-113713752D01*
X90988695Y-113773276D01*
X90929171Y-113713752D01*
X90988695Y-113654228D01*
X90988695Y-113773276D01*
X91583933Y-113773276D02*
X91583933Y-112939942D01*
X91583933Y-113178038D02*
X91643457Y-113058990D01*
X91702980Y-112999466D01*
X91822028Y-112939942D01*
X91941076Y-112939942D01*
X92833933Y-113713752D02*
X92714885Y-113773276D01*
X92476790Y-113773276D01*
X92357742Y-113713752D01*
X92298219Y-113594704D01*
X92298219Y-113118514D01*
X92357742Y-112999466D01*
X92476790Y-112939942D01*
X92714885Y-112939942D01*
X92833933Y-112999466D01*
X92893457Y-113118514D01*
X92893457Y-113237561D01*
X92298219Y-113356609D01*
X94322028Y-112463752D02*
X93250600Y-114070895D01*
D12*
%TO.C,J8*%
X51177865Y-43553581D02*
X51177865Y-44267867D01*
X51130246Y-44410724D01*
X51035008Y-44505962D01*
X50892151Y-44553581D01*
X50796913Y-44553581D01*
X51796913Y-43982153D02*
X51701675Y-43934534D01*
X51654056Y-43886915D01*
X51606437Y-43791677D01*
X51606437Y-43744058D01*
X51654056Y-43648820D01*
X51701675Y-43601201D01*
X51796913Y-43553581D01*
X51987389Y-43553581D01*
X52082627Y-43601201D01*
X52130246Y-43648820D01*
X52177865Y-43744058D01*
X52177865Y-43791677D01*
X52130246Y-43886915D01*
X52082627Y-43934534D01*
X51987389Y-43982153D01*
X51796913Y-43982153D01*
X51701675Y-44029772D01*
X51654056Y-44077391D01*
X51606437Y-44172629D01*
X51606437Y-44363105D01*
X51654056Y-44458343D01*
X51701675Y-44505962D01*
X51796913Y-44553581D01*
X51987389Y-44553581D01*
X52082627Y-44505962D01*
X52130246Y-44458343D01*
X52177865Y-44363105D01*
X52177865Y-44172629D01*
X52130246Y-44077391D01*
X52082627Y-44029772D01*
X51987389Y-43982153D01*
%TO.C,J7*%
X41348065Y-43553581D02*
X41348065Y-44267867D01*
X41300446Y-44410724D01*
X41205208Y-44505962D01*
X41062351Y-44553581D01*
X40967113Y-44553581D01*
X41729018Y-43553581D02*
X42395684Y-43553581D01*
X41967113Y-44553581D01*
%TO.C,J6*%
X77162065Y-43578981D02*
X77162065Y-44293267D01*
X77114446Y-44436124D01*
X77019208Y-44531362D01*
X76876351Y-44578981D01*
X76781113Y-44578981D01*
X78066827Y-43578981D02*
X77876351Y-43578981D01*
X77781113Y-43626601D01*
X77733494Y-43674220D01*
X77638256Y-43817077D01*
X77590637Y-44007553D01*
X77590637Y-44388505D01*
X77638256Y-44483743D01*
X77685875Y-44531362D01*
X77781113Y-44578981D01*
X77971589Y-44578981D01*
X78066827Y-44531362D01*
X78114446Y-44483743D01*
X78162065Y-44388505D01*
X78162065Y-44150410D01*
X78114446Y-44055172D01*
X78066827Y-44007553D01*
X77971589Y-43959934D01*
X77781113Y-43959934D01*
X77685875Y-44007553D01*
X77638256Y-44055172D01*
X77590637Y-44150410D01*
%TO.C,J5*%
X87017265Y-43578981D02*
X87017265Y-44293267D01*
X86969646Y-44436124D01*
X86874408Y-44531362D01*
X86731551Y-44578981D01*
X86636313Y-44578981D01*
X87969646Y-43578981D02*
X87493456Y-43578981D01*
X87445837Y-44055172D01*
X87493456Y-44007553D01*
X87588694Y-43959934D01*
X87826789Y-43959934D01*
X87922027Y-44007553D01*
X87969646Y-44055172D01*
X88017265Y-44150410D01*
X88017265Y-44388505D01*
X87969646Y-44483743D01*
X87922027Y-44531362D01*
X87826789Y-44578981D01*
X87588694Y-44578981D01*
X87493456Y-44531362D01*
X87445837Y-44483743D01*
%TO.C,J1*%
X56562665Y-43343581D02*
X56562665Y-44057867D01*
X56515046Y-44200724D01*
X56419808Y-44295962D01*
X56276951Y-44343581D01*
X56181713Y-44343581D01*
X57562665Y-44343581D02*
X56991237Y-44343581D01*
X57276951Y-44343581D02*
X57276951Y-43343581D01*
X57181713Y-43486439D01*
X57086475Y-43581677D01*
X56991237Y-43629296D01*
%TO.C,J2*%
X94002265Y-39304981D02*
X94002265Y-40019267D01*
X93954646Y-40162124D01*
X93859408Y-40257362D01*
X93716551Y-40304981D01*
X93621313Y-40304981D01*
X94430837Y-39400220D02*
X94478456Y-39352601D01*
X94573694Y-39304981D01*
X94811789Y-39304981D01*
X94907027Y-39352601D01*
X94954646Y-39400220D01*
X95002265Y-39495458D01*
X95002265Y-39590696D01*
X94954646Y-39733553D01*
X94383218Y-40304981D01*
X95002265Y-40304981D01*
%TO.C,J3*%
X46301065Y-43553581D02*
X46301065Y-44267867D01*
X46253446Y-44410724D01*
X46158208Y-44505962D01*
X46015351Y-44553581D01*
X45920113Y-44553581D01*
X46682018Y-43553581D02*
X47301065Y-43553581D01*
X46967732Y-43934534D01*
X47110589Y-43934534D01*
X47205827Y-43982153D01*
X47253446Y-44029772D01*
X47301065Y-44125010D01*
X47301065Y-44363105D01*
X47253446Y-44458343D01*
X47205827Y-44505962D01*
X47110589Y-44553581D01*
X46824875Y-44553581D01*
X46729637Y-44505962D01*
X46682018Y-44458343D01*
%TO.C,J4*%
X82089665Y-43578981D02*
X82089665Y-44293267D01*
X82042046Y-44436124D01*
X81946808Y-44531362D01*
X81803951Y-44578981D01*
X81708713Y-44578981D01*
X82994427Y-43912315D02*
X82994427Y-44578981D01*
X82756332Y-43531362D02*
X82518237Y-44245648D01*
X83137284Y-44245648D01*
D13*
%TO.C,J8*%
X50181199Y-45101201D02*
X51511199Y-45101201D01*
X50181199Y-46431201D02*
X50181199Y-45101201D01*
X50181199Y-47701201D02*
X52841199Y-47701201D01*
X52841199Y-47701201D02*
X52841199Y-96021201D01*
X50181199Y-47701201D02*
X50181199Y-96021201D01*
X50181199Y-96021201D02*
X52841199Y-96021201D01*
%TO.C,J7*%
X40351399Y-45101201D02*
X41681399Y-45101201D01*
X40351399Y-46431201D02*
X40351399Y-45101201D01*
X40351399Y-47701201D02*
X43011399Y-47701201D01*
X43011399Y-47701201D02*
X43011399Y-96021201D01*
X40351399Y-47701201D02*
X40351399Y-96021201D01*
X40351399Y-96021201D02*
X43011399Y-96021201D01*
%TO.C,J6*%
X76165399Y-45126601D02*
X77495399Y-45126601D01*
X76165399Y-46456601D02*
X76165399Y-45126601D01*
X76165399Y-47726601D02*
X78825399Y-47726601D01*
X78825399Y-47726601D02*
X78825399Y-96046601D01*
X76165399Y-47726601D02*
X76165399Y-96046601D01*
X76165399Y-96046601D02*
X78825399Y-96046601D01*
%TO.C,J5*%
X86020599Y-45126601D02*
X87350599Y-45126601D01*
X86020599Y-46456601D02*
X86020599Y-45126601D01*
X86020599Y-47726601D02*
X88680599Y-47726601D01*
X88680599Y-47726601D02*
X88680599Y-96046601D01*
X86020599Y-47726601D02*
X86020599Y-96046601D01*
X86020599Y-96046601D02*
X88680599Y-96046601D01*
%TO.C,J1*%
X65515999Y-45101201D02*
G75*
G02*
X63515999Y-45101201I-1000000J0D01*
G01*
X63515999Y-45101201D02*
X58055999Y-45101201D01*
X58055999Y-45101201D02*
X58055999Y-96021201D01*
X58055999Y-96021201D02*
X70975999Y-96021201D01*
X70975999Y-96021201D02*
X70975999Y-45101201D01*
X70975999Y-45101201D02*
X65515999Y-45101201D01*
X53085999Y-45041201D02*
X53085999Y-96081201D01*
X55565999Y-102311201D02*
X73465999Y-102311201D01*
X75945999Y-96081201D02*
X75945999Y-45041201D01*
X73465999Y-36271201D02*
X55565999Y-36271201D01*
%TO.C,J2*%
X99010599Y-41106601D02*
X99010599Y-100066601D01*
X99010599Y-100066601D02*
X89660599Y-100066601D01*
X89660599Y-100066601D02*
X89660599Y-41106601D01*
X89660599Y-41106601D02*
X99010599Y-41106601D01*
X89410599Y-40856601D02*
X89410599Y-43396601D01*
X89410599Y-40856601D02*
X91950599Y-40856601D01*
%TO.C,J3*%
X44034399Y-96021201D02*
X49234399Y-96021201D01*
X44034399Y-47701201D02*
X44034399Y-96021201D01*
X49234399Y-45101201D02*
X49234399Y-96021201D01*
X44034399Y-47701201D02*
X46634399Y-47701201D01*
X46634399Y-47701201D02*
X46634399Y-45101201D01*
X46634399Y-45101201D02*
X49234399Y-45101201D01*
X44034399Y-46431201D02*
X44034399Y-45101201D01*
X44034399Y-45101201D02*
X45364399Y-45101201D01*
%TO.C,J4*%
X79822999Y-96046601D02*
X85022999Y-96046601D01*
X79822999Y-47726601D02*
X79822999Y-96046601D01*
X85022999Y-45126601D02*
X85022999Y-96046601D01*
X79822999Y-47726601D02*
X82422999Y-47726601D01*
X82422999Y-47726601D02*
X82422999Y-45126601D01*
X82422999Y-45126601D02*
X85022999Y-45126601D01*
X79822999Y-46456601D02*
X79822999Y-45126601D01*
X79822999Y-45126601D02*
X81152999Y-45126601D01*
%TD*%
M02*
