M48
; DRILL file {KiCad (5.99.0-7714-g70c397a9b4)} date 02/07/21 01:03:57
; FORMAT={-:-/ absolute / metric / decimal}
; #@! TF.CreationDate,2021-02-07T01:03:57+03:00
; #@! TF.GenerationSoftware,Kicad,Pcbnew,(5.99.0-7714-g70c397a9b4)
; #@! TF.FileFunction,Plated,1,2,PTH
FMAT,2
METRIC
T1C0.800
T2C1.000
T3C1.016
%
G90
G05
T1
X56.896Y-46.431
X56.896Y-48.971
X56.896Y-51.511
X56.896Y-54.051
X56.896Y-56.591
X56.896Y-59.131
X56.896Y-61.671
X56.896Y-64.211
X56.896Y-66.751
X56.896Y-69.291
X56.896Y-71.831
X56.896Y-74.371
X56.896Y-76.911
X56.896Y-79.451
X56.896Y-81.991
X56.896Y-84.531
X56.896Y-87.071
X56.896Y-89.611
X56.896Y-92.151
X56.896Y-94.691
X72.136Y-46.431
X72.136Y-48.971
X72.136Y-51.511
X72.136Y-54.051
X72.136Y-56.591
X72.136Y-59.131
X72.136Y-61.671
X72.136Y-64.211
X72.136Y-66.751
X72.136Y-69.291
X72.136Y-71.831
X72.136Y-74.371
X72.136Y-76.911
X72.136Y-79.451
X72.136Y-81.991
X72.136Y-84.531
X72.136Y-87.071
X72.136Y-89.611
X72.136Y-92.151
X72.136Y-94.691
T2
X42.824Y-46.431
X42.824Y-48.971
X42.824Y-51.511
X42.824Y-54.051
X42.824Y-56.591
X42.824Y-59.131
X42.824Y-61.671
X42.824Y-64.211
X42.824Y-66.751
X42.824Y-69.291
X42.824Y-71.831
X42.824Y-74.371
X42.824Y-76.911
X42.824Y-79.451
X42.824Y-81.991
X42.824Y-84.531
X42.824Y-87.071
X42.824Y-89.611
X42.824Y-92.151
X42.824Y-94.691
X45.364Y-46.431
X45.364Y-48.971
X45.364Y-51.511
X45.364Y-54.051
X45.364Y-56.591
X45.364Y-59.131
X45.364Y-61.671
X45.364Y-64.211
X45.364Y-66.751
X45.364Y-69.291
X45.364Y-71.831
X45.364Y-74.371
X45.364Y-76.911
X45.364Y-79.451
X45.364Y-81.991
X45.364Y-84.531
X45.364Y-87.071
X45.364Y-89.611
X45.364Y-92.151
X45.364Y-94.691
X47.904Y-46.431
X47.904Y-48.971
X47.904Y-51.511
X47.904Y-54.051
X47.904Y-56.591
X47.904Y-59.131
X47.904Y-61.671
X47.904Y-64.211
X47.904Y-66.751
X47.904Y-69.291
X47.904Y-71.831
X47.904Y-74.371
X47.904Y-76.911
X47.904Y-79.451
X47.904Y-81.991
X47.904Y-84.531
X47.904Y-87.071
X47.904Y-89.611
X47.904Y-92.151
X47.904Y-94.691
X50.444Y-46.431
X50.444Y-48.971
X50.444Y-51.511
X50.444Y-54.051
X50.444Y-56.591
X50.444Y-59.131
X50.444Y-61.671
X50.444Y-64.211
X50.444Y-66.751
X50.444Y-69.291
X50.444Y-71.831
X50.444Y-74.371
X50.444Y-76.911
X50.444Y-79.451
X50.444Y-81.991
X50.444Y-84.531
X50.444Y-87.071
X50.444Y-89.611
X50.444Y-92.151
X50.444Y-94.691
X78.613Y-46.457
X78.613Y-48.997
X78.613Y-51.537
X78.613Y-54.077
X78.613Y-56.617
X78.613Y-59.157
X78.613Y-61.697
X78.613Y-64.237
X78.613Y-66.777
X78.613Y-69.317
X78.613Y-71.857
X78.613Y-74.397
X78.613Y-76.937
X78.613Y-79.477
X78.613Y-82.017
X78.613Y-84.557
X78.613Y-87.097
X78.613Y-89.637
X78.613Y-92.177
X78.613Y-94.717
X81.153Y-46.457
X81.153Y-48.997
X81.153Y-51.537
X81.153Y-54.077
X81.153Y-56.617
X81.153Y-59.157
X81.153Y-61.697
X81.153Y-64.237
X81.153Y-66.777
X81.153Y-69.317
X81.153Y-71.857
X81.153Y-74.397
X81.153Y-76.937
X81.153Y-79.477
X81.153Y-82.017
X81.153Y-84.557
X81.153Y-87.097
X81.153Y-89.637
X81.153Y-92.177
X81.153Y-94.717
X83.693Y-46.457
X83.693Y-48.997
X83.693Y-51.537
X83.693Y-54.077
X83.693Y-56.617
X83.693Y-59.157
X83.693Y-61.697
X83.693Y-64.237
X83.693Y-66.777
X83.693Y-69.317
X83.693Y-71.857
X83.693Y-74.397
X83.693Y-76.937
X83.693Y-79.477
X83.693Y-82.017
X83.693Y-84.557
X83.693Y-87.097
X83.693Y-89.637
X83.693Y-92.177
X83.693Y-94.717
X86.233Y-46.457
X86.233Y-48.997
X86.233Y-51.537
X86.233Y-54.077
X86.233Y-56.617
X86.233Y-59.157
X86.233Y-61.697
X86.233Y-64.237
X86.233Y-66.777
X86.233Y-69.317
X86.233Y-71.857
X86.233Y-74.397
X86.233Y-76.937
X86.233Y-79.477
X86.233Y-82.017
X86.233Y-84.557
X86.233Y-87.097
X86.233Y-89.637
X86.233Y-92.177
X86.233Y-94.717
T3
X93.066Y-46.457
X93.066Y-48.997
X93.066Y-51.537
X93.066Y-54.077
X93.066Y-56.617
X93.066Y-59.157
X93.066Y-61.697
X93.066Y-64.237
X93.066Y-66.777
X93.066Y-69.317
X93.066Y-71.857
X93.066Y-74.397
X93.066Y-76.937
X93.066Y-79.477
X93.066Y-82.017
X93.066Y-84.557
X93.066Y-87.097
X93.066Y-89.637
X93.066Y-92.177
X93.066Y-94.717
X95.606Y-46.457
X95.606Y-48.997
X95.606Y-51.537
X95.606Y-54.077
X95.606Y-56.617
X95.606Y-59.157
X95.606Y-61.697
X95.606Y-64.237
X95.606Y-66.777
X95.606Y-69.317
X95.606Y-71.857
X95.606Y-74.397
X95.606Y-76.937
X95.606Y-79.477
X95.606Y-82.017
X95.606Y-84.557
X95.606Y-87.097
X95.606Y-89.637
X95.606Y-92.177
X95.606Y-94.717
T0
M30
