%TF.GenerationSoftware,KiCad,Pcbnew,(5.99.0-8910-g624a231cc0)*%
%TF.CreationDate,2021-02-08T00:45:05+03:00*%
%TF.ProjectId,simpleprobecard,73696d70-6c65-4707-926f-626563617264,rev?*%
%TF.SameCoordinates,Original*%
%TF.FileFunction,Paste,Top*%
%TF.FilePolarity,Positive*%
%FSLAX46Y46*%
G04 Gerber Fmt 4.6, Leading zero omitted, Abs format (unit mm)*
G04 Created by KiCad (PCBNEW (5.99.0-8910-g624a231cc0)) date 2021-02-08 00:45:05*
%MOMM*%
%LPD*%
G01*
G04 APERTURE LIST*
G04 Aperture macros list*
%AMFreePoly0*
4,1,32,0.276244,0.043271,0.292903,0.037648,0.293699,0.036041,0.295355,0.035355,0.302084,0.019110,0.309887,0.003355,1.449887,-16.946645,1.444060,-16.963908,1.438920,-16.981387,1.437988,-16.981895,1.437648,-16.982903,1.421315,-16.990992,1.405327,-16.999715,0.005327,-17.149715,0.000001,-17.148149,-0.005326,-17.149715,-1.405327,-16.999715,-1.421315,-16.990992,-1.437648,-16.982903,-1.437988,-16.981895,
-1.438920,-16.981387,-1.444056,-16.963919,-1.449887,-16.946645,-0.309887,0.003355,-0.302084,0.019110,-0.295355,0.035355,-0.293699,0.036041,-0.292903,0.037648,-0.276244,0.043271,-0.260000,0.050000,0.260000,0.050000,0.276244,0.043271,0.276244,0.043271,$1*%
G04 Aperture macros list end*
%ADD10C,0.500000*%
%ADD11FreePoly0,0.000000*%
%ADD12FreePoly0,9.000000*%
%ADD13FreePoly0,18.000000*%
%ADD14FreePoly0,27.000000*%
%ADD15FreePoly0,36.000000*%
%ADD16FreePoly0,45.000000*%
%ADD17FreePoly0,54.000000*%
%ADD18FreePoly0,63.000000*%
%ADD19FreePoly0,72.000000*%
%ADD20FreePoly0,81.000000*%
%ADD21FreePoly0,90.000000*%
%ADD22FreePoly0,99.000000*%
%ADD23FreePoly0,108.000000*%
%ADD24FreePoly0,117.000000*%
%ADD25FreePoly0,126.000000*%
%ADD26FreePoly0,135.000000*%
%ADD27FreePoly0,144.000000*%
%ADD28FreePoly0,153.000000*%
%ADD29FreePoly0,162.000000*%
%ADD30FreePoly0,171.000000*%
%ADD31FreePoly0,180.000000*%
%ADD32FreePoly0,189.000000*%
%ADD33FreePoly0,198.000000*%
%ADD34FreePoly0,207.000000*%
%ADD35FreePoly0,216.000000*%
%ADD36FreePoly0,225.000000*%
%ADD37FreePoly0,234.000000*%
%ADD38FreePoly0,243.000000*%
%ADD39FreePoly0,252.000000*%
%ADD40FreePoly0,261.000000*%
%ADD41FreePoly0,270.000000*%
%ADD42FreePoly0,279.000000*%
%ADD43FreePoly0,288.000000*%
%ADD44FreePoly0,297.000000*%
%ADD45FreePoly0,306.000000*%
%ADD46FreePoly0,315.000000*%
%ADD47FreePoly0,324.000000*%
%ADD48FreePoly0,333.000000*%
%ADD49FreePoly0,342.000000*%
%ADD50FreePoly0,351.000000*%
G04 APERTURE END LIST*
D10*
%TO.C,J1*%
X0Y-25220000D03*
D11*
X0Y-8100000D03*
D10*
X3945277Y-24909500D03*
D12*
X1267119Y-8000276D03*
D10*
X7793409Y-23985645D03*
D13*
X2503038Y-7703558D03*
D10*
X11449640Y-22471185D03*
D14*
X3677323Y-7217153D03*
D15*
X4761061Y-6553038D03*
D10*
X14823944Y-20403409D03*
X17833233Y-17833233D03*
D16*
X5727565Y-5727565D03*
D17*
X6553038Y-4761061D03*
D10*
X20403409Y-14823944D03*
X22471185Y-11449640D03*
D18*
X7217153Y-3677323D03*
D10*
X23985645Y-7793409D03*
D19*
X7703558Y-2503038D03*
D20*
X8000276Y-1267119D03*
D10*
X24909500Y-3945277D03*
X25220000Y0D03*
D21*
X8100000Y0D03*
D10*
X24909500Y3945277D03*
D22*
X8000276Y1267119D03*
D10*
X23985645Y7793409D03*
D23*
X7703558Y2503038D03*
D24*
X7217153Y3677323D03*
D10*
X22471185Y11449640D03*
X20403409Y14823944D03*
D25*
X6553038Y4761061D03*
D10*
X17833233Y17833233D03*
D26*
X5727565Y5727565D03*
D10*
X14823944Y20403409D03*
D27*
X4761061Y6553038D03*
D28*
X3677323Y7217153D03*
D10*
X11449640Y22471185D03*
X7793409Y23985645D03*
D29*
X2503038Y7703558D03*
D10*
X3945277Y24909500D03*
D30*
X1267119Y8000276D03*
D31*
X0Y8100000D03*
D10*
X0Y25220000D03*
X-3945277Y24909500D03*
D32*
X-1267119Y8000276D03*
D33*
X-2503038Y7703558D03*
D10*
X-7793409Y23985645D03*
D34*
X-3677323Y7217153D03*
D10*
X-11449640Y22471185D03*
X-14823944Y20403409D03*
D35*
X-4761061Y6553038D03*
D10*
X-17833233Y17833233D03*
D36*
X-5727565Y5727565D03*
D10*
X-20403409Y14823944D03*
D37*
X-6553038Y4761061D03*
D38*
X-7217153Y3677323D03*
D10*
X-22471185Y11449640D03*
D39*
X-7703558Y2503038D03*
D10*
X-23985645Y7793409D03*
D40*
X-8000276Y1267119D03*
D10*
X-24909500Y3945277D03*
X-25220000Y0D03*
D41*
X-8100000Y0D03*
D42*
X-8000276Y-1267119D03*
D10*
X-24909500Y-3945277D03*
D43*
X-7703558Y-2503038D03*
D10*
X-23985645Y-7793409D03*
D44*
X-7217153Y-3677323D03*
D10*
X-22471185Y-11449640D03*
X-20403409Y-14823944D03*
D45*
X-6553038Y-4761061D03*
D10*
X-17833233Y-17833233D03*
D46*
X-5727565Y-5727565D03*
D47*
X-4761061Y-6553038D03*
D10*
X-14823944Y-20403409D03*
X-11449640Y-22471185D03*
D48*
X-3677323Y-7217153D03*
D49*
X-2503038Y-7703558D03*
D10*
X-7793409Y-23985645D03*
D50*
X-1267119Y-8000276D03*
D10*
X-3945277Y-24909500D03*
%TD*%
M02*
