%TF.GenerationSoftware,KiCad,Pcbnew,(5.99.0-8910-g624a231cc0)*%
%TF.CreationDate,2021-02-08T00:45:05+03:00*%
%TF.ProjectId,simpleprobecard,73696d70-6c65-4707-926f-626563617264,rev?*%
%TF.SameCoordinates,Original*%
%TF.FileFunction,Copper,L2,Bot*%
%TF.FilePolarity,Positive*%
%FSLAX46Y46*%
G04 Gerber Fmt 4.6, Leading zero omitted, Abs format (unit mm)*
G04 Created by KiCad (PCBNEW (5.99.0-8910-g624a231cc0)) date 2021-02-08 00:45:05*
%MOMM*%
%LPD*%
G01*
G04 APERTURE LIST*
G04 Aperture macros list*
%AMRoundRect*
0 Rectangle with rounded corners*
0 $1 Rounding radius*
0 $2 $3 $4 $5 $6 $7 $8 $9 X,Y pos of 4 corners*
0 Add a 4 corners polygon primitive as box body*
4,1,4,$2,$3,$4,$5,$6,$7,$8,$9,$2,$3,0*
0 Add four circle primitives for the rounded corners*
1,1,$1+$1,$2,$3*
1,1,$1+$1,$4,$5*
1,1,$1+$1,$6,$7*
1,1,$1+$1,$8,$9*
0 Add four rect primitives between the rounded corners*
20,1,$1+$1,$2,$3,$4,$5,0*
20,1,$1+$1,$4,$5,$6,$7,0*
20,1,$1+$1,$6,$7,$8,$9,0*
20,1,$1+$1,$8,$9,$2,$3,0*%
G04 Aperture macros list end*
%TA.AperFunction,ComponentPad*%
%ADD10C,1.700000*%
%TD*%
%TA.AperFunction,ComponentPad*%
%ADD11RoundRect,0.250000X-0.600000X0.600000X-0.600000X-0.600000X0.600000X-0.600000X0.600000X0.600000X0*%
%TD*%
%TA.AperFunction,ComponentPad*%
%ADD12C,0.900000*%
%TD*%
%TA.AperFunction,ComponentPad*%
%ADD13C,8.600000*%
%TD*%
%TA.AperFunction,Conductor*%
%ADD14C,0.250000*%
%TD*%
G04 APERTURE END LIST*
D10*
%TO.P,J3,40,Pin_40*%
%TO.N,/P21*%
X-23960000Y-66192400D03*
%TO.P,J3,38,Pin_38*%
%TO.N,/P22*%
X-21420000Y-66192400D03*
%TO.P,J3,36,Pin_36*%
%TO.N,/P23*%
X-18880000Y-66192400D03*
%TO.P,J3,34,Pin_34*%
%TO.N,/P24*%
X-16340000Y-66192400D03*
%TO.P,J3,32,Pin_32*%
%TO.N,/P25*%
X-13800000Y-66192400D03*
%TO.P,J3,30,Pin_30*%
%TO.N,/P26*%
X-11260000Y-66192400D03*
%TO.P,J3,28,Pin_28*%
%TO.N,/P27*%
X-8720000Y-66192400D03*
%TO.P,J3,26,Pin_26*%
%TO.N,/P28*%
X-6180000Y-66192400D03*
%TO.P,J3,24,Pin_24*%
%TO.N,/P29*%
X-3640000Y-66192400D03*
%TO.P,J3,22,Pin_22*%
%TO.N,/P30*%
X-1100000Y-66192400D03*
%TO.P,J3,20,Pin_20*%
%TO.N,/P31*%
X1440000Y-66192400D03*
%TO.P,J3,18,Pin_18*%
%TO.N,/P32*%
X3980000Y-66192400D03*
%TO.P,J3,16,Pin_16*%
%TO.N,/P33*%
X6520000Y-66192400D03*
%TO.P,J3,14,Pin_14*%
%TO.N,/P34*%
X9060000Y-66192400D03*
%TO.P,J3,12,Pin_12*%
%TO.N,/P35*%
X11600000Y-66192400D03*
%TO.P,J3,10,Pin_10*%
%TO.N,/P36*%
X14140000Y-66192400D03*
%TO.P,J3,8,Pin_8*%
%TO.N,/P37*%
X16680000Y-66192400D03*
%TO.P,J3,6,Pin_6*%
%TO.N,/P38*%
X19220000Y-66192400D03*
%TO.P,J3,4,Pin_4*%
%TO.N,/P39*%
X21760000Y-66192400D03*
%TO.P,J3,2,Pin_2*%
%TO.N,/P40*%
X24300000Y-66192400D03*
%TO.P,J3,39,Pin_39*%
%TO.N,/P20*%
X-23960000Y-63652400D03*
%TO.P,J3,37,Pin_37*%
%TO.N,/P19*%
X-21420000Y-63652400D03*
%TO.P,J3,35,Pin_35*%
%TO.N,/P18*%
X-18880000Y-63652400D03*
%TO.P,J3,33,Pin_33*%
%TO.N,/P17*%
X-16340000Y-63652400D03*
%TO.P,J3,31,Pin_31*%
%TO.N,/P16*%
X-13800000Y-63652400D03*
%TO.P,J3,29,Pin_29*%
%TO.N,/P15*%
X-11260000Y-63652400D03*
%TO.P,J3,27,Pin_27*%
%TO.N,/P14*%
X-8720000Y-63652400D03*
%TO.P,J3,25,Pin_25*%
%TO.N,/P13*%
X-6180000Y-63652400D03*
%TO.P,J3,23,Pin_23*%
%TO.N,/P12*%
X-3640000Y-63652400D03*
%TO.P,J3,21,Pin_21*%
%TO.N,/P11*%
X-1100000Y-63652400D03*
%TO.P,J3,19,Pin_19*%
%TO.N,/P10*%
X1440000Y-63652400D03*
%TO.P,J3,17,Pin_17*%
%TO.N,/P9*%
X3980000Y-63652400D03*
%TO.P,J3,15,Pin_15*%
%TO.N,/P8*%
X6520000Y-63652400D03*
%TO.P,J3,13,Pin_13*%
%TO.N,/P7*%
X9060000Y-63652400D03*
%TO.P,J3,11,Pin_11*%
%TO.N,/P6*%
X11600000Y-63652400D03*
%TO.P,J3,9,Pin_9*%
%TO.N,/P5*%
X14140000Y-63652400D03*
%TO.P,J3,7,Pin_7*%
%TO.N,/P4*%
X16680000Y-63652400D03*
%TO.P,J3,5,Pin_5*%
%TO.N,/P3*%
X19220000Y-63652400D03*
%TO.P,J3,3,Pin_3*%
%TO.N,/P2*%
X21760000Y-63652400D03*
D11*
%TO.P,J3,1,Pin_1*%
%TO.N,/P1*%
X24300000Y-63652400D03*
%TD*%
D12*
%TO.P,H7,1*%
%TO.N,N/C*%
X3225000Y50800000D03*
X0Y54025000D03*
D13*
X0Y50800000D03*
D12*
X0Y47575000D03*
X-3225000Y50800000D03*
X-2280419Y48519581D03*
X2280419Y53080419D03*
X-2280419Y53080419D03*
X2280419Y48519581D03*
%TD*%
D13*
%TO.P,H3,1*%
%TO.N,N/C*%
X-50800000Y-25400000D03*
D12*
X-47575000Y-25400000D03*
X-50800000Y-22175000D03*
X-48519581Y-27680419D03*
X-54025000Y-25400000D03*
X-48519581Y-23119581D03*
X-50800000Y-28625000D03*
X-53080419Y-27680419D03*
X-53080419Y-23119581D03*
%TD*%
%TO.P,H4,1*%
%TO.N,N/C*%
X48519581Y27680419D03*
X53080419Y27680419D03*
X48519581Y23119581D03*
D13*
X50800000Y25400000D03*
D12*
X53080419Y23119581D03*
X50800000Y22175000D03*
X47575000Y25400000D03*
X50800000Y28625000D03*
X54025000Y25400000D03*
%TD*%
%TO.P,H1,1*%
%TO.N,N/C*%
X-53080419Y27680419D03*
X-48519581Y27680419D03*
X-53080419Y23119581D03*
D13*
X-50800000Y25400000D03*
D12*
X-48519581Y23119581D03*
X-50800000Y22175000D03*
X-54025000Y25400000D03*
X-50800000Y28625000D03*
X-47575000Y25400000D03*
%TD*%
D11*
%TO.P,J2,1,Pin_1*%
%TO.N,/P1*%
X24300000Y-38500000D03*
D10*
%TO.P,J2,2,Pin_2*%
%TO.N,/P2*%
X24300000Y-41040000D03*
%TO.P,J2,3,Pin_3*%
%TO.N,/P3*%
X21760000Y-38500000D03*
%TO.P,J2,4,Pin_4*%
%TO.N,/P4*%
X21760000Y-41040000D03*
%TO.P,J2,5,Pin_5*%
%TO.N,/P5*%
X19220000Y-38500000D03*
%TO.P,J2,6,Pin_6*%
%TO.N,/P6*%
X19220000Y-41040000D03*
%TO.P,J2,7,Pin_7*%
%TO.N,/P7*%
X16680000Y-38500000D03*
%TO.P,J2,8,Pin_8*%
%TO.N,/P8*%
X16680000Y-41040000D03*
%TO.P,J2,9,Pin_9*%
%TO.N,/P9*%
X14140000Y-38500000D03*
%TO.P,J2,10,Pin_10*%
%TO.N,/P10*%
X14140000Y-41040000D03*
%TO.P,J2,11,Pin_11*%
%TO.N,/P11*%
X11600000Y-38500000D03*
%TO.P,J2,12,Pin_12*%
%TO.N,/P12*%
X11600000Y-41040000D03*
%TO.P,J2,13,Pin_13*%
%TO.N,/P13*%
X9060000Y-38500000D03*
%TO.P,J2,14,Pin_14*%
%TO.N,/P14*%
X9060000Y-41040000D03*
%TO.P,J2,15,Pin_15*%
%TO.N,/P15*%
X6520000Y-38500000D03*
%TO.P,J2,16,Pin_16*%
%TO.N,/P16*%
X6520000Y-41040000D03*
%TO.P,J2,17,Pin_17*%
%TO.N,/P17*%
X3980000Y-38500000D03*
%TO.P,J2,18,Pin_18*%
%TO.N,/P18*%
X3980000Y-41040000D03*
%TO.P,J2,19,Pin_19*%
%TO.N,/P19*%
X1440000Y-38500000D03*
%TO.P,J2,20,Pin_20*%
%TO.N,/P20*%
X1440000Y-41040000D03*
%TO.P,J2,21,Pin_21*%
%TO.N,/P21*%
X-1100000Y-38500000D03*
%TO.P,J2,22,Pin_22*%
%TO.N,/P22*%
X-1100000Y-41040000D03*
%TO.P,J2,23,Pin_23*%
%TO.N,/P23*%
X-3640000Y-38500000D03*
%TO.P,J2,24,Pin_24*%
%TO.N,/P24*%
X-3640000Y-41040000D03*
%TO.P,J2,25,Pin_25*%
%TO.N,/P25*%
X-6180000Y-38500000D03*
%TO.P,J2,26,Pin_26*%
%TO.N,/P26*%
X-6180000Y-41040000D03*
%TO.P,J2,27,Pin_27*%
%TO.N,/P27*%
X-8720000Y-38500000D03*
%TO.P,J2,28,Pin_28*%
%TO.N,/P28*%
X-8720000Y-41040000D03*
%TO.P,J2,29,Pin_29*%
%TO.N,/P29*%
X-11260000Y-38500000D03*
%TO.P,J2,30,Pin_30*%
%TO.N,/P30*%
X-11260000Y-41040000D03*
%TO.P,J2,31,Pin_31*%
%TO.N,/P31*%
X-13800000Y-38500000D03*
%TO.P,J2,32,Pin_32*%
%TO.N,/P32*%
X-13800000Y-41040000D03*
%TO.P,J2,33,Pin_33*%
%TO.N,/P33*%
X-16340000Y-38500000D03*
%TO.P,J2,34,Pin_34*%
%TO.N,/P34*%
X-16340000Y-41040000D03*
%TO.P,J2,35,Pin_35*%
%TO.N,/P35*%
X-18880000Y-38500000D03*
%TO.P,J2,36,Pin_36*%
%TO.N,/P36*%
X-18880000Y-41040000D03*
%TO.P,J2,37,Pin_37*%
%TO.N,/P37*%
X-21420000Y-38500000D03*
%TO.P,J2,38,Pin_38*%
%TO.N,/P38*%
X-21420000Y-41040000D03*
%TO.P,J2,39,Pin_39*%
%TO.N,/P39*%
X-23960000Y-38500000D03*
%TO.P,J2,40,Pin_40*%
%TO.N,/P40*%
X-23960000Y-41040000D03*
%TD*%
D13*
%TO.P,H6,1*%
%TO.N,N/C*%
X50800000Y-25400000D03*
D12*
X54025000Y-25400000D03*
X50800000Y-22175000D03*
X53080419Y-27680419D03*
X47575000Y-25400000D03*
X53080419Y-23119581D03*
X50800000Y-28625000D03*
X48519581Y-27680419D03*
X48519581Y-23119581D03*
%TD*%
%TO.P,H8,1*%
%TO.N,N/C*%
X-3225000Y-76200000D03*
D13*
X0Y-76200000D03*
D12*
X2280419Y-78480419D03*
X0Y-79425000D03*
X2280419Y-73919581D03*
X3225000Y-76200000D03*
X0Y-72975000D03*
X-2280419Y-78480419D03*
X-2280419Y-73919581D03*
%TD*%
D14*
%TO.N,/P3*%
X21760000Y-38500000D02*
X23088600Y-39828600D01*
X23088600Y-39828600D02*
X23088600Y-59783800D01*
X23088600Y-59783800D02*
X19220000Y-63652400D01*
%TO.N,/P40*%
X-23960000Y-41040000D02*
X-25704800Y-39295200D01*
X-25704800Y-39295200D02*
X-25704800Y-37680900D01*
X-25704800Y-37680900D02*
X-24269700Y-36245800D01*
X-24269700Y-36245800D02*
X25781000Y-36245800D01*
X25781000Y-36245800D02*
X28549600Y-39014400D01*
X28549600Y-39014400D02*
X28549600Y-61942800D01*
X28549600Y-61942800D02*
X24300000Y-66192400D01*
%TO.N,/P21*%
X-1100000Y-38500000D02*
X75011Y-39675011D01*
X75011Y-39675011D02*
X75011Y-51743811D01*
X75011Y-51743811D02*
X-6909811Y-58728633D01*
X-6909811Y-58728633D02*
X-22470125Y-58728633D01*
X-22470125Y-58728633D02*
X-25882600Y-62141108D01*
X-25882600Y-62141108D02*
X-25882600Y-64269800D01*
X-25882600Y-64269800D02*
X-23960000Y-66192400D01*
%TO.N,/P20*%
X1440000Y-41040000D02*
X1498600Y-41098600D01*
X-6723411Y-59178644D02*
X-19486244Y-59178644D01*
X1498600Y-41098600D02*
X1498600Y-50956633D01*
X1498600Y-50956633D02*
X-6723411Y-59178644D01*
X-19486244Y-59178644D02*
X-23960000Y-63652400D01*
%TO.N,/P25*%
X-5004989Y-39675011D02*
X-5004989Y-52909389D01*
%TO.N,/P26*%
X-28208378Y-61284826D02*
X-28208378Y-66261266D01*
%TO.N,/P28*%
X-10087767Y-70100167D02*
X-6180000Y-66192400D01*
%TO.N,/P27*%
X-23392997Y-55833033D02*
X-28658389Y-61098425D01*
X-12648800Y-55833033D02*
X-23392997Y-55833033D01*
%TO.N,/P28*%
X-29108400Y-66634068D02*
X-25642301Y-70100167D01*
%TO.N,/P27*%
X-7544989Y-50729260D02*
X-12648800Y-55833033D01*
%TO.N,/P28*%
X-25642301Y-70100167D02*
X-10087767Y-70100167D01*
X-8720000Y-41040000D02*
X-8720000Y-51267844D01*
%TO.N,/P25*%
X-6180000Y-38500000D02*
X-5004989Y-39675011D01*
%TO.N,/P27*%
X-12177756Y-69650156D02*
X-8720000Y-66192400D01*
%TO.N,/P28*%
X-12835200Y-55383022D02*
X-23579398Y-55383022D01*
X-8720000Y-51267844D02*
X-12835200Y-55383022D01*
%TO.N,/P25*%
X-25083098Y-68750134D02*
X-15791134Y-68750134D01*
%TO.N,/P26*%
X-14691745Y-69200145D02*
X-11684000Y-66192400D01*
X-10410644Y-56283044D02*
X-23206596Y-56283044D01*
X-25269499Y-69200145D02*
X-14691745Y-69200145D01*
X-28208378Y-66261266D02*
X-25269499Y-69200145D01*
%TO.N,/P28*%
X-29108400Y-60912024D02*
X-29108400Y-66634068D01*
%TO.N,/P27*%
X-8720000Y-38500000D02*
X-7544989Y-39675011D01*
X-7544989Y-39675011D02*
X-7544989Y-50729260D01*
%TO.N,/P28*%
X-23579398Y-55383022D02*
X-29108400Y-60912024D01*
%TO.N,/P26*%
X-23206596Y-56283044D02*
X-28208378Y-61284826D01*
X-6180000Y-52052400D02*
X-10410644Y-56283044D01*
X-6180000Y-41040000D02*
X-6180000Y-52052400D01*
%TO.N,/P27*%
X-28658389Y-61098425D02*
X-28658389Y-66447667D01*
%TO.N,/P26*%
X-11684000Y-66192400D02*
X-11260000Y-66192400D01*
%TO.N,/P27*%
X-25455900Y-69650156D02*
X-12177756Y-69650156D01*
%TO.N,/P25*%
X-5004989Y-52909389D02*
X-8828655Y-56733055D01*
%TO.N,/P27*%
X-28658389Y-66447667D02*
X-25455900Y-69650156D01*
%TO.N,/P25*%
X-8828655Y-56733055D02*
X-23020195Y-56733055D01*
X-23020195Y-56733055D02*
X-27758367Y-61471227D01*
X-27758367Y-61471227D02*
X-27758367Y-66074865D01*
X-27758367Y-66074865D02*
X-25083098Y-68750134D01*
X-15791134Y-68750134D02*
X-13800000Y-66759000D01*
X-13800000Y-66759000D02*
X-13800000Y-66192400D01*
%TO.N,/P23*%
X-2464989Y-39675011D02*
X-2464989Y-52377520D01*
%TO.N,/P29*%
X-25828702Y-70550178D02*
X-8842304Y-70550178D01*
%TO.N,/P32*%
X-31470600Y-60198000D02*
X-31470600Y-66817516D01*
%TO.N,/P22*%
X-22627701Y-67400101D02*
X-21420000Y-66192400D01*
%TO.N,/P24*%
X-3640000Y-41040000D02*
X-3640000Y-52916000D01*
%TO.N,/P30*%
X-2278945Y-67371345D02*
X-1100000Y-66192400D01*
%TO.N,/P36*%
X-18880000Y-44995436D02*
X-33883600Y-59999036D01*
%TO.N,/P29*%
X-10084989Y-39675011D02*
X-10084989Y-51996401D01*
%TO.N,/P22*%
X-1100000Y-52282412D02*
X-7096211Y-58278622D01*
%TO.N,/P29*%
X-29616400Y-66762480D02*
X-25828702Y-70550178D01*
X-11260000Y-38500000D02*
X-10084989Y-39675011D01*
%TO.N,/P31*%
X-30911800Y-60502800D02*
X-12624989Y-42215989D01*
%TO.N,/P22*%
X-26408334Y-65515662D02*
X-24523895Y-67400101D01*
%TO.N,/P32*%
X-13800000Y-42527400D02*
X-31470600Y-60198000D01*
%TO.N,/P33*%
X-15164989Y-39675011D02*
X-15164989Y-43255965D01*
%TO.N,/P23*%
X-7916200Y-57828611D02*
X-22842927Y-57828611D01*
%TO.N,/P32*%
X-31470600Y-66817516D02*
X-26329916Y-71958200D01*
X-13800000Y-41040000D02*
X-13800000Y-42527400D01*
%TO.N,/P33*%
X-32106312Y-60197288D02*
X-32106312Y-66818216D01*
%TO.N,/P22*%
X-26408334Y-62030430D02*
X-26408334Y-65515662D01*
%TO.N,/P31*%
X-12624989Y-42215989D02*
X-12624989Y-39675011D01*
%TO.N,/P22*%
X-7096211Y-58278622D02*
X-22656526Y-58278622D01*
%TO.N,/P29*%
X-5213446Y-66921334D02*
X-4368934Y-66921334D01*
%TO.N,/P33*%
X-4467846Y-68721378D02*
X3991022Y-68721378D01*
%TO.N,/P24*%
X-8102600Y-57378600D02*
X-23029328Y-57378600D01*
%TO.N,/P29*%
X-13021600Y-54933011D02*
X-23765799Y-54933011D01*
%TO.N,/P33*%
X3991022Y-68721378D02*
X6520000Y-66192400D01*
X-16340000Y-38500000D02*
X-15164989Y-39675011D01*
%TO.N,/P34*%
X6081002Y-69171398D02*
X-4281453Y-69171398D01*
%TO.N,/P30*%
X-5027046Y-67371345D02*
X-2278945Y-67371345D01*
%TO.N,/P22*%
X-1100000Y-41040000D02*
X-1100000Y-52282412D01*
%TO.N,/P30*%
X-26015103Y-71000189D02*
X-8655900Y-71000189D01*
%TO.N,/P22*%
X-22656526Y-58278622D02*
X-26408334Y-62030430D01*
%TO.N,/P31*%
X-26201504Y-71450200D02*
X-30911800Y-66739904D01*
X-30911800Y-66739904D02*
X-30911800Y-60502800D01*
%TO.N,/P23*%
X-24710296Y-67850112D02*
X-20537712Y-67850112D01*
%TO.N,/P33*%
X-15164989Y-43255965D02*
X-32106312Y-60197288D01*
%TO.N,/P22*%
X-24523895Y-67400101D02*
X-22627701Y-67400101D01*
%TO.N,/P36*%
X-33883600Y-59999036D02*
X-33883600Y-66950164D01*
%TO.N,/P24*%
X-23029328Y-57378600D02*
X-27308356Y-61657628D01*
%TO.N,/P37*%
X-3725600Y-70524778D02*
X12347622Y-70524778D01*
%TO.N,/P24*%
X-27308356Y-61657628D02*
X-27308356Y-65888464D01*
%TO.N,/P37*%
X-34391600Y-59870624D02*
X-34391600Y-67078576D01*
%TO.N,/P24*%
X-27308356Y-65888464D02*
X-24896697Y-68300123D01*
X-24896697Y-68300123D02*
X-18262123Y-68300123D01*
%TO.N,/P39*%
X-27559000Y-75184000D02*
X-7112000Y-75184000D01*
%TO.N,/P24*%
X-18262123Y-68300123D02*
X-16340000Y-66378000D01*
X-16340000Y-66378000D02*
X-16340000Y-66192400D01*
%TO.N,/P31*%
X1440000Y-66192400D02*
X889000Y-66192400D01*
%TO.N,/P34*%
X9060000Y-66192400D02*
X6081002Y-69171398D01*
X-16340000Y-43728260D02*
X-16340000Y-41040000D01*
%TO.N,/P32*%
X2048889Y-68271367D02*
X4053928Y-66266328D01*
%TO.N,/P31*%
X-4840646Y-67821356D02*
X-8469500Y-71450200D01*
%TO.N,/P35*%
X-17515011Y-39864989D02*
X-17515011Y-44266859D01*
X-33433589Y-60185437D02*
X-33433589Y-66763763D01*
X-18880000Y-38500000D02*
X-17515011Y-39864989D01*
%TO.N,/P37*%
X-34391600Y-67078576D02*
X-27186198Y-74283978D01*
%TO.N,/P35*%
X-33433589Y-66763763D02*
X-26813396Y-73383956D01*
%TO.N,/P37*%
X-7484809Y-74283978D02*
X-3725600Y-70524778D01*
%TO.N,/P29*%
X-23765799Y-54933011D02*
X-29616400Y-60783612D01*
%TO.N,/P35*%
X-7857612Y-73383956D02*
X-4095053Y-69621409D01*
X8170991Y-69621409D02*
X11600000Y-66192400D01*
%TO.N,/P36*%
X-18880000Y-41040000D02*
X-18880000Y-44995436D01*
X-3912000Y-70074767D02*
X10257633Y-70074767D01*
X-7671212Y-73833967D02*
X-3912000Y-70074767D01*
%TO.N,/P37*%
X-21420000Y-38500000D02*
X-20055011Y-39864989D01*
X-20055011Y-39864989D02*
X-20055011Y-45534035D01*
%TO.N,/P29*%
X-8842304Y-70550178D02*
X-5213446Y-66921334D01*
%TO.N,/P32*%
X-8341089Y-71958200D02*
X-4654246Y-68271367D01*
%TO.N,/P38*%
X-3539200Y-70974789D02*
X14437611Y-70974789D01*
%TO.N,/P29*%
X-4368934Y-66921334D02*
X-3640000Y-66192400D01*
%TO.N,/P38*%
X-34899600Y-67206988D02*
X-27372599Y-74733989D01*
%TO.N,/P34*%
X-32791400Y-66769540D02*
X-32791400Y-60179660D01*
%TO.N,/P38*%
X-21420000Y-41040000D02*
X-21420000Y-46262612D01*
%TO.N,/P30*%
X-30302200Y-66713092D02*
X-26015103Y-71000189D01*
%TO.N,/P35*%
X-4095053Y-69621409D02*
X8170991Y-69621409D01*
%TO.N,/P38*%
X-27372599Y-74733989D02*
X-7298401Y-74733989D01*
%TO.N,/P32*%
X-4654246Y-68271367D02*
X2048889Y-68271367D01*
%TO.N,/P39*%
X-35509200Y-67233800D02*
X-27559000Y-75184000D01*
%TO.N,/P38*%
X-21420000Y-46262612D02*
X-34899600Y-59742212D01*
%TO.N,/P37*%
X12347622Y-70524778D02*
X16680000Y-66192400D01*
%TO.N,/P38*%
X-34899600Y-59742212D02*
X-34899600Y-67206988D01*
%TO.N,/P35*%
X-26813396Y-73383956D02*
X-7857612Y-73383956D01*
%TO.N,/P38*%
X-7298401Y-74733989D02*
X-3539200Y-70974789D01*
%TO.N,/P34*%
X-8044012Y-72933945D02*
X-26626995Y-72933945D01*
%TO.N,/P36*%
X10257633Y-70074767D02*
X14140000Y-66192400D01*
%TO.N,/P37*%
X-27186198Y-74283978D02*
X-7484809Y-74283978D01*
X-20055011Y-45534035D02*
X-34391600Y-59870624D01*
%TO.N,/P34*%
X-32791400Y-60179660D02*
X-16340000Y-43728260D01*
%TO.N,/P31*%
X-739956Y-67821356D02*
X-4840646Y-67821356D01*
%TO.N,/P34*%
X-4281453Y-69171398D02*
X-8044012Y-72933945D01*
%TO.N,/P36*%
X-33883600Y-66950164D02*
X-26999797Y-73833967D01*
%TO.N,/P31*%
X889000Y-66192400D02*
X-739956Y-67821356D01*
%TO.N,/P30*%
X-30302200Y-60807600D02*
X-30302200Y-66713092D01*
%TO.N,/P35*%
X-17515011Y-44266859D02*
X-33433589Y-60185437D01*
%TO.N,/P34*%
X-26626995Y-72933945D02*
X-32791400Y-66769540D01*
%TO.N,/P36*%
X-26999797Y-73833967D02*
X-7671212Y-73833967D01*
%TO.N,/P38*%
X14437611Y-70974789D02*
X19220000Y-66192400D01*
%TO.N,/P29*%
X-29616400Y-60783612D02*
X-29616400Y-66762480D01*
%TO.N,/P23*%
X-20537712Y-67850112D02*
X-18880000Y-66192400D01*
%TO.N,/P31*%
X-8469500Y-71450200D02*
X-26201504Y-71450200D01*
%TO.N,/P23*%
X-2464989Y-52377520D02*
X-7916200Y-57828611D01*
%TO.N,/P31*%
X-12624989Y-39675011D02*
X-13800000Y-38500000D01*
%TO.N,/P29*%
X-10084989Y-51996401D02*
X-13021600Y-54933011D01*
%TO.N,/P23*%
X-3640000Y-38500000D02*
X-2464989Y-39675011D01*
%TO.N,/P33*%
X-26470672Y-72453856D02*
X-8200334Y-72453856D01*
X-32106312Y-66818216D02*
X-26470672Y-72453856D01*
%TO.N,/P24*%
X-3640000Y-52916000D02*
X-8102600Y-57378600D01*
%TO.N,/P23*%
X-26858345Y-61844029D02*
X-26858345Y-65702063D01*
%TO.N,/P33*%
X-8200334Y-72453856D02*
X-4467846Y-68721378D01*
%TO.N,/P32*%
X-26329916Y-71958200D02*
X-8341089Y-71958200D01*
%TO.N,/P23*%
X-22842927Y-57828611D02*
X-26858345Y-61844029D01*
%TO.N,/P30*%
X-8655900Y-71000189D02*
X-5027046Y-67371345D01*
%TO.N,/P23*%
X-26858345Y-65702063D02*
X-24710296Y-67850112D01*
%TO.N,/P39*%
X-23960000Y-38500000D02*
X-22784989Y-39675011D01*
X-22784989Y-39675011D02*
X-22784989Y-46991189D01*
X-22784989Y-46991189D02*
X-35509200Y-59715400D01*
X-35509200Y-59715400D02*
X-35509200Y-67233800D01*
X-7112000Y-75184000D02*
X-3352800Y-71424800D01*
X-3352800Y-71424800D02*
X16527600Y-71424800D01*
X16527600Y-71424800D02*
X21760000Y-66192400D01*
%TO.N,/P5*%
X20395011Y-57397389D02*
X14140000Y-63652400D01*
%TO.N,/P7*%
X17855011Y-54857389D02*
X9060000Y-63652400D01*
%TO.N,/P15*%
X7695011Y-47942390D02*
X-5791411Y-61428699D01*
%TO.N,/P19*%
X-18633055Y-59628655D02*
X-21420000Y-62415600D01*
X-6537011Y-59628655D02*
X-18633055Y-59628655D01*
%TO.N,/P11*%
X11600000Y-38500000D02*
X12775011Y-39675011D01*
%TO.N,/P9*%
X14140000Y-38500000D02*
X15315011Y-39675011D01*
%TO.N,/P5*%
X20395011Y-39675011D02*
X20395011Y-57397389D01*
%TO.N,/P13*%
X10235011Y-39675011D02*
X10235011Y-47237389D01*
%TO.N,/P19*%
X2615011Y-39675011D02*
X2615011Y-50476682D01*
%TO.N,/P13*%
X9060000Y-38500000D02*
X10235011Y-39675011D01*
%TO.N,/P11*%
X12775011Y-49777389D02*
X-1100000Y-63652400D01*
%TO.N,/P9*%
X15315011Y-39675011D02*
X15315011Y-52317389D01*
%TO.N,/P15*%
X-9036299Y-61428699D02*
X-11260000Y-63652400D01*
%TO.N,/P7*%
X17855011Y-39675011D02*
X17855011Y-54857389D01*
%TO.N,/P15*%
X7695011Y-39675011D02*
X7695011Y-47942390D01*
%TO.N,/P19*%
X-21420000Y-62415600D02*
X-21420000Y-63652400D01*
%TO.N,/P5*%
X19220000Y-38500000D02*
X20395011Y-39675011D01*
%TO.N,/P7*%
X16680000Y-38500000D02*
X17855011Y-39675011D01*
%TO.N,/P15*%
X-5791411Y-61428699D02*
X-9036299Y-61428699D01*
%TO.N,/P19*%
X2615011Y-50476682D02*
X-6537011Y-59628655D01*
%TO.N,/P9*%
X15315011Y-52317389D02*
X3980000Y-63652400D01*
%TO.N,/P11*%
X12775011Y-39675011D02*
X12775011Y-49777389D01*
%TO.N,/P13*%
X10235011Y-47237389D02*
X-6180000Y-63652400D01*
%TO.N,/P15*%
X6520000Y-38500000D02*
X7695011Y-39675011D01*
%TO.N,/P19*%
X1440000Y-38500000D02*
X2615011Y-39675011D01*
%TO.N,/P30*%
X-23952200Y-54457600D02*
X-30302200Y-60807600D01*
X-30302200Y-60807600D02*
X-30302200Y-60833000D01*
X-11260000Y-52204800D02*
X-13512800Y-54457600D01*
X-13512800Y-54457600D02*
X-23952200Y-54457600D01*
X-11260000Y-41040000D02*
X-11260000Y-52204800D01*
X-11260000Y-41790800D02*
X-11260000Y-41040000D01*
%TO.N,/P26*%
X-11582400Y-66192400D02*
X-11260000Y-66192400D01*
%TO.N,/P28*%
X-6180000Y-66936800D02*
X-6180000Y-66192400D01*
%TO.N,/P17*%
X-13216277Y-60528677D02*
X-16340000Y-63652400D01*
%TO.N,/P18*%
X3980000Y-41040000D02*
X3980000Y-49748109D01*
%TO.N,/P16*%
X-11126288Y-60978688D02*
X-13800000Y-63652400D01*
X6520000Y-48480960D02*
X-5977811Y-60978688D01*
%TO.N,/P18*%
X-18028358Y-63652400D02*
X-18880000Y-63652400D01*
X-14454621Y-60078666D02*
X-18028358Y-63652400D01*
X-6350611Y-60078666D02*
X-14454621Y-60078666D01*
%TO.N,/P16*%
X6520000Y-41040000D02*
X6520000Y-48480960D01*
%TO.N,/P14*%
X-6946310Y-61878710D02*
X-8720000Y-63652400D01*
X9060000Y-47214197D02*
X-5604513Y-61878710D01*
%TO.N,/P18*%
X3980000Y-49748109D02*
X-6350611Y-60078666D01*
%TO.N,/P14*%
X9060000Y-41040000D02*
X9060000Y-47214197D01*
%TO.N,/P16*%
X-5977811Y-60978688D02*
X-11126288Y-60978688D01*
%TO.N,/P14*%
X-5604513Y-61878710D02*
X-6946310Y-61878710D01*
%TO.N,/P17*%
X5155011Y-49209516D02*
X-6164211Y-60528677D01*
X-6164211Y-60528677D02*
X-13216277Y-60528677D01*
X5155011Y-39675011D02*
X5155011Y-49209516D01*
X3980000Y-38500000D02*
X5155011Y-39675011D01*
%TO.N,/P12*%
X11600000Y-41040000D02*
X11600000Y-48412400D01*
X11600000Y-48412400D02*
X-3640000Y-63652400D01*
%TO.N,/P10*%
X14140000Y-41040000D02*
X14140000Y-50952400D01*
X14140000Y-50952400D02*
X1440000Y-63652400D01*
%TO.N,/P8*%
X16680000Y-41040000D02*
X16680000Y-53492400D01*
X16680000Y-53492400D02*
X6520000Y-63652400D01*
%TO.N,/P6*%
X19220000Y-41040000D02*
X19220000Y-56032400D01*
X19220000Y-56032400D02*
X11600000Y-63652400D01*
%TO.N,/P4*%
X21760000Y-41040000D02*
X21760000Y-58572400D01*
X21760000Y-58572400D02*
X16680000Y-63652400D01*
%TO.N,/P2*%
X24300000Y-41040000D02*
X24300000Y-61112400D01*
X24300000Y-61112400D02*
X21760000Y-63652400D01*
%TO.N,/P1*%
X26974800Y-60977600D02*
X24300000Y-63652400D01*
X24300000Y-38500000D02*
X25150000Y-38500000D01*
X25150000Y-38500000D02*
X26974800Y-40324800D01*
X26974800Y-40324800D02*
X26974800Y-60977600D01*
%TD*%
M02*
