%TF.GenerationSoftware,KiCad,Pcbnew,(5.99.0-8910-g624a231cc0)*%
%TF.CreationDate,2021-02-07T08:47:15+03:00*%
%TF.ProjectId,simpleprobecard,73696d70-6c65-4707-926f-626563617264,rev?*%
%TF.SameCoordinates,Original*%
%TF.FileFunction,Copper,L2,Bot*%
%TF.FilePolarity,Positive*%
%FSLAX46Y46*%
G04 Gerber Fmt 4.6, Leading zero omitted, Abs format (unit mm)*
G04 Created by KiCad (PCBNEW (5.99.0-8910-g624a231cc0)) date 2021-02-07 08:47:15*
%MOMM*%
%LPD*%
G01*
G04 APERTURE LIST*
G04 Aperture macros list*
%AMRoundRect*
0 Rectangle with rounded corners*
0 $1 Rounding radius*
0 $2 $3 $4 $5 $6 $7 $8 $9 X,Y pos of 4 corners*
0 Add a 4 corners polygon primitive as box body*
4,1,4,$2,$3,$4,$5,$6,$7,$8,$9,$2,$3,0*
0 Add four circle primitives for the rounded corners*
1,1,$1+$1,$2,$3*
1,1,$1+$1,$4,$5*
1,1,$1+$1,$6,$7*
1,1,$1+$1,$8,$9*
0 Add four rect primitives between the rounded corners*
20,1,$1+$1,$2,$3,$4,$5,0*
20,1,$1+$1,$4,$5,$6,$7,0*
20,1,$1+$1,$6,$7,$8,$9,0*
20,1,$1+$1,$8,$9,$2,$3,0*%
G04 Aperture macros list end*
%TA.AperFunction,ComponentPad*%
%ADD10C,0.900000*%
%TD*%
%TA.AperFunction,ComponentPad*%
%ADD11C,8.600000*%
%TD*%
%TA.AperFunction,ComponentPad*%
%ADD12RoundRect,0.250000X-0.600000X0.600000X-0.600000X-0.600000X0.600000X-0.600000X0.600000X0.600000X0*%
%TD*%
%TA.AperFunction,ComponentPad*%
%ADD13C,1.700000*%
%TD*%
G04 APERTURE END LIST*
D10*
%TO.P,H7,1*%
%TO.N,N/C*%
X3225000Y50800000D03*
X0Y54025000D03*
D11*
X0Y50800000D03*
D10*
X0Y47575000D03*
X-3225000Y50800000D03*
X-2280419Y48519581D03*
X2280419Y53080419D03*
X-2280419Y53080419D03*
X2280419Y48519581D03*
%TD*%
D11*
%TO.P,H3,1*%
%TO.N,N/C*%
X-50800000Y-25400000D03*
D10*
X-47575000Y-25400000D03*
X-50800000Y-22175000D03*
X-48519581Y-27680419D03*
X-54025000Y-25400000D03*
X-48519581Y-23119581D03*
X-50800000Y-28625000D03*
X-53080419Y-27680419D03*
X-53080419Y-23119581D03*
%TD*%
%TO.P,H4,1*%
%TO.N,N/C*%
X48519581Y27680419D03*
X53080419Y27680419D03*
X48519581Y23119581D03*
D11*
X50800000Y25400000D03*
D10*
X53080419Y23119581D03*
X50800000Y22175000D03*
X47575000Y25400000D03*
X50800000Y28625000D03*
X54025000Y25400000D03*
%TD*%
%TO.P,H1,1*%
%TO.N,N/C*%
X-53080419Y27680419D03*
X-48519581Y27680419D03*
X-53080419Y23119581D03*
D11*
X-50800000Y25400000D03*
D10*
X-48519581Y23119581D03*
X-50800000Y22175000D03*
X-54025000Y25400000D03*
X-50800000Y28625000D03*
X-47575000Y25400000D03*
%TD*%
D12*
%TO.P,J2,1,Pin_1*%
%TO.N,Net-(J1-Pad1)*%
X24300000Y-38500000D03*
D13*
%TO.P,J2,2,Pin_2*%
%TO.N,Net-(J1-Pad2)*%
X24300000Y-41040000D03*
%TO.P,J2,3,Pin_3*%
%TO.N,Net-(J1-Pad3)*%
X21760000Y-38500000D03*
%TO.P,J2,4,Pin_4*%
%TO.N,Net-(J1-Pad4)*%
X21760000Y-41040000D03*
%TO.P,J2,5,Pin_5*%
%TO.N,Net-(J1-Pad5)*%
X19220000Y-38500000D03*
%TO.P,J2,6,Pin_6*%
%TO.N,Net-(J1-Pad6)*%
X19220000Y-41040000D03*
%TO.P,J2,7,Pin_7*%
%TO.N,Net-(J1-Pad7)*%
X16680000Y-38500000D03*
%TO.P,J2,8,Pin_8*%
%TO.N,Net-(J1-Pad8)*%
X16680000Y-41040000D03*
%TO.P,J2,9,Pin_9*%
%TO.N,Net-(J1-Pad9)*%
X14140000Y-38500000D03*
%TO.P,J2,10,Pin_10*%
%TO.N,Net-(J1-Pad10)*%
X14140000Y-41040000D03*
%TO.P,J2,11,Pin_11*%
%TO.N,Net-(J1-Pad11)*%
X11600000Y-38500000D03*
%TO.P,J2,12,Pin_12*%
%TO.N,Net-(J1-Pad12)*%
X11600000Y-41040000D03*
%TO.P,J2,13,Pin_13*%
%TO.N,Net-(J1-Pad13)*%
X9060000Y-38500000D03*
%TO.P,J2,14,Pin_14*%
%TO.N,Net-(J1-Pad14)*%
X9060000Y-41040000D03*
%TO.P,J2,15,Pin_15*%
%TO.N,Net-(J1-Pad15)*%
X6520000Y-38500000D03*
%TO.P,J2,16,Pin_16*%
%TO.N,Net-(J1-Pad16)*%
X6520000Y-41040000D03*
%TO.P,J2,17,Pin_17*%
%TO.N,Net-(J1-Pad17)*%
X3980000Y-38500000D03*
%TO.P,J2,18,Pin_18*%
%TO.N,Net-(J1-Pad18)*%
X3980000Y-41040000D03*
%TO.P,J2,19,Pin_19*%
%TO.N,Net-(J1-Pad19)*%
X1440000Y-38500000D03*
%TO.P,J2,20,Pin_20*%
%TO.N,Net-(J1-Pad20)*%
X1440000Y-41040000D03*
%TO.P,J2,21,Pin_21*%
%TO.N,Net-(J1-Pad21)*%
X-1100000Y-38500000D03*
%TO.P,J2,22,Pin_22*%
%TO.N,Net-(J1-Pad22)*%
X-1100000Y-41040000D03*
%TO.P,J2,23,Pin_23*%
%TO.N,Net-(J1-Pad23)*%
X-3640000Y-38500000D03*
%TO.P,J2,24,Pin_24*%
%TO.N,Net-(J1-Pad24)*%
X-3640000Y-41040000D03*
%TO.P,J2,25,Pin_25*%
%TO.N,Net-(J1-Pad25)*%
X-6180000Y-38500000D03*
%TO.P,J2,26,Pin_26*%
%TO.N,Net-(J1-Pad26)*%
X-6180000Y-41040000D03*
%TO.P,J2,27,Pin_27*%
%TO.N,Net-(J1-Pad27)*%
X-8720000Y-38500000D03*
%TO.P,J2,28,Pin_28*%
%TO.N,Net-(J1-Pad28)*%
X-8720000Y-41040000D03*
%TO.P,J2,29,Pin_29*%
%TO.N,Net-(J1-Pad29)*%
X-11260000Y-38500000D03*
%TO.P,J2,30,Pin_30*%
%TO.N,Net-(J1-Pad30)*%
X-11260000Y-41040000D03*
%TO.P,J2,31,Pin_31*%
%TO.N,Net-(J1-Pad31)*%
X-13800000Y-38500000D03*
%TO.P,J2,32,Pin_32*%
%TO.N,Net-(J1-Pad32)*%
X-13800000Y-41040000D03*
%TO.P,J2,33,Pin_33*%
%TO.N,Net-(J1-Pad33)*%
X-16340000Y-38500000D03*
%TO.P,J2,34,Pin_34*%
%TO.N,Net-(J1-Pad34)*%
X-16340000Y-41040000D03*
%TO.P,J2,35,Pin_35*%
%TO.N,Net-(J1-Pad35)*%
X-18880000Y-38500000D03*
%TO.P,J2,36,Pin_36*%
%TO.N,Net-(J1-Pad36)*%
X-18880000Y-41040000D03*
%TO.P,J2,37,Pin_37*%
%TO.N,Net-(J1-Pad37)*%
X-21420000Y-38500000D03*
%TO.P,J2,38,Pin_38*%
%TO.N,Net-(J1-Pad38)*%
X-21420000Y-41040000D03*
%TO.P,J2,39,Pin_39*%
%TO.N,Net-(J1-Pad39)*%
X-23960000Y-38500000D03*
%TO.P,J2,40,Pin_40*%
%TO.N,Net-(J1-Pad40)*%
X-23960000Y-41040000D03*
%TD*%
D11*
%TO.P,H6,1*%
%TO.N,N/C*%
X50800000Y-25400000D03*
D10*
X54025000Y-25400000D03*
X50800000Y-22175000D03*
X53080419Y-27680419D03*
X47575000Y-25400000D03*
X53080419Y-23119581D03*
X50800000Y-28625000D03*
X48519581Y-27680419D03*
X48519581Y-23119581D03*
%TD*%
%TO.P,H8,1*%
%TO.N,N/C*%
X-3225000Y-76200000D03*
D11*
X0Y-76200000D03*
D10*
X2280419Y-78480419D03*
X0Y-79425000D03*
X2280419Y-73919581D03*
X3225000Y-76200000D03*
X0Y-72975000D03*
X-2280419Y-78480419D03*
X-2280419Y-73919581D03*
%TD*%
M02*
