%TF.GenerationSoftware,KiCad,Pcbnew,(5.99.0-8910-g624a231cc0)*%
%TF.CreationDate,2021-02-08T00:45:05+03:00*%
%TF.ProjectId,simpleprobecard,73696d70-6c65-4707-926f-626563617264,rev?*%
%TF.SameCoordinates,Original*%
%TF.FileFunction,Copper,L1,Top*%
%TF.FilePolarity,Positive*%
%FSLAX46Y46*%
G04 Gerber Fmt 4.6, Leading zero omitted, Abs format (unit mm)*
G04 Created by KiCad (PCBNEW (5.99.0-8910-g624a231cc0)) date 2021-02-08 00:45:05*
%MOMM*%
%LPD*%
G01*
G04 APERTURE LIST*
G04 Aperture macros list*
%AMRoundRect*
0 Rectangle with rounded corners*
0 $1 Rounding radius*
0 $2 $3 $4 $5 $6 $7 $8 $9 X,Y pos of 4 corners*
0 Add a 4 corners polygon primitive as box body*
4,1,4,$2,$3,$4,$5,$6,$7,$8,$9,$2,$3,0*
0 Add four circle primitives for the rounded corners*
1,1,$1+$1,$2,$3*
1,1,$1+$1,$4,$5*
1,1,$1+$1,$6,$7*
1,1,$1+$1,$8,$9*
0 Add four rect primitives between the rounded corners*
20,1,$1+$1,$2,$3,$4,$5,0*
20,1,$1+$1,$4,$5,$6,$7,0*
20,1,$1+$1,$6,$7,$8,$9,0*
20,1,$1+$1,$8,$9,$2,$3,0*%
%AMFreePoly0*
4,1,32,0.276244,0.043271,0.292903,0.037648,0.293699,0.036041,0.295355,0.035355,0.302084,0.019110,0.309887,0.003355,1.449887,-16.946645,1.444060,-16.963908,1.438920,-16.981387,1.437988,-16.981895,1.437648,-16.982903,1.421315,-16.990992,1.405327,-16.999715,0.005327,-17.149715,0.000001,-17.148149,-0.005326,-17.149715,-1.405327,-16.999715,-1.421315,-16.990992,-1.437648,-16.982903,-1.437988,-16.981895,
-1.438920,-16.981387,-1.444056,-16.963919,-1.449887,-16.946645,-0.309887,0.003355,-0.302084,0.019110,-0.295355,0.035355,-0.293699,0.036041,-0.292903,0.037648,-0.276244,0.043271,-0.260000,0.050000,0.260000,0.050000,0.276244,0.043271,0.276244,0.043271,$1*%
G04 Aperture macros list end*
%TA.AperFunction,ComponentPad*%
%ADD10C,1.700000*%
%TD*%
%TA.AperFunction,ComponentPad*%
%ADD11RoundRect,0.250000X-0.600000X0.600000X-0.600000X-0.600000X0.600000X-0.600000X0.600000X0.600000X0*%
%TD*%
%TA.AperFunction,SMDPad,CuDef*%
%ADD12C,0.500000*%
%TD*%
%TA.AperFunction,SMDPad,CuDef*%
%ADD13FreePoly0,0.000000*%
%TD*%
%TA.AperFunction,SMDPad,CuDef*%
%ADD14FreePoly0,9.000000*%
%TD*%
%TA.AperFunction,SMDPad,CuDef*%
%ADD15FreePoly0,18.000000*%
%TD*%
%TA.AperFunction,SMDPad,CuDef*%
%ADD16FreePoly0,27.000000*%
%TD*%
%TA.AperFunction,SMDPad,CuDef*%
%ADD17FreePoly0,36.000000*%
%TD*%
%TA.AperFunction,SMDPad,CuDef*%
%ADD18FreePoly0,45.000000*%
%TD*%
%TA.AperFunction,SMDPad,CuDef*%
%ADD19FreePoly0,54.000000*%
%TD*%
%TA.AperFunction,SMDPad,CuDef*%
%ADD20FreePoly0,63.000000*%
%TD*%
%TA.AperFunction,SMDPad,CuDef*%
%ADD21FreePoly0,72.000000*%
%TD*%
%TA.AperFunction,SMDPad,CuDef*%
%ADD22FreePoly0,81.000000*%
%TD*%
%TA.AperFunction,SMDPad,CuDef*%
%ADD23FreePoly0,90.000000*%
%TD*%
%TA.AperFunction,SMDPad,CuDef*%
%ADD24FreePoly0,99.000000*%
%TD*%
%TA.AperFunction,SMDPad,CuDef*%
%ADD25FreePoly0,108.000000*%
%TD*%
%TA.AperFunction,SMDPad,CuDef*%
%ADD26FreePoly0,117.000000*%
%TD*%
%TA.AperFunction,SMDPad,CuDef*%
%ADD27FreePoly0,126.000000*%
%TD*%
%TA.AperFunction,SMDPad,CuDef*%
%ADD28FreePoly0,135.000000*%
%TD*%
%TA.AperFunction,SMDPad,CuDef*%
%ADD29FreePoly0,144.000000*%
%TD*%
%TA.AperFunction,SMDPad,CuDef*%
%ADD30FreePoly0,153.000000*%
%TD*%
%TA.AperFunction,SMDPad,CuDef*%
%ADD31FreePoly0,162.000000*%
%TD*%
%TA.AperFunction,SMDPad,CuDef*%
%ADD32FreePoly0,171.000000*%
%TD*%
%TA.AperFunction,SMDPad,CuDef*%
%ADD33FreePoly0,180.000000*%
%TD*%
%TA.AperFunction,SMDPad,CuDef*%
%ADD34FreePoly0,189.000000*%
%TD*%
%TA.AperFunction,SMDPad,CuDef*%
%ADD35FreePoly0,198.000000*%
%TD*%
%TA.AperFunction,SMDPad,CuDef*%
%ADD36FreePoly0,207.000000*%
%TD*%
%TA.AperFunction,SMDPad,CuDef*%
%ADD37FreePoly0,216.000000*%
%TD*%
%TA.AperFunction,SMDPad,CuDef*%
%ADD38FreePoly0,225.000000*%
%TD*%
%TA.AperFunction,SMDPad,CuDef*%
%ADD39FreePoly0,234.000000*%
%TD*%
%TA.AperFunction,SMDPad,CuDef*%
%ADD40FreePoly0,243.000000*%
%TD*%
%TA.AperFunction,SMDPad,CuDef*%
%ADD41FreePoly0,252.000000*%
%TD*%
%TA.AperFunction,SMDPad,CuDef*%
%ADD42FreePoly0,261.000000*%
%TD*%
%TA.AperFunction,SMDPad,CuDef*%
%ADD43FreePoly0,270.000000*%
%TD*%
%TA.AperFunction,SMDPad,CuDef*%
%ADD44FreePoly0,279.000000*%
%TD*%
%TA.AperFunction,SMDPad,CuDef*%
%ADD45FreePoly0,288.000000*%
%TD*%
%TA.AperFunction,SMDPad,CuDef*%
%ADD46FreePoly0,297.000000*%
%TD*%
%TA.AperFunction,SMDPad,CuDef*%
%ADD47FreePoly0,306.000000*%
%TD*%
%TA.AperFunction,SMDPad,CuDef*%
%ADD48FreePoly0,315.000000*%
%TD*%
%TA.AperFunction,SMDPad,CuDef*%
%ADD49FreePoly0,324.000000*%
%TD*%
%TA.AperFunction,SMDPad,CuDef*%
%ADD50FreePoly0,333.000000*%
%TD*%
%TA.AperFunction,SMDPad,CuDef*%
%ADD51FreePoly0,342.000000*%
%TD*%
%TA.AperFunction,SMDPad,CuDef*%
%ADD52FreePoly0,351.000000*%
%TD*%
%TA.AperFunction,ComponentPad*%
%ADD53C,0.900000*%
%TD*%
%TA.AperFunction,ComponentPad*%
%ADD54C,8.600000*%
%TD*%
%TA.AperFunction,Conductor*%
%ADD55C,0.250000*%
%TD*%
G04 APERTURE END LIST*
D10*
%TO.P,J3,40,Pin_40*%
%TO.N,/P21*%
X-23960000Y-66192400D03*
%TO.P,J3,38,Pin_38*%
%TO.N,/P22*%
X-21420000Y-66192400D03*
%TO.P,J3,36,Pin_36*%
%TO.N,/P23*%
X-18880000Y-66192400D03*
%TO.P,J3,34,Pin_34*%
%TO.N,/P24*%
X-16340000Y-66192400D03*
%TO.P,J3,32,Pin_32*%
%TO.N,/P25*%
X-13800000Y-66192400D03*
%TO.P,J3,30,Pin_30*%
%TO.N,/P26*%
X-11260000Y-66192400D03*
%TO.P,J3,28,Pin_28*%
%TO.N,/P27*%
X-8720000Y-66192400D03*
%TO.P,J3,26,Pin_26*%
%TO.N,/P28*%
X-6180000Y-66192400D03*
%TO.P,J3,24,Pin_24*%
%TO.N,/P29*%
X-3640000Y-66192400D03*
%TO.P,J3,22,Pin_22*%
%TO.N,/P30*%
X-1100000Y-66192400D03*
%TO.P,J3,20,Pin_20*%
%TO.N,/P31*%
X1440000Y-66192400D03*
%TO.P,J3,18,Pin_18*%
%TO.N,/P32*%
X3980000Y-66192400D03*
%TO.P,J3,16,Pin_16*%
%TO.N,/P33*%
X6520000Y-66192400D03*
%TO.P,J3,14,Pin_14*%
%TO.N,/P34*%
X9060000Y-66192400D03*
%TO.P,J3,12,Pin_12*%
%TO.N,/P35*%
X11600000Y-66192400D03*
%TO.P,J3,10,Pin_10*%
%TO.N,/P36*%
X14140000Y-66192400D03*
%TO.P,J3,8,Pin_8*%
%TO.N,/P37*%
X16680000Y-66192400D03*
%TO.P,J3,6,Pin_6*%
%TO.N,/P38*%
X19220000Y-66192400D03*
%TO.P,J3,4,Pin_4*%
%TO.N,/P39*%
X21760000Y-66192400D03*
%TO.P,J3,2,Pin_2*%
%TO.N,/P40*%
X24300000Y-66192400D03*
%TO.P,J3,39,Pin_39*%
%TO.N,/P20*%
X-23960000Y-63652400D03*
%TO.P,J3,37,Pin_37*%
%TO.N,/P19*%
X-21420000Y-63652400D03*
%TO.P,J3,35,Pin_35*%
%TO.N,/P18*%
X-18880000Y-63652400D03*
%TO.P,J3,33,Pin_33*%
%TO.N,/P17*%
X-16340000Y-63652400D03*
%TO.P,J3,31,Pin_31*%
%TO.N,/P16*%
X-13800000Y-63652400D03*
%TO.P,J3,29,Pin_29*%
%TO.N,/P15*%
X-11260000Y-63652400D03*
%TO.P,J3,27,Pin_27*%
%TO.N,/P14*%
X-8720000Y-63652400D03*
%TO.P,J3,25,Pin_25*%
%TO.N,/P13*%
X-6180000Y-63652400D03*
%TO.P,J3,23,Pin_23*%
%TO.N,/P12*%
X-3640000Y-63652400D03*
%TO.P,J3,21,Pin_21*%
%TO.N,/P11*%
X-1100000Y-63652400D03*
%TO.P,J3,19,Pin_19*%
%TO.N,/P10*%
X1440000Y-63652400D03*
%TO.P,J3,17,Pin_17*%
%TO.N,/P9*%
X3980000Y-63652400D03*
%TO.P,J3,15,Pin_15*%
%TO.N,/P8*%
X6520000Y-63652400D03*
%TO.P,J3,13,Pin_13*%
%TO.N,/P7*%
X9060000Y-63652400D03*
%TO.P,J3,11,Pin_11*%
%TO.N,/P6*%
X11600000Y-63652400D03*
%TO.P,J3,9,Pin_9*%
%TO.N,/P5*%
X14140000Y-63652400D03*
%TO.P,J3,7,Pin_7*%
%TO.N,/P4*%
X16680000Y-63652400D03*
%TO.P,J3,5,Pin_5*%
%TO.N,/P3*%
X19220000Y-63652400D03*
%TO.P,J3,3,Pin_3*%
%TO.N,/P2*%
X21760000Y-63652400D03*
D11*
%TO.P,J3,1,Pin_1*%
%TO.N,/P1*%
X24300000Y-63652400D03*
%TD*%
D12*
%TO.P,J1,1,Pin_1*%
%TO.N,/P1*%
X0Y-25220000D03*
D13*
X0Y-8100000D03*
D12*
%TO.P,J1,2,Pin_2*%
%TO.N,/P2*%
X3945277Y-24909500D03*
D14*
X1267119Y-8000276D03*
D12*
%TO.P,J1,3,Pin_3*%
%TO.N,/P3*%
X7793409Y-23985645D03*
D15*
X2503038Y-7703558D03*
D12*
%TO.P,J1,4,Pin_4*%
%TO.N,/P4*%
X11449640Y-22471185D03*
D16*
X3677323Y-7217153D03*
D17*
%TO.P,J1,5,Pin_5*%
%TO.N,/P5*%
X4761061Y-6553038D03*
D12*
X14823944Y-20403409D03*
%TO.P,J1,6,Pin_6*%
%TO.N,/P6*%
X17833233Y-17833233D03*
D18*
X5727565Y-5727565D03*
D19*
%TO.P,J1,7,Pin_7*%
%TO.N,/P7*%
X6553038Y-4761061D03*
D12*
X20403409Y-14823944D03*
%TO.P,J1,8,Pin_8*%
%TO.N,/P8*%
X22471185Y-11449640D03*
D20*
X7217153Y-3677323D03*
D12*
%TO.P,J1,9,Pin_9*%
%TO.N,/P9*%
X23985645Y-7793409D03*
D21*
X7703558Y-2503038D03*
D22*
%TO.P,J1,10,Pin_10*%
%TO.N,/P10*%
X8000276Y-1267119D03*
D12*
X24909500Y-3945277D03*
%TO.P,J1,11,Pin_11*%
%TO.N,/P11*%
X25220000Y0D03*
D23*
X8100000Y0D03*
D12*
%TO.P,J1,12,Pin_12*%
%TO.N,/P12*%
X24909500Y3945277D03*
D24*
X8000276Y1267119D03*
D12*
%TO.P,J1,13,Pin_13*%
%TO.N,/P13*%
X23985645Y7793409D03*
D25*
X7703558Y2503038D03*
D26*
%TO.P,J1,14,Pin_14*%
%TO.N,/P14*%
X7217153Y3677323D03*
D12*
X22471185Y11449640D03*
%TO.P,J1,15,Pin_15*%
%TO.N,/P15*%
X20403409Y14823944D03*
D27*
X6553038Y4761061D03*
D12*
%TO.P,J1,16,Pin_16*%
%TO.N,/P16*%
X17833233Y17833233D03*
D28*
X5727565Y5727565D03*
D12*
%TO.P,J1,17,Pin_17*%
%TO.N,/P17*%
X14823944Y20403409D03*
D29*
X4761061Y6553038D03*
D30*
%TO.P,J1,18,Pin_18*%
%TO.N,/P18*%
X3677323Y7217153D03*
D12*
X11449640Y22471185D03*
%TO.P,J1,19,Pin_19*%
%TO.N,/P19*%
X7793409Y23985645D03*
D31*
X2503038Y7703558D03*
D12*
%TO.P,J1,20,Pin_20*%
%TO.N,/P20*%
X3945277Y24909500D03*
D32*
X1267119Y8000276D03*
D33*
%TO.P,J1,21,Pin_21*%
%TO.N,/P21*%
X0Y8100000D03*
D12*
X0Y25220000D03*
%TO.P,J1,22,Pin_22*%
%TO.N,/P22*%
X-3945277Y24909500D03*
D34*
X-1267119Y8000276D03*
D35*
%TO.P,J1,23,Pin_23*%
%TO.N,/P23*%
X-2503038Y7703558D03*
D12*
X-7793409Y23985645D03*
D36*
%TO.P,J1,24,Pin_24*%
%TO.N,/P24*%
X-3677323Y7217153D03*
D12*
X-11449640Y22471185D03*
%TO.P,J1,25,Pin_25*%
%TO.N,/P25*%
X-14823944Y20403409D03*
D37*
X-4761061Y6553038D03*
D12*
%TO.P,J1,26,Pin_26*%
%TO.N,/P26*%
X-17833233Y17833233D03*
D38*
X-5727565Y5727565D03*
D12*
%TO.P,J1,27,Pin_27*%
%TO.N,/P27*%
X-20403409Y14823944D03*
D39*
X-6553038Y4761061D03*
D40*
%TO.P,J1,28,Pin_28*%
%TO.N,/P28*%
X-7217153Y3677323D03*
D12*
X-22471185Y11449640D03*
D41*
%TO.P,J1,29,Pin_29*%
%TO.N,/P29*%
X-7703558Y2503038D03*
D12*
X-23985645Y7793409D03*
D42*
%TO.P,J1,30,Pin_30*%
%TO.N,/P30*%
X-8000276Y1267119D03*
D12*
X-24909500Y3945277D03*
%TO.P,J1,31,Pin_31*%
%TO.N,/P31*%
X-25220000Y0D03*
D43*
X-8100000Y0D03*
D44*
%TO.P,J1,32,Pin_32*%
%TO.N,/P32*%
X-8000276Y-1267119D03*
D12*
X-24909500Y-3945277D03*
D45*
%TO.P,J1,33,Pin_33*%
%TO.N,/P33*%
X-7703558Y-2503038D03*
D12*
X-23985645Y-7793409D03*
D46*
%TO.P,J1,34,Pin_34*%
%TO.N,/P34*%
X-7217153Y-3677323D03*
D12*
X-22471185Y-11449640D03*
%TO.P,J1,35,Pin_35*%
%TO.N,/P35*%
X-20403409Y-14823944D03*
D47*
X-6553038Y-4761061D03*
D12*
%TO.P,J1,36,Pin_36*%
%TO.N,/P36*%
X-17833233Y-17833233D03*
D48*
X-5727565Y-5727565D03*
D49*
%TO.P,J1,37,Pin_37*%
%TO.N,/P37*%
X-4761061Y-6553038D03*
D12*
X-14823944Y-20403409D03*
%TO.P,J1,38,Pin_38*%
%TO.N,/P38*%
X-11449640Y-22471185D03*
D50*
X-3677323Y-7217153D03*
D51*
%TO.P,J1,39,Pin_39*%
%TO.N,/P39*%
X-2503038Y-7703558D03*
D12*
X-7793409Y-23985645D03*
D52*
%TO.P,J1,40,Pin_40*%
%TO.N,/P40*%
X-1267119Y-8000276D03*
D12*
X-3945277Y-24909500D03*
%TD*%
D53*
%TO.P,H7,1*%
%TO.N,N/C*%
X3225000Y50800000D03*
X0Y54025000D03*
D54*
X0Y50800000D03*
D53*
X0Y47575000D03*
X-3225000Y50800000D03*
X-2280419Y48519581D03*
X2280419Y53080419D03*
X-2280419Y53080419D03*
X2280419Y48519581D03*
%TD*%
D54*
%TO.P,H3,1*%
%TO.N,N/C*%
X-50800000Y-25400000D03*
D53*
X-47575000Y-25400000D03*
X-50800000Y-22175000D03*
X-48519581Y-27680419D03*
X-54025000Y-25400000D03*
X-48519581Y-23119581D03*
X-50800000Y-28625000D03*
X-53080419Y-27680419D03*
X-53080419Y-23119581D03*
%TD*%
%TO.P,H4,1*%
%TO.N,N/C*%
X48519581Y27680419D03*
X53080419Y27680419D03*
X48519581Y23119581D03*
D54*
X50800000Y25400000D03*
D53*
X53080419Y23119581D03*
X50800000Y22175000D03*
X47575000Y25400000D03*
X50800000Y28625000D03*
X54025000Y25400000D03*
%TD*%
%TO.P,H1,1*%
%TO.N,N/C*%
X-53080419Y27680419D03*
X-48519581Y27680419D03*
X-53080419Y23119581D03*
D54*
X-50800000Y25400000D03*
D53*
X-48519581Y23119581D03*
X-50800000Y22175000D03*
X-54025000Y25400000D03*
X-50800000Y28625000D03*
X-47575000Y25400000D03*
%TD*%
D11*
%TO.P,J2,1,Pin_1*%
%TO.N,/P1*%
X24300000Y-38500000D03*
D10*
%TO.P,J2,2,Pin_2*%
%TO.N,/P2*%
X24300000Y-41040000D03*
%TO.P,J2,3,Pin_3*%
%TO.N,/P3*%
X21760000Y-38500000D03*
%TO.P,J2,4,Pin_4*%
%TO.N,/P4*%
X21760000Y-41040000D03*
%TO.P,J2,5,Pin_5*%
%TO.N,/P5*%
X19220000Y-38500000D03*
%TO.P,J2,6,Pin_6*%
%TO.N,/P6*%
X19220000Y-41040000D03*
%TO.P,J2,7,Pin_7*%
%TO.N,/P7*%
X16680000Y-38500000D03*
%TO.P,J2,8,Pin_8*%
%TO.N,/P8*%
X16680000Y-41040000D03*
%TO.P,J2,9,Pin_9*%
%TO.N,/P9*%
X14140000Y-38500000D03*
%TO.P,J2,10,Pin_10*%
%TO.N,/P10*%
X14140000Y-41040000D03*
%TO.P,J2,11,Pin_11*%
%TO.N,/P11*%
X11600000Y-38500000D03*
%TO.P,J2,12,Pin_12*%
%TO.N,/P12*%
X11600000Y-41040000D03*
%TO.P,J2,13,Pin_13*%
%TO.N,/P13*%
X9060000Y-38500000D03*
%TO.P,J2,14,Pin_14*%
%TO.N,/P14*%
X9060000Y-41040000D03*
%TO.P,J2,15,Pin_15*%
%TO.N,/P15*%
X6520000Y-38500000D03*
%TO.P,J2,16,Pin_16*%
%TO.N,/P16*%
X6520000Y-41040000D03*
%TO.P,J2,17,Pin_17*%
%TO.N,/P17*%
X3980000Y-38500000D03*
%TO.P,J2,18,Pin_18*%
%TO.N,/P18*%
X3980000Y-41040000D03*
%TO.P,J2,19,Pin_19*%
%TO.N,/P19*%
X1440000Y-38500000D03*
%TO.P,J2,20,Pin_20*%
%TO.N,/P20*%
X1440000Y-41040000D03*
%TO.P,J2,21,Pin_21*%
%TO.N,/P21*%
X-1100000Y-38500000D03*
%TO.P,J2,22,Pin_22*%
%TO.N,/P22*%
X-1100000Y-41040000D03*
%TO.P,J2,23,Pin_23*%
%TO.N,/P23*%
X-3640000Y-38500000D03*
%TO.P,J2,24,Pin_24*%
%TO.N,/P24*%
X-3640000Y-41040000D03*
%TO.P,J2,25,Pin_25*%
%TO.N,/P25*%
X-6180000Y-38500000D03*
%TO.P,J2,26,Pin_26*%
%TO.N,/P26*%
X-6180000Y-41040000D03*
%TO.P,J2,27,Pin_27*%
%TO.N,/P27*%
X-8720000Y-38500000D03*
%TO.P,J2,28,Pin_28*%
%TO.N,/P28*%
X-8720000Y-41040000D03*
%TO.P,J2,29,Pin_29*%
%TO.N,/P29*%
X-11260000Y-38500000D03*
%TO.P,J2,30,Pin_30*%
%TO.N,/P30*%
X-11260000Y-41040000D03*
%TO.P,J2,31,Pin_31*%
%TO.N,/P31*%
X-13800000Y-38500000D03*
%TO.P,J2,32,Pin_32*%
%TO.N,/P32*%
X-13800000Y-41040000D03*
%TO.P,J2,33,Pin_33*%
%TO.N,/P33*%
X-16340000Y-38500000D03*
%TO.P,J2,34,Pin_34*%
%TO.N,/P34*%
X-16340000Y-41040000D03*
%TO.P,J2,35,Pin_35*%
%TO.N,/P35*%
X-18880000Y-38500000D03*
%TO.P,J2,36,Pin_36*%
%TO.N,/P36*%
X-18880000Y-41040000D03*
%TO.P,J2,37,Pin_37*%
%TO.N,/P37*%
X-21420000Y-38500000D03*
%TO.P,J2,38,Pin_38*%
%TO.N,/P38*%
X-21420000Y-41040000D03*
%TO.P,J2,39,Pin_39*%
%TO.N,/P39*%
X-23960000Y-38500000D03*
%TO.P,J2,40,Pin_40*%
%TO.N,/P40*%
X-23960000Y-41040000D03*
%TD*%
D54*
%TO.P,H6,1*%
%TO.N,N/C*%
X50800000Y-25400000D03*
D53*
X54025000Y-25400000D03*
X50800000Y-22175000D03*
X53080419Y-27680419D03*
X47575000Y-25400000D03*
X53080419Y-23119581D03*
X50800000Y-28625000D03*
X48519581Y-27680419D03*
X48519581Y-23119581D03*
%TD*%
%TO.P,H8,1*%
%TO.N,N/C*%
X-3225000Y-76200000D03*
D54*
X0Y-76200000D03*
D53*
X2280419Y-78480419D03*
X0Y-79425000D03*
X2280419Y-73919581D03*
X3225000Y-76200000D03*
X0Y-72975000D03*
X-2280419Y-78480419D03*
X-2280419Y-73919581D03*
%TD*%
D55*
%TO.N,/P40*%
X-21200000Y-35700000D02*
X-22700000Y-37200000D01*
X-3945277Y-32445277D02*
X-7200000Y-35700000D01*
X-3945277Y-24909500D02*
X-3945277Y-32445277D01*
X-22700000Y-37200000D02*
X-22700000Y-39780000D01*
X-7200000Y-35700000D02*
X-21200000Y-35700000D01*
X-22700000Y-39780000D02*
X-23960000Y-41040000D01*
%TO.N,/P39*%
X-7900000Y-31700000D02*
X-10500000Y-34300000D01*
X-21700000Y-34300000D02*
X-23960000Y-36560000D01*
X-7900000Y-24092236D02*
X-7900000Y-31700000D01*
X-10500000Y-34300000D02*
X-21700000Y-34300000D01*
X-23960000Y-36560000D02*
X-23960000Y-38500000D01*
X-7793409Y-23985645D02*
X-7900000Y-24092236D01*
%TO.N,/P38*%
X-11700000Y-22721545D02*
X-11700000Y-31700000D01*
X-25700000Y-36600000D02*
X-25700000Y-41900000D01*
X-22780000Y-42400000D02*
X-21420000Y-41040000D01*
X-25700000Y-41900000D02*
X-25450000Y-42150000D01*
X-25450000Y-42150000D02*
X-25200000Y-42400000D01*
X-25200000Y-42400000D02*
X-22780000Y-42400000D01*
X-11700000Y-31700000D02*
X-13400000Y-33400000D01*
X-22500000Y-33400000D02*
X-25700000Y-36600000D01*
X-11449640Y-22471185D02*
X-11700000Y-22721545D01*
X-13400000Y-33400000D02*
X-22500000Y-33400000D01*
%TO.N,/P37*%
X-21100000Y-43200000D02*
X-20244999Y-42344999D01*
X-14823944Y-20403409D02*
X-15000000Y-20579465D01*
X-15000000Y-20579465D02*
X-15000000Y-30700000D01*
X-26500000Y-35900000D02*
X-26500000Y-42100000D01*
X-26500000Y-42100000D02*
X-25400000Y-43200000D01*
X-20244999Y-42344999D02*
X-20244999Y-39675001D01*
X-15000000Y-30700000D02*
X-16900000Y-32600000D01*
X-25400000Y-43200000D02*
X-21100000Y-43200000D01*
X-23200000Y-32600000D02*
X-26500000Y-35900000D01*
X-16900000Y-32600000D02*
X-23200000Y-32600000D01*
X-20244999Y-39675001D02*
X-21420000Y-38500000D01*
%TO.N,/P24*%
X-8100000Y-55100000D02*
X-3640000Y-50640000D01*
X-21600000Y22500000D02*
X-35500000Y8600000D01*
X-11449640Y22471185D02*
X-11478455Y22500000D01*
X-3640000Y-50640000D02*
X-3640000Y-41040000D01*
X-40300000Y-27200000D02*
X-40300000Y-47500000D01*
X-40300000Y-47500000D02*
X-32700000Y-55100000D01*
X-35500000Y-22400000D02*
X-40300000Y-27200000D01*
X-11478455Y22500000D02*
X-21600000Y22500000D01*
X-35500000Y8600000D02*
X-35500000Y-22400000D01*
X-32700000Y-55100000D02*
X-8100000Y-55100000D01*
%TO.N,/P23*%
X-41300000Y-26700000D02*
X-41300000Y-48000000D01*
X-2464999Y-39675001D02*
X-2520000Y-39620000D01*
X-7300000Y-55900000D02*
X-2464999Y-51064999D01*
X-36400000Y9400000D02*
X-36400000Y-21800000D01*
X-2464999Y-51064999D02*
X-2464999Y-39675001D01*
X-21400000Y24400000D02*
X-36400000Y9400000D01*
X-36400000Y-21800000D02*
X-41300000Y-26700000D01*
X-8207764Y24400000D02*
X-21400000Y24400000D01*
X-33400000Y-55900000D02*
X-7300000Y-55900000D01*
X-7793409Y23985645D02*
X-8207764Y24400000D01*
X-2520000Y-39620000D02*
X-3640000Y-38500000D01*
X-41300000Y-48000000D02*
X-33400000Y-55900000D01*
%TO.N,/P22*%
X-33800000Y-57000000D02*
X-5000000Y-57000000D01*
X-37600000Y10700000D02*
X-37600000Y-20800000D01*
X-42400000Y-48400000D02*
X-33800000Y-57000000D01*
X-37600000Y-20800000D02*
X-42400000Y-25600000D01*
X-42400000Y-25600000D02*
X-42400000Y-48400000D01*
X-5135777Y26100000D02*
X-22200000Y26100000D01*
X-1100000Y-53100000D02*
X-1100000Y-41040000D01*
X-22200000Y26100000D02*
X-37600000Y10700000D01*
X-5000000Y-57000000D02*
X-1100000Y-53100000D01*
X-3945277Y24909500D02*
X-5135777Y26100000D01*
%TO.N,/P21*%
X0Y25220000D02*
X1780000Y27000000D01*
X40100000Y-16800000D02*
X43500000Y-20200000D01*
X4500000Y-59200000D02*
X200000Y-54900000D01*
X43500000Y-20200000D02*
X43500000Y-49900000D01*
X43500000Y-49900000D02*
X34200000Y-59200000D01*
X26500000Y27000000D02*
X40100000Y13400000D01*
X34200000Y-59200000D02*
X4500000Y-59200000D01*
X200000Y-39800000D02*
X-1100000Y-38500000D01*
X1780000Y27000000D02*
X26500000Y27000000D01*
X200000Y-54900000D02*
X200000Y-39800000D01*
X40100000Y13400000D02*
X40100000Y-16800000D01*
%TO.N,/P20*%
X5800000Y-58200000D02*
X1440000Y-53840000D01*
X42600000Y-21400000D02*
X42600000Y-49100000D01*
X38800000Y12100000D02*
X38800000Y-17600000D01*
X4935777Y25900000D02*
X25000000Y25900000D01*
X25000000Y25900000D02*
X38800000Y12100000D01*
X3945277Y24909500D02*
X4935777Y25900000D01*
X33500000Y-58200000D02*
X5800000Y-58200000D01*
X38800000Y-17600000D02*
X42600000Y-21400000D01*
X42600000Y-49100000D02*
X33500000Y-58200000D01*
X1440000Y-53840000D02*
X1440000Y-41040000D01*
%TO.N,/P19*%
X7793409Y23985645D02*
X8207764Y24400000D01*
X41600000Y-48600000D02*
X33000000Y-57200000D01*
X33000000Y-57200000D02*
X6000000Y-57200000D01*
X41600000Y-22100000D02*
X41600000Y-48600000D01*
X8207764Y24400000D02*
X25000000Y24400000D01*
X2700000Y-53900000D02*
X2700000Y-39760000D01*
X2700000Y-39760000D02*
X1440000Y-38500000D01*
X37800000Y-18300000D02*
X41600000Y-22100000D01*
X25000000Y24400000D02*
X37800000Y11600000D01*
X6000000Y-57200000D02*
X2700000Y-53900000D01*
X37800000Y11600000D02*
X37800000Y-18300000D01*
%TO.N,/P18*%
X40500000Y-48200000D02*
X32500000Y-56200000D01*
X7600000Y-56200000D02*
X3980000Y-52580000D01*
X11449640Y22471185D02*
X24628815Y22471185D01*
X36400000Y10700000D02*
X36400000Y-19300000D01*
X32500000Y-56200000D02*
X7600000Y-56200000D01*
X3980000Y-52580000D02*
X3980000Y-41040000D01*
X36400000Y-19300000D02*
X40500000Y-23400000D01*
X24628815Y22471185D02*
X36400000Y10700000D01*
X40500000Y-23400000D02*
X40500000Y-48200000D01*
%TO.N,/P17*%
X8700000Y-55300000D02*
X5300000Y-51900000D01*
X35400000Y-20200000D02*
X39600000Y-24400000D01*
X5300000Y-39820000D02*
X3980000Y-38500000D01*
X24296591Y20403409D02*
X35400000Y9300000D01*
X5300000Y-51900000D02*
X5300000Y-39820000D01*
X39600000Y-47900000D02*
X32200000Y-55300000D01*
X14823944Y20403409D02*
X24296591Y20403409D01*
X32200000Y-55300000D02*
X8700000Y-55300000D01*
X35400000Y9300000D02*
X35400000Y-20200000D01*
X39600000Y-24400000D02*
X39600000Y-47900000D01*
%TO.N,/P16*%
X31800000Y-54300000D02*
X9500000Y-54300000D01*
X38600000Y-25000000D02*
X38600000Y-47500000D01*
X34200000Y-20600000D02*
X38600000Y-25000000D01*
X9500000Y-54300000D02*
X6520000Y-51320000D01*
X6520000Y-51320000D02*
X6520000Y-41040000D01*
X17833233Y17833233D02*
X24466767Y17833233D01*
X38600000Y-47500000D02*
X31800000Y-54300000D01*
X24466767Y17833233D02*
X34200000Y8100000D01*
X34200000Y8100000D02*
X34200000Y-20600000D01*
%TO.N,/P15*%
X37700000Y-25800000D02*
X37700000Y-46800000D01*
X7695001Y-51395001D02*
X7695001Y-39695001D01*
X23676056Y14823944D02*
X32600000Y5900000D01*
X20403409Y14823944D02*
X23676056Y14823944D01*
X9600000Y-53300000D02*
X7695001Y-51395001D01*
X7695001Y-39695001D02*
X6520000Y-38520000D01*
X37700000Y-46800000D02*
X37700000Y-47000000D01*
X6520000Y-38520000D02*
X6520000Y-38500000D01*
X37700000Y-47000000D02*
X31400000Y-53300000D01*
X32600000Y-20700000D02*
X37700000Y-25800000D01*
X31400000Y-53300000D02*
X9600000Y-53300000D01*
X32600000Y5900000D02*
X32600000Y-20700000D01*
%TO.N,/P14*%
X9800000Y-52100000D02*
X9060000Y-51360000D01*
X31300000Y-21000000D02*
X36700000Y-26400000D01*
X22471185Y11449640D02*
X24050360Y11449640D01*
X31000000Y-52100000D02*
X9800000Y-52100000D01*
X31300000Y4100000D02*
X31300000Y-21000000D01*
X24050360Y11349640D02*
X31300000Y4100000D01*
X24050360Y11449640D02*
X24050360Y11349640D01*
X36700000Y-46400000D02*
X31000000Y-52100000D01*
X9060000Y-51360000D02*
X9060000Y-41040000D01*
X36700000Y-26400000D02*
X36700000Y-46400000D01*
%TO.N,/P13*%
X23985645Y7793409D02*
X24406591Y7793409D01*
X35800000Y-45800000D02*
X30400000Y-51200000D01*
X10300000Y-49900000D02*
X10300000Y-39740000D01*
X11600000Y-51200000D02*
X10300000Y-49900000D01*
X10300000Y-39740000D02*
X9060000Y-38500000D01*
X24406591Y7793409D02*
X29900000Y2300000D01*
X29900000Y2300000D02*
X29900000Y-21400000D01*
X35800000Y-27300000D02*
X35800000Y-45800000D01*
X29900000Y-21400000D02*
X35800000Y-27300000D01*
X30400000Y-51200000D02*
X11600000Y-51200000D01*
%TO.N,/P12*%
X28100000Y1200000D02*
X28800000Y500000D01*
X28800000Y500000D02*
X28800000Y-22000000D01*
X11600000Y-48800000D02*
X11600000Y-41040000D01*
X13000000Y-50200000D02*
X11600000Y-48800000D01*
X13200000Y-50200000D02*
X13000000Y-50200000D01*
X24909500Y3945277D02*
X25354723Y3945277D01*
X29900000Y-50200000D02*
X13200000Y-50200000D01*
X34900000Y-45200000D02*
X29900000Y-50200000D01*
X34900000Y-28100000D02*
X34900000Y-45200000D01*
X25354723Y3945277D02*
X28100000Y1200000D01*
X28800000Y-22000000D02*
X34900000Y-28100000D01*
%TO.N,/P11*%
X29100000Y-49400000D02*
X14700000Y-49400000D01*
X27200000Y-22800000D02*
X33800000Y-29400000D01*
X33800000Y-44700000D02*
X29100000Y-49400000D01*
X33800000Y-31736411D02*
X33800000Y-44700000D01*
X12900000Y-39800000D02*
X11600000Y-38500000D01*
X14700000Y-49400000D02*
X12900000Y-47600000D01*
X25220000Y0D02*
X27200000Y-1980000D01*
X33800000Y-29400000D02*
X33800000Y-31736411D01*
X12900000Y-47600000D02*
X12900000Y-39800000D01*
X27200000Y-1980000D02*
X27200000Y-22800000D01*
%TO.N,/P10*%
X33100000Y-44200000D02*
X28700000Y-48600000D01*
X25600000Y-25500000D02*
X26100000Y-26000000D01*
X25600000Y-4635777D02*
X25600000Y-25500000D01*
X33100000Y-31900000D02*
X33100000Y-44200000D01*
X27200000Y-26000000D02*
X33100000Y-31900000D01*
X26100000Y-26000000D02*
X27200000Y-26000000D01*
X16500000Y-48600000D02*
X14140000Y-46240000D01*
X14140000Y-46240000D02*
X14140000Y-41040000D01*
X28700000Y-48600000D02*
X16500000Y-48600000D01*
X24909500Y-3945277D02*
X25600000Y-4635777D01*
%TO.N,/P9*%
X15315001Y-39675001D02*
X15315001Y-45115001D01*
X24300000Y-8107764D02*
X24300000Y-26700000D01*
X15315001Y-45115001D02*
X18100000Y-47900000D01*
X32300000Y-32400000D02*
X32300000Y-43600000D01*
X32300000Y-43600000D02*
X28000000Y-47900000D01*
X18100000Y-47900000D02*
X28000000Y-47900000D01*
X23985645Y-7793409D02*
X24300000Y-8107764D01*
X25100000Y-27500000D02*
X27400000Y-27500000D01*
X15315001Y-39675001D02*
X14140000Y-38500000D01*
X24300000Y-26700000D02*
X25100000Y-27500000D01*
X27400000Y-27500000D02*
X32300000Y-32400000D01*
%TO.N,/P8*%
X31400000Y-43300000D02*
X27700000Y-47000000D01*
X27600000Y-47100000D02*
X18600000Y-47100000D01*
X31400000Y-33200000D02*
X31400000Y-43300000D01*
X27700000Y-47000000D02*
X27600000Y-47100000D01*
X22471185Y-11449640D02*
X22600000Y-11578455D01*
X22600000Y-11578455D02*
X22600000Y-27800000D01*
X23300000Y-28500000D02*
X26700000Y-28500000D01*
X22600000Y-27800000D02*
X23300000Y-28500000D01*
X26700000Y-28500000D02*
X31400000Y-33200000D01*
X16680000Y-45180000D02*
X16680000Y-41040000D01*
X18600000Y-47100000D02*
X16680000Y-45180000D01*
%TO.N,/P7*%
X18000000Y-44900000D02*
X18000000Y-39820000D01*
X30500000Y-33700000D02*
X30500000Y-43100000D01*
X26400000Y-29600000D02*
X30500000Y-33700000D01*
X18000000Y-39820000D02*
X16680000Y-38500000D01*
X20403409Y-28703409D02*
X21300000Y-29600000D01*
X19400000Y-46300000D02*
X18000000Y-44900000D01*
X21300000Y-29600000D02*
X26400000Y-29600000D01*
X27300000Y-46300000D02*
X19400000Y-46300000D01*
X30500000Y-43100000D02*
X27300000Y-46300000D01*
X20403409Y-14823944D02*
X20403409Y-28703409D01*
%TO.N,/P6*%
X26000000Y-30800000D02*
X29400000Y-34200000D01*
X29400000Y-42900000D02*
X27100000Y-45200000D01*
X29400000Y-34200000D02*
X29400000Y-42900000D01*
X27100000Y-45200000D02*
X26900000Y-45400000D01*
X17833233Y-17833233D02*
X17933233Y-17833233D01*
X20900000Y-45400000D02*
X19220000Y-43720000D01*
X19600000Y-30800000D02*
X26000000Y-30800000D01*
X26900000Y-45400000D02*
X20900000Y-45400000D01*
X18700000Y-29900000D02*
X19600000Y-30800000D01*
X19220000Y-43720000D02*
X19220000Y-41040000D01*
X17933233Y-17833233D02*
X18700000Y-18600000D01*
X18700000Y-18600000D02*
X18700000Y-29900000D01*
%TO.N,/P5*%
X20500000Y-43000000D02*
X20500000Y-39780000D01*
X28500000Y-42400000D02*
X26500000Y-44400000D01*
X15500000Y-30800000D02*
X16600000Y-31900000D01*
X15500000Y-21100000D02*
X15500000Y-30800000D01*
X28500000Y-34800000D02*
X28500000Y-42400000D01*
X21900000Y-44400000D02*
X20500000Y-43000000D01*
X26500000Y-44400000D02*
X21900000Y-44400000D01*
X25600000Y-31900000D02*
X28500000Y-34800000D01*
X20500000Y-39780000D02*
X19220000Y-38500000D01*
X16600000Y-31900000D02*
X25600000Y-31900000D01*
X14823944Y-20403409D02*
X14823944Y-20423944D01*
X14823944Y-20423944D02*
X15500000Y-21100000D01*
%TO.N,/P4*%
X26200000Y-43400000D02*
X22700000Y-43400000D01*
X12000000Y-31800000D02*
X12800000Y-32600000D01*
X12800000Y-32600000D02*
X25100000Y-32600000D01*
X22700000Y-43400000D02*
X21760000Y-42460000D01*
X27800000Y-41800000D02*
X26200000Y-43400000D01*
X12000000Y-23021545D02*
X12000000Y-31800000D01*
X21760000Y-42460000D02*
X21760000Y-41040000D01*
X27800000Y-35300000D02*
X27800000Y-41800000D01*
X11449640Y-22471185D02*
X12000000Y-23021545D01*
X25100000Y-32600000D02*
X27800000Y-35300000D01*
%TO.N,/P3*%
X23300000Y-42300000D02*
X23000000Y-42000000D01*
X23000000Y-42000000D02*
X23000000Y-39740000D01*
X23500000Y-42500000D02*
X25700000Y-42500000D01*
X8000000Y-32700000D02*
X9000000Y-33700000D01*
X7793409Y-23985645D02*
X8000000Y-24192236D01*
X23000000Y-39740000D02*
X21760000Y-38500000D01*
X9000000Y-33700000D02*
X24700000Y-33700000D01*
X25700000Y-42500000D02*
X26900000Y-41300000D01*
X23300000Y-42300000D02*
X23500000Y-42500000D01*
X24700000Y-33700000D02*
X26900000Y-35900000D01*
X8000000Y-24192236D02*
X8000000Y-32700000D01*
X26900000Y-41300000D02*
X26900000Y-35900000D01*
%TO.N,/P2*%
X3945277Y-24909500D02*
X3945277Y-33445277D01*
X3945277Y-33445277D02*
X5300000Y-34800000D01*
X26000000Y-39340000D02*
X24300000Y-41040000D01*
X26000000Y-36600000D02*
X26000000Y-39340000D01*
X5300000Y-34800000D02*
X24200000Y-34800000D01*
X24200000Y-34800000D02*
X26000000Y-36600000D01*
%TO.N,/P1*%
X1500000Y-36000000D02*
X22900000Y-36000000D01*
X24300000Y-37400000D02*
X24300000Y-38500000D01*
X0Y-34500000D02*
X1500000Y-36000000D01*
X22900000Y-36000000D02*
X24300000Y-37400000D01*
X0Y-25220000D02*
X0Y-34500000D01*
%TO.N,/P25*%
X-34600000Y-22900000D02*
X-39400000Y-27700000D01*
X-4815001Y-50415001D02*
X-4815001Y-39864999D01*
X-8700000Y-54300000D02*
X-4815001Y-50415001D01*
X-21796591Y20403409D02*
X-34600000Y7600000D01*
X-32300000Y-54300000D02*
X-8700000Y-54300000D01*
X-39400000Y-47200000D02*
X-32300000Y-54300000D01*
X-39400000Y-27700000D02*
X-39400000Y-47200000D01*
X-14823944Y20403409D02*
X-21796591Y20403409D01*
X-34600000Y7600000D02*
X-34600000Y-22900000D01*
X-4815001Y-39864999D02*
X-6180000Y-38500000D01*
%TO.N,/P26*%
X-33200000Y7000000D02*
X-33200000Y-23600000D01*
X-31800000Y-53100000D02*
X-9500000Y-53100000D01*
X-38100000Y-28500000D02*
X-38100000Y-46800000D01*
X-22366767Y17833233D02*
X-33200000Y7000000D01*
X-17833233Y17833233D02*
X-22366767Y17833233D01*
X-38100000Y-46800000D02*
X-31800000Y-53100000D01*
X-9500000Y-53100000D02*
X-6180000Y-49780000D01*
X-33200000Y-23600000D02*
X-38100000Y-28500000D01*
X-6180000Y-49780000D02*
X-6180000Y-41040000D01*
%TO.N,/P27*%
X-32100000Y-24200000D02*
X-37000000Y-29100000D01*
X-10000000Y-52000000D02*
X-7500000Y-49500000D01*
X-7500000Y-49500000D02*
X-7500000Y-39720000D01*
X-7500000Y-39720000D02*
X-8720000Y-38500000D01*
X-31500000Y-52000000D02*
X-10000000Y-52000000D01*
X-37000000Y-46500000D02*
X-31500000Y-52000000D01*
X-37000000Y-29100000D02*
X-37000000Y-46500000D01*
X-32100000Y6300000D02*
X-32100000Y-24200000D01*
X-20403409Y14823944D02*
X-23576056Y14823944D01*
X-23576056Y14823944D02*
X-32100000Y6300000D01*
%TO.N,/P28*%
X-31300000Y5000000D02*
X-31300000Y-24700000D01*
X-24850360Y11449640D02*
X-31300000Y5000000D01*
X-10800000Y-51200000D02*
X-8720000Y-49120000D01*
X-31300000Y-24700000D02*
X-35800000Y-29200000D01*
X-35800000Y-46300000D02*
X-30900000Y-51200000D01*
X-30900000Y-51200000D02*
X-10800000Y-51200000D01*
X-35800000Y-29200000D02*
X-35800000Y-46300000D01*
X-8720000Y-49120000D02*
X-8720000Y-41040000D01*
X-22471185Y11449640D02*
X-24850360Y11449640D01*
%TO.N,/P29*%
X-13000000Y-50200000D02*
X-9900000Y-47100000D01*
X-25006591Y7793409D02*
X-29900000Y2900000D01*
X-34400000Y-30200000D02*
X-34400000Y-45800000D01*
X-9900000Y-47100000D02*
X-9900000Y-39860000D01*
X-29900000Y-25700000D02*
X-34400000Y-30200000D01*
X-9900000Y-39860000D02*
X-11260000Y-38500000D01*
X-23985645Y7793409D02*
X-25006591Y7793409D01*
X-34400000Y-45800000D02*
X-30000000Y-50200000D01*
X-30000000Y-50200000D02*
X-13000000Y-50200000D01*
X-29900000Y2900000D02*
X-29900000Y-25700000D01*
%TO.N,/P30*%
X-28800000Y-26500000D02*
X-33200000Y-30900000D01*
X-28800000Y54777D02*
X-28800000Y-26500000D01*
X-33300000Y-31000000D02*
X-33300000Y-45100000D01*
X-33300000Y-45100000D02*
X-29500000Y-48900000D01*
X-24909500Y3945277D02*
X-28800000Y54777D01*
X-14000000Y-48900000D02*
X-11260000Y-46160000D01*
X-33200000Y-30900000D02*
X-33300000Y-31000000D01*
X-29500000Y-48900000D02*
X-14000000Y-48900000D01*
X-11260000Y-46160000D02*
X-11260000Y-41040000D01*
%TO.N,/P31*%
X-32200000Y-32400000D02*
X-32200000Y-44400000D01*
X-27400000Y-2180000D02*
X-27400000Y-27600000D01*
X-12600000Y-44800000D02*
X-12600000Y-39700000D01*
X-27400000Y-27600000D02*
X-32200000Y-32400000D01*
X-12600000Y-39700000D02*
X-13800000Y-38500000D01*
X-25220000Y0D02*
X-27400000Y-2180000D01*
X-15900000Y-48100000D02*
X-12600000Y-44800000D01*
X-28500000Y-48100000D02*
X-15900000Y-48100000D01*
X-32200000Y-44400000D02*
X-28500000Y-48100000D01*
%TO.N,/P32*%
X-26400000Y-28100000D02*
X-31200000Y-32900000D01*
X-16500000Y-47200000D02*
X-13800000Y-44500000D01*
X-13800000Y-44500000D02*
X-13800000Y-41040000D01*
X-27800000Y-47200000D02*
X-16500000Y-47200000D01*
X-31200000Y-32900000D02*
X-31200000Y-43800000D01*
X-26400000Y-27900000D02*
X-26400000Y-28100000D01*
X-26400000Y-5435777D02*
X-26400000Y-27900000D01*
X-24909500Y-3945277D02*
X-26400000Y-5435777D01*
X-31200000Y-43800000D02*
X-27800000Y-47200000D01*
%TO.N,/P33*%
X-30200000Y-43500000D02*
X-27400000Y-46300000D01*
X-23985645Y-7793409D02*
X-24293409Y-7793409D01*
X-17200000Y-46300000D02*
X-15100000Y-44200000D01*
X-25000000Y-27900000D02*
X-30200000Y-33100000D01*
X-25000000Y-8500000D02*
X-25000000Y-27900000D01*
X-15100000Y-44200000D02*
X-15100000Y-39740000D01*
X-24293409Y-7793409D02*
X-25000000Y-8500000D01*
X-15100000Y-39740000D02*
X-16340000Y-38500000D01*
X-27400000Y-46300000D02*
X-17200000Y-46300000D01*
X-30200000Y-33100000D02*
X-30200000Y-43500000D01*
%TO.N,/P34*%
X-16340000Y-44240000D02*
X-16340000Y-41040000D01*
X-17600000Y-45500000D02*
X-16340000Y-44240000D01*
X-29000000Y-43400000D02*
X-26900000Y-45500000D01*
X-24900000Y-30100000D02*
X-29000000Y-34200000D01*
X-22471185Y-29171185D02*
X-23400000Y-30100000D01*
X-23400000Y-30100000D02*
X-24900000Y-30100000D01*
X-26900000Y-45500000D02*
X-17600000Y-45500000D01*
X-29000000Y-34200000D02*
X-29000000Y-43400000D01*
X-22471185Y-11449640D02*
X-22471185Y-29171185D01*
%TO.N,/P35*%
X-20403409Y-14823944D02*
X-20403409Y-29803409D01*
X-21700000Y-31100000D02*
X-24500000Y-31100000D01*
X-20403409Y-29803409D02*
X-21700000Y-31100000D01*
X-28100000Y-34700000D02*
X-28100000Y-43200000D01*
X-17600000Y-43600000D02*
X-17600000Y-39780000D01*
X-28100000Y-43200000D02*
X-26500000Y-44800000D01*
X-17600000Y-39780000D02*
X-18880000Y-38500000D01*
X-26500000Y-44800000D02*
X-18800000Y-44800000D01*
X-24500000Y-31100000D02*
X-28100000Y-34700000D01*
X-18800000Y-44800000D02*
X-17600000Y-43600000D01*
%TO.N,/P36*%
X-17833233Y-17833233D02*
X-17833233Y-30233233D01*
X-27300000Y-42600000D02*
X-25800000Y-44100000D01*
X-17833233Y-30233233D02*
X-19500000Y-31900000D01*
X-23900000Y-31900000D02*
X-27300000Y-35300000D01*
X-18880000Y-42780000D02*
X-18880000Y-41040000D01*
X-20200000Y-44100000D02*
X-18880000Y-42780000D01*
X-25800000Y-44100000D02*
X-20200000Y-44100000D01*
X-19500000Y-31900000D02*
X-23900000Y-31900000D01*
X-27300000Y-35300000D02*
X-27300000Y-42600000D01*
%TD*%
M02*
