M48
; DRILL file {KiCad (5.99.0-8910-g624a231cc0)} date 02/08/21 00:45:07
; FORMAT={-:-/ absolute / metric / decimal}
; #@! TF.CreationDate,2021-02-08T00:45:07+03:00
; #@! TF.GenerationSoftware,Kicad,Pcbnew,(5.99.0-8910-g624a231cc0)
; #@! TF.FileFunction,Plated,1,2,PTH
FMAT,2
METRIC
T1C0.600
T2C1.000
T3C4.300
%
G90
G05
T1
X-54.025Y25.4
X-54.025Y-25.4
X-53.08Y27.68
X-53.08Y23.12
X-53.08Y-23.12
X-53.08Y-27.68
X-50.8Y28.625
X-50.8Y22.175
X-50.8Y-22.175
X-50.8Y-28.625
X-48.52Y27.68
X-48.52Y23.12
X-48.52Y-23.12
X-48.52Y-27.68
X-47.575Y25.4
X-47.575Y-25.4
X-3.225Y50.8
X-3.225Y-76.2
X-2.28Y53.08
X-2.28Y48.52
X-2.28Y-73.92
X-2.28Y-78.48
X0.0Y54.025
X0.0Y47.575
X0.0Y-72.975
X0.0Y-79.425
X2.28Y53.08
X2.28Y48.52
X2.28Y-73.92
X2.28Y-78.48
X3.225Y50.8
X3.225Y-76.2
X47.575Y25.4
X47.575Y-25.4
X48.52Y27.68
X48.52Y23.12
X48.52Y-23.12
X48.52Y-27.68
X50.8Y28.625
X50.8Y22.175
X50.8Y-22.175
X50.8Y-28.625
X53.08Y27.68
X53.08Y23.12
X53.08Y-23.12
X53.08Y-27.68
X54.025Y25.4
X54.025Y-25.4
T2
X-23.96Y-38.5
X-23.96Y-41.04
X-23.96Y-63.652
X-23.96Y-66.192
X-21.42Y-38.5
X-21.42Y-41.04
X-21.42Y-63.652
X-21.42Y-66.192
X-18.88Y-38.5
X-18.88Y-41.04
X-18.88Y-63.652
X-18.88Y-66.192
X-16.34Y-38.5
X-16.34Y-41.04
X-16.34Y-63.652
X-16.34Y-66.192
X-13.8Y-38.5
X-13.8Y-41.04
X-13.8Y-63.652
X-13.8Y-66.192
X-11.26Y-38.5
X-11.26Y-41.04
X-11.26Y-63.652
X-11.26Y-66.192
X-8.72Y-38.5
X-8.72Y-41.04
X-8.72Y-63.652
X-8.72Y-66.192
X-6.18Y-38.5
X-6.18Y-41.04
X-6.18Y-63.652
X-6.18Y-66.192
X-3.64Y-38.5
X-3.64Y-41.04
X-3.64Y-63.652
X-3.64Y-66.192
X-1.1Y-38.5
X-1.1Y-41.04
X-1.1Y-63.652
X-1.1Y-66.192
X1.44Y-38.5
X1.44Y-41.04
X1.44Y-63.652
X1.44Y-66.192
X3.98Y-38.5
X3.98Y-41.04
X3.98Y-63.652
X3.98Y-66.192
X6.52Y-38.5
X6.52Y-41.04
X6.52Y-63.652
X6.52Y-66.192
X9.06Y-38.5
X9.06Y-41.04
X9.06Y-63.652
X9.06Y-66.192
X11.6Y-38.5
X11.6Y-41.04
X11.6Y-63.652
X11.6Y-66.192
X14.14Y-38.5
X14.14Y-41.04
X14.14Y-63.652
X14.14Y-66.192
X16.68Y-38.5
X16.68Y-41.04
X16.68Y-63.652
X16.68Y-66.192
X19.22Y-38.5
X19.22Y-41.04
X19.22Y-63.652
X19.22Y-66.192
X21.76Y-38.5
X21.76Y-41.04
X21.76Y-63.652
X21.76Y-66.192
X24.3Y-38.5
X24.3Y-41.04
X24.3Y-63.652
X24.3Y-66.192
T3
X-50.8Y25.4
X-50.8Y-25.4
X0.0Y50.8
X0.0Y-76.2
X50.8Y25.4
X50.8Y-25.4
T0
M30
