G04 #@! TF.FileFunction,Legend,Top*
%FSLAX46Y46*%
G04 Gerber Fmt 4.6, Leading zero omitted, Abs format (unit mm)*
G04 Created by KiCad (PCBNEW 4.0.7-e2-6376~58~ubuntu16.04.1) date Tue Aug  7 11:06:41 2018*
%MOMM*%
%LPD*%
G01*
G04 APERTURE LIST*
%ADD10C,0.100000*%
%ADD11C,0.300000*%
%ADD12C,0.120000*%
%ADD13C,0.150000*%
G04 APERTURE END LIST*
D10*
D11*
X201938571Y-157923571D02*
X202295714Y-159423571D01*
X202581428Y-158352143D01*
X202867142Y-159423571D01*
X203224285Y-157923571D01*
X203724285Y-158995000D02*
X204438571Y-158995000D01*
X203581428Y-159423571D02*
X204081428Y-157923571D01*
X204581428Y-159423571D01*
X205938571Y-159423571D02*
X205438571Y-158709286D01*
X205081428Y-159423571D02*
X205081428Y-157923571D01*
X205652856Y-157923571D01*
X205795714Y-157995000D01*
X205867142Y-158066429D01*
X205938571Y-158209286D01*
X205938571Y-158423571D01*
X205867142Y-158566429D01*
X205795714Y-158637857D01*
X205652856Y-158709286D01*
X205081428Y-158709286D01*
X206581428Y-159423571D02*
X206581428Y-157923571D01*
X207438571Y-159423571D01*
X207438571Y-157923571D01*
X208152857Y-159423571D02*
X208152857Y-157923571D01*
X208867143Y-159423571D02*
X208867143Y-157923571D01*
X209724286Y-159423571D01*
X209724286Y-157923571D01*
X211224286Y-157995000D02*
X211081429Y-157923571D01*
X210867143Y-157923571D01*
X210652858Y-157995000D01*
X210510000Y-158137857D01*
X210438572Y-158280714D01*
X210367143Y-158566429D01*
X210367143Y-158780714D01*
X210438572Y-159066429D01*
X210510000Y-159209286D01*
X210652858Y-159352143D01*
X210867143Y-159423571D01*
X211010000Y-159423571D01*
X211224286Y-159352143D01*
X211295715Y-159280714D01*
X211295715Y-158780714D01*
X211010000Y-158780714D01*
X211938572Y-159280714D02*
X212010000Y-159352143D01*
X211938572Y-159423571D01*
X211867143Y-159352143D01*
X211938572Y-159280714D01*
X211938572Y-159423571D01*
X211938572Y-158495000D02*
X212010000Y-158566429D01*
X211938572Y-158637857D01*
X211867143Y-158566429D01*
X211938572Y-158495000D01*
X211938572Y-158637857D01*
X202831429Y-161830714D02*
X202760000Y-161902143D01*
X202545714Y-161973571D01*
X202402857Y-161973571D01*
X202188572Y-161902143D01*
X202045714Y-161759286D01*
X201974286Y-161616429D01*
X201902857Y-161330714D01*
X201902857Y-161116429D01*
X201974286Y-160830714D01*
X202045714Y-160687857D01*
X202188572Y-160545000D01*
X202402857Y-160473571D01*
X202545714Y-160473571D01*
X202760000Y-160545000D01*
X202831429Y-160616429D01*
X203760000Y-160473571D02*
X204045714Y-160473571D01*
X204188572Y-160545000D01*
X204331429Y-160687857D01*
X204402857Y-160973571D01*
X204402857Y-161473571D01*
X204331429Y-161759286D01*
X204188572Y-161902143D01*
X204045714Y-161973571D01*
X203760000Y-161973571D01*
X203617143Y-161902143D01*
X203474286Y-161759286D01*
X203402857Y-161473571D01*
X203402857Y-160973571D01*
X203474286Y-160687857D01*
X203617143Y-160545000D01*
X203760000Y-160473571D01*
X205045715Y-161973571D02*
X205045715Y-160473571D01*
X205902858Y-161973571D01*
X205902858Y-160473571D01*
X206402858Y-160473571D02*
X207260001Y-160473571D01*
X206831430Y-161973571D02*
X206831430Y-160473571D01*
X207688572Y-161545000D02*
X208402858Y-161545000D01*
X207545715Y-161973571D02*
X208045715Y-160473571D01*
X208545715Y-161973571D01*
X209045715Y-161973571D02*
X209045715Y-160473571D01*
X209760001Y-161973571D02*
X209760001Y-160473571D01*
X210617144Y-161973571D01*
X210617144Y-160473571D01*
X211260001Y-161902143D02*
X211474287Y-161973571D01*
X211831430Y-161973571D01*
X211974287Y-161902143D01*
X212045716Y-161830714D01*
X212117144Y-161687857D01*
X212117144Y-161545000D01*
X212045716Y-161402143D01*
X211974287Y-161330714D01*
X211831430Y-161259286D01*
X211545716Y-161187857D01*
X211402858Y-161116429D01*
X211331430Y-161045000D01*
X211260001Y-160902143D01*
X211260001Y-160759286D01*
X211331430Y-160616429D01*
X211402858Y-160545000D01*
X211545716Y-160473571D01*
X211902858Y-160473571D01*
X212117144Y-160545000D01*
X194021429Y-164508571D02*
X194021429Y-163008571D01*
X194021429Y-163722857D02*
X194878572Y-163722857D01*
X194878572Y-164508571D02*
X194878572Y-163008571D01*
X195521429Y-164080000D02*
X196235715Y-164080000D01*
X195378572Y-164508571D02*
X195878572Y-163008571D01*
X196378572Y-164508571D01*
X196878572Y-164508571D02*
X196878572Y-163008571D01*
X197450000Y-163008571D01*
X197592858Y-163080000D01*
X197664286Y-163151429D01*
X197735715Y-163294286D01*
X197735715Y-163508571D01*
X197664286Y-163651429D01*
X197592858Y-163722857D01*
X197450000Y-163794286D01*
X196878572Y-163794286D01*
X198378572Y-164508571D02*
X198378572Y-163008571D01*
X198950000Y-163008571D01*
X199092858Y-163080000D01*
X199164286Y-163151429D01*
X199235715Y-163294286D01*
X199235715Y-163508571D01*
X199164286Y-163651429D01*
X199092858Y-163722857D01*
X198950000Y-163794286D01*
X198378572Y-163794286D01*
X200164286Y-163794286D02*
X200164286Y-164508571D01*
X199664286Y-163008571D02*
X200164286Y-163794286D01*
X200664286Y-163008571D01*
X202807143Y-163722857D02*
X202307143Y-163722857D01*
X202307143Y-164508571D02*
X202307143Y-163008571D01*
X203021429Y-163008571D01*
X203592857Y-163008571D02*
X203592857Y-164222857D01*
X203664285Y-164365714D01*
X203735714Y-164437143D01*
X203878571Y-164508571D01*
X204164285Y-164508571D01*
X204307143Y-164437143D01*
X204378571Y-164365714D01*
X204450000Y-164222857D01*
X204450000Y-163008571D01*
X205164286Y-164508571D02*
X205164286Y-163008571D01*
X206021429Y-164508571D01*
X206021429Y-163008571D01*
X208378572Y-163722857D02*
X208592858Y-163794286D01*
X208664286Y-163865714D01*
X208735715Y-164008571D01*
X208735715Y-164222857D01*
X208664286Y-164365714D01*
X208592858Y-164437143D01*
X208450000Y-164508571D01*
X207878572Y-164508571D01*
X207878572Y-163008571D01*
X208378572Y-163008571D01*
X208521429Y-163080000D01*
X208592858Y-163151429D01*
X208664286Y-163294286D01*
X208664286Y-163437143D01*
X208592858Y-163580000D01*
X208521429Y-163651429D01*
X208378572Y-163722857D01*
X207878572Y-163722857D01*
X209307143Y-164080000D02*
X210021429Y-164080000D01*
X209164286Y-164508571D02*
X209664286Y-163008571D01*
X210164286Y-164508571D01*
X211378572Y-164508571D02*
X210664286Y-164508571D01*
X210664286Y-163008571D01*
X212592858Y-164508571D02*
X211878572Y-164508571D01*
X211878572Y-163008571D01*
X164695714Y-160622143D02*
X164910000Y-160693571D01*
X165267143Y-160693571D01*
X165410000Y-160622143D01*
X165481429Y-160550714D01*
X165552857Y-160407857D01*
X165552857Y-160265000D01*
X165481429Y-160122143D01*
X165410000Y-160050714D01*
X165267143Y-159979286D01*
X164981429Y-159907857D01*
X164838571Y-159836429D01*
X164767143Y-159765000D01*
X164695714Y-159622143D01*
X164695714Y-159479286D01*
X164767143Y-159336429D01*
X164838571Y-159265000D01*
X164981429Y-159193571D01*
X165338571Y-159193571D01*
X165552857Y-159265000D01*
X166481428Y-159193571D02*
X166767142Y-159193571D01*
X166910000Y-159265000D01*
X167052857Y-159407857D01*
X167124285Y-159693571D01*
X167124285Y-160193571D01*
X167052857Y-160479286D01*
X166910000Y-160622143D01*
X166767142Y-160693571D01*
X166481428Y-160693571D01*
X166338571Y-160622143D01*
X166195714Y-160479286D01*
X166124285Y-160193571D01*
X166124285Y-159693571D01*
X166195714Y-159407857D01*
X166338571Y-159265000D01*
X166481428Y-159193571D01*
X168624286Y-160550714D02*
X168552857Y-160622143D01*
X168338571Y-160693571D01*
X168195714Y-160693571D01*
X167981429Y-160622143D01*
X167838571Y-160479286D01*
X167767143Y-160336429D01*
X167695714Y-160050714D01*
X167695714Y-159836429D01*
X167767143Y-159550714D01*
X167838571Y-159407857D01*
X167981429Y-159265000D01*
X168195714Y-159193571D01*
X168338571Y-159193571D01*
X168552857Y-159265000D01*
X168624286Y-159336429D01*
X169267143Y-160693571D02*
X169267143Y-159193571D01*
X170124286Y-160693571D02*
X169481429Y-159836429D01*
X170124286Y-159193571D02*
X169267143Y-160050714D01*
X171910000Y-160693571D02*
X171910000Y-159193571D01*
X172410000Y-159193571D02*
X173267143Y-159193571D01*
X172838572Y-160693571D02*
X172838572Y-159193571D01*
X165588571Y-161743571D02*
X166445714Y-161743571D01*
X166017143Y-163243571D02*
X166017143Y-161743571D01*
X167231428Y-161743571D02*
X167517142Y-161743571D01*
X167660000Y-161815000D01*
X167802857Y-161957857D01*
X167874285Y-162243571D01*
X167874285Y-162743571D01*
X167802857Y-163029286D01*
X167660000Y-163172143D01*
X167517142Y-163243571D01*
X167231428Y-163243571D01*
X167088571Y-163172143D01*
X166945714Y-163029286D01*
X166874285Y-162743571D01*
X166874285Y-162243571D01*
X166945714Y-161957857D01*
X167088571Y-161815000D01*
X167231428Y-161743571D01*
X169660000Y-163243571D02*
X169660000Y-161743571D01*
X170160000Y-162815000D01*
X170660000Y-161743571D01*
X170660000Y-163243571D01*
X171374286Y-162457857D02*
X171874286Y-162457857D01*
X172088572Y-163243571D02*
X171374286Y-163243571D01*
X171374286Y-161743571D01*
X172088572Y-161743571D01*
X165144287Y-98463571D02*
X165144287Y-96963571D01*
X165501430Y-96963571D01*
X165715715Y-97035000D01*
X165858573Y-97177857D01*
X165930001Y-97320714D01*
X166001430Y-97606429D01*
X166001430Y-97820714D01*
X165930001Y-98106429D01*
X165858573Y-98249286D01*
X165715715Y-98392143D01*
X165501430Y-98463571D01*
X165144287Y-98463571D01*
X166644287Y-98463571D02*
X166644287Y-96963571D01*
X167358573Y-98463571D02*
X167358573Y-96963571D01*
X167930001Y-96963571D01*
X168072859Y-97035000D01*
X168144287Y-97106429D01*
X168215716Y-97249286D01*
X168215716Y-97463571D01*
X168144287Y-97606429D01*
X168072859Y-97677857D01*
X167930001Y-97749286D01*
X167358573Y-97749286D01*
X169501430Y-97463571D02*
X169501430Y-98463571D01*
X169144287Y-96892143D02*
X168787144Y-97963571D01*
X169715716Y-97963571D01*
X170572858Y-96963571D02*
X170715715Y-96963571D01*
X170858572Y-97035000D01*
X170930001Y-97106429D01*
X171001430Y-97249286D01*
X171072858Y-97535000D01*
X171072858Y-97892143D01*
X171001430Y-98177857D01*
X170930001Y-98320714D01*
X170858572Y-98392143D01*
X170715715Y-98463571D01*
X170572858Y-98463571D01*
X170430001Y-98392143D01*
X170358572Y-98320714D01*
X170287144Y-98177857D01*
X170215715Y-97892143D01*
X170215715Y-97535000D01*
X170287144Y-97249286D01*
X170358572Y-97106429D01*
X170430001Y-97035000D01*
X170572858Y-96963571D01*
X171644286Y-98392143D02*
X171858572Y-98463571D01*
X172215715Y-98463571D01*
X172358572Y-98392143D01*
X172430001Y-98320714D01*
X172501429Y-98177857D01*
X172501429Y-98035000D01*
X172430001Y-97892143D01*
X172358572Y-97820714D01*
X172215715Y-97749286D01*
X171930001Y-97677857D01*
X171787143Y-97606429D01*
X171715715Y-97535000D01*
X171644286Y-97392143D01*
X171644286Y-97249286D01*
X171715715Y-97106429D01*
X171787143Y-97035000D01*
X171930001Y-96963571D01*
X172287143Y-96963571D01*
X172501429Y-97035000D01*
X173144286Y-98463571D02*
X173144286Y-96963571D01*
X173715714Y-96963571D01*
X173858572Y-97035000D01*
X173930000Y-97106429D01*
X174001429Y-97249286D01*
X174001429Y-97463571D01*
X173930000Y-97606429D01*
X173858572Y-97677857D01*
X173715714Y-97749286D01*
X173144286Y-97749286D01*
X174930000Y-97749286D02*
X174930000Y-98463571D01*
X174430000Y-96963571D02*
X174930000Y-97749286D01*
X175430000Y-96963571D01*
X169930001Y-101013571D02*
X169430001Y-100299286D01*
X169072858Y-101013571D02*
X169072858Y-99513571D01*
X169644286Y-99513571D01*
X169787144Y-99585000D01*
X169858572Y-99656429D01*
X169930001Y-99799286D01*
X169930001Y-100013571D01*
X169858572Y-100156429D01*
X169787144Y-100227857D01*
X169644286Y-100299286D01*
X169072858Y-100299286D01*
X171358572Y-101013571D02*
X170501429Y-101013571D01*
X170930001Y-101013571D02*
X170930001Y-99513571D01*
X170787144Y-99727857D01*
X170644286Y-99870714D01*
X170501429Y-99942143D01*
X201347144Y-96490000D02*
X201275716Y-96418571D01*
X201132859Y-96204286D01*
X201061430Y-96061429D01*
X200990001Y-95847143D01*
X200918573Y-95490000D01*
X200918573Y-95204286D01*
X200990001Y-94847143D01*
X201061430Y-94632857D01*
X201132859Y-94490000D01*
X201275716Y-94275714D01*
X201347144Y-94204286D01*
X202775716Y-95775714D02*
X202704287Y-95847143D01*
X202490001Y-95918571D01*
X202347144Y-95918571D01*
X202132859Y-95847143D01*
X201990001Y-95704286D01*
X201918573Y-95561429D01*
X201847144Y-95275714D01*
X201847144Y-95061429D01*
X201918573Y-94775714D01*
X201990001Y-94632857D01*
X202132859Y-94490000D01*
X202347144Y-94418571D01*
X202490001Y-94418571D01*
X202704287Y-94490000D01*
X202775716Y-94561429D01*
X203275716Y-96490000D02*
X203347144Y-96418571D01*
X203490001Y-96204286D01*
X203561430Y-96061429D01*
X203632859Y-95847143D01*
X203704287Y-95490000D01*
X203704287Y-95204286D01*
X203632859Y-94847143D01*
X203561430Y-94632857D01*
X203490001Y-94490000D01*
X203347144Y-94275714D01*
X203275716Y-94204286D01*
X205490001Y-94561429D02*
X205561430Y-94490000D01*
X205704287Y-94418571D01*
X206061430Y-94418571D01*
X206204287Y-94490000D01*
X206275716Y-94561429D01*
X206347144Y-94704286D01*
X206347144Y-94847143D01*
X206275716Y-95061429D01*
X205418573Y-95918571D01*
X206347144Y-95918571D01*
X207275715Y-94418571D02*
X207418572Y-94418571D01*
X207561429Y-94490000D01*
X207632858Y-94561429D01*
X207704287Y-94704286D01*
X207775715Y-94990000D01*
X207775715Y-95347143D01*
X207704287Y-95632857D01*
X207632858Y-95775714D01*
X207561429Y-95847143D01*
X207418572Y-95918571D01*
X207275715Y-95918571D01*
X207132858Y-95847143D01*
X207061429Y-95775714D01*
X206990001Y-95632857D01*
X206918572Y-95347143D01*
X206918572Y-94990000D01*
X206990001Y-94704286D01*
X207061429Y-94561429D01*
X207132858Y-94490000D01*
X207275715Y-94418571D01*
X209204286Y-95918571D02*
X208347143Y-95918571D01*
X208775715Y-95918571D02*
X208775715Y-94418571D01*
X208632858Y-94632857D01*
X208490000Y-94775714D01*
X208347143Y-94847143D01*
X210061429Y-95061429D02*
X209918571Y-94990000D01*
X209847143Y-94918571D01*
X209775714Y-94775714D01*
X209775714Y-94704286D01*
X209847143Y-94561429D01*
X209918571Y-94490000D01*
X210061429Y-94418571D01*
X210347143Y-94418571D01*
X210490000Y-94490000D01*
X210561429Y-94561429D01*
X210632857Y-94704286D01*
X210632857Y-94775714D01*
X210561429Y-94918571D01*
X210490000Y-94990000D01*
X210347143Y-95061429D01*
X210061429Y-95061429D01*
X209918571Y-95132857D01*
X209847143Y-95204286D01*
X209775714Y-95347143D01*
X209775714Y-95632857D01*
X209847143Y-95775714D01*
X209918571Y-95847143D01*
X210061429Y-95918571D01*
X210347143Y-95918571D01*
X210490000Y-95847143D01*
X210561429Y-95775714D01*
X210632857Y-95632857D01*
X210632857Y-95347143D01*
X210561429Y-95204286D01*
X210490000Y-95132857D01*
X210347143Y-95061429D01*
X203597142Y-96968571D02*
X203597142Y-98040000D01*
X203525714Y-98254286D01*
X203382857Y-98397143D01*
X203168571Y-98468571D01*
X203025714Y-98468571D01*
X204597142Y-96968571D02*
X204882856Y-96968571D01*
X205025714Y-97040000D01*
X205168571Y-97182857D01*
X205239999Y-97468571D01*
X205239999Y-97968571D01*
X205168571Y-98254286D01*
X205025714Y-98397143D01*
X204882856Y-98468571D01*
X204597142Y-98468571D01*
X204454285Y-98397143D01*
X204311428Y-98254286D01*
X204239999Y-97968571D01*
X204239999Y-97468571D01*
X204311428Y-97182857D01*
X204454285Y-97040000D01*
X204597142Y-96968571D01*
X205882857Y-98468571D02*
X205882857Y-96968571D01*
X205882857Y-97682857D02*
X206740000Y-97682857D01*
X206740000Y-98468571D02*
X206740000Y-96968571D01*
X207454286Y-98468571D02*
X207454286Y-96968571D01*
X208311429Y-98468571D01*
X208311429Y-96968571D01*
X200275715Y-101018571D02*
X200275715Y-99518571D01*
X200775715Y-100590000D01*
X201275715Y-99518571D01*
X201275715Y-101018571D01*
X202847144Y-100875714D02*
X202775715Y-100947143D01*
X202561429Y-101018571D01*
X202418572Y-101018571D01*
X202204287Y-100947143D01*
X202061429Y-100804286D01*
X201990001Y-100661429D01*
X201918572Y-100375714D01*
X201918572Y-100161429D01*
X201990001Y-99875714D01*
X202061429Y-99732857D01*
X202204287Y-99590000D01*
X202418572Y-99518571D01*
X202561429Y-99518571D01*
X202775715Y-99590000D01*
X202847144Y-99661429D01*
X203490001Y-101018571D02*
X203490001Y-99518571D01*
X203990001Y-100590000D01*
X204490001Y-99518571D01*
X204490001Y-101018571D01*
X205132858Y-100590000D02*
X205847144Y-100590000D01*
X204990001Y-101018571D02*
X205490001Y-99518571D01*
X205990001Y-101018571D01*
X206418572Y-100947143D02*
X206632858Y-101018571D01*
X206990001Y-101018571D01*
X207132858Y-100947143D01*
X207204287Y-100875714D01*
X207275715Y-100732857D01*
X207275715Y-100590000D01*
X207204287Y-100447143D01*
X207132858Y-100375714D01*
X206990001Y-100304286D01*
X206704287Y-100232857D01*
X206561429Y-100161429D01*
X206490001Y-100090000D01*
X206418572Y-99947143D01*
X206418572Y-99804286D01*
X206490001Y-99661429D01*
X206561429Y-99590000D01*
X206704287Y-99518571D01*
X207061429Y-99518571D01*
X207275715Y-99590000D01*
X207704286Y-99518571D02*
X208561429Y-99518571D01*
X208132858Y-101018571D02*
X208132858Y-99518571D01*
X209061429Y-100232857D02*
X209561429Y-100232857D01*
X209775715Y-101018571D02*
X209061429Y-101018571D01*
X209061429Y-99518571D01*
X209775715Y-99518571D01*
X211275715Y-101018571D02*
X210775715Y-100304286D01*
X210418572Y-101018571D02*
X210418572Y-99518571D01*
X210990000Y-99518571D01*
X211132858Y-99590000D01*
X211204286Y-99661429D01*
X211275715Y-99804286D01*
X211275715Y-100018571D01*
X211204286Y-100161429D01*
X211132858Y-100232857D01*
X210990000Y-100304286D01*
X210418572Y-100304286D01*
D12*
X171390000Y-155000000D02*
X174050000Y-155000000D01*
X171390000Y-106680000D02*
X171390000Y-155000000D01*
X174050000Y-106680000D02*
X174050000Y-155000000D01*
X171390000Y-106680000D02*
X174050000Y-106680000D01*
X171390000Y-105410000D02*
X171390000Y-104080000D01*
X171390000Y-104080000D02*
X172720000Y-104080000D01*
X163770000Y-155000000D02*
X166430000Y-155000000D01*
X163770000Y-106680000D02*
X163770000Y-155000000D01*
X166430000Y-106680000D02*
X166430000Y-155000000D01*
X163770000Y-106680000D02*
X166430000Y-106680000D01*
X163770000Y-105410000D02*
X163770000Y-104080000D01*
X163770000Y-104080000D02*
X165100000Y-104080000D01*
X168850000Y-155000000D02*
X171510000Y-155000000D01*
X168850000Y-106680000D02*
X168850000Y-155000000D01*
X171510000Y-106680000D02*
X171510000Y-155000000D01*
X168850000Y-106680000D02*
X171510000Y-106680000D01*
X168850000Y-105410000D02*
X168850000Y-104080000D01*
X168850000Y-104080000D02*
X170180000Y-104080000D01*
X166310000Y-155000000D02*
X168970000Y-155000000D01*
X166310000Y-106680000D02*
X166310000Y-155000000D01*
X168970000Y-106680000D02*
X168970000Y-155000000D01*
X166310000Y-106680000D02*
X168970000Y-106680000D01*
X166310000Y-105410000D02*
X166310000Y-104080000D01*
X166310000Y-104080000D02*
X167640000Y-104080000D01*
X204410000Y-155000000D02*
X207070000Y-155000000D01*
X204410000Y-106680000D02*
X204410000Y-155000000D01*
X207070000Y-106680000D02*
X207070000Y-155000000D01*
X204410000Y-106680000D02*
X207070000Y-106680000D01*
X204410000Y-105410000D02*
X204410000Y-104080000D01*
X204410000Y-104080000D02*
X205740000Y-104080000D01*
X206950000Y-155000000D02*
X209610000Y-155000000D01*
X206950000Y-106680000D02*
X206950000Y-155000000D01*
X209610000Y-106680000D02*
X209610000Y-155000000D01*
X206950000Y-106680000D02*
X209610000Y-106680000D01*
X206950000Y-105410000D02*
X206950000Y-104080000D01*
X206950000Y-104080000D02*
X208280000Y-104080000D01*
X201870000Y-155000000D02*
X204530000Y-155000000D01*
X201870000Y-106680000D02*
X201870000Y-155000000D01*
X204530000Y-106680000D02*
X204530000Y-155000000D01*
X201870000Y-106680000D02*
X204530000Y-106680000D01*
X201870000Y-105410000D02*
X201870000Y-104080000D01*
X201870000Y-104080000D02*
X203200000Y-104080000D01*
X209490000Y-155000000D02*
X212150000Y-155000000D01*
X209490000Y-106680000D02*
X209490000Y-155000000D01*
X212150000Y-106680000D02*
X212150000Y-155000000D01*
X209490000Y-106680000D02*
X212150000Y-106680000D01*
X209490000Y-105410000D02*
X209490000Y-104080000D01*
X209490000Y-104080000D02*
X210820000Y-104080000D01*
X188960000Y-104080000D02*
G75*
G02X186960000Y-104080000I-1000000J0D01*
G01*
X186960000Y-104080000D02*
X181500000Y-104080000D01*
X181500000Y-104080000D02*
X181500000Y-155000000D01*
X181500000Y-155000000D02*
X194420000Y-155000000D01*
X194420000Y-155000000D02*
X194420000Y-104080000D01*
X194420000Y-104080000D02*
X188960000Y-104080000D01*
X176530000Y-104020000D02*
X176530000Y-155060000D01*
X179010000Y-161290000D02*
X196910000Y-161290000D01*
X199390000Y-155060000D02*
X199390000Y-104020000D01*
X196910000Y-95250000D02*
X179010000Y-95250000D01*
X189071000Y-104080000D02*
G75*
G02X187071000Y-104080000I-1000000J0D01*
G01*
X187071000Y-104140000D02*
X185056000Y-104140000D01*
X185056000Y-104080000D02*
X185056000Y-155000000D01*
X185056000Y-155000000D02*
X192659000Y-155000000D01*
X190229000Y-155000000D02*
X190229000Y-104080000D01*
X182566000Y-104020000D02*
X182566000Y-155060000D01*
X182566000Y-155060000D02*
X192659000Y-155060000D01*
X192719000Y-155060000D02*
X192719000Y-104020000D01*
X192659000Y-104013000D02*
X182566000Y-104020000D01*
D13*
X172386667Y-102532381D02*
X172386667Y-103246667D01*
X172339047Y-103389524D01*
X172243809Y-103484762D01*
X172100952Y-103532381D01*
X172005714Y-103532381D01*
X173386667Y-103532381D02*
X172815238Y-103532381D01*
X173100952Y-103532381D02*
X173100952Y-102532381D01*
X173005714Y-102675238D01*
X172910476Y-102770476D01*
X172815238Y-102818095D01*
X164766667Y-102532381D02*
X164766667Y-103246667D01*
X164719047Y-103389524D01*
X164623809Y-103484762D01*
X164480952Y-103532381D01*
X164385714Y-103532381D01*
X165195238Y-102627619D02*
X165242857Y-102580000D01*
X165338095Y-102532381D01*
X165576191Y-102532381D01*
X165671429Y-102580000D01*
X165719048Y-102627619D01*
X165766667Y-102722857D01*
X165766667Y-102818095D01*
X165719048Y-102960952D01*
X165147619Y-103532381D01*
X165766667Y-103532381D01*
X169846667Y-102532381D02*
X169846667Y-103246667D01*
X169799047Y-103389524D01*
X169703809Y-103484762D01*
X169560952Y-103532381D01*
X169465714Y-103532381D01*
X170227619Y-102532381D02*
X170846667Y-102532381D01*
X170513333Y-102913333D01*
X170656191Y-102913333D01*
X170751429Y-102960952D01*
X170799048Y-103008571D01*
X170846667Y-103103810D01*
X170846667Y-103341905D01*
X170799048Y-103437143D01*
X170751429Y-103484762D01*
X170656191Y-103532381D01*
X170370476Y-103532381D01*
X170275238Y-103484762D01*
X170227619Y-103437143D01*
X167306667Y-102532381D02*
X167306667Y-103246667D01*
X167259047Y-103389524D01*
X167163809Y-103484762D01*
X167020952Y-103532381D01*
X166925714Y-103532381D01*
X168211429Y-102865714D02*
X168211429Y-103532381D01*
X167973333Y-102484762D02*
X167735238Y-103199048D01*
X168354286Y-103199048D01*
X205406667Y-102532381D02*
X205406667Y-103246667D01*
X205359047Y-103389524D01*
X205263809Y-103484762D01*
X205120952Y-103532381D01*
X205025714Y-103532381D01*
X205787619Y-102532381D02*
X206454286Y-102532381D01*
X206025714Y-103532381D01*
X207946667Y-102532381D02*
X207946667Y-103246667D01*
X207899047Y-103389524D01*
X207803809Y-103484762D01*
X207660952Y-103532381D01*
X207565714Y-103532381D01*
X208565714Y-102960952D02*
X208470476Y-102913333D01*
X208422857Y-102865714D01*
X208375238Y-102770476D01*
X208375238Y-102722857D01*
X208422857Y-102627619D01*
X208470476Y-102580000D01*
X208565714Y-102532381D01*
X208756191Y-102532381D01*
X208851429Y-102580000D01*
X208899048Y-102627619D01*
X208946667Y-102722857D01*
X208946667Y-102770476D01*
X208899048Y-102865714D01*
X208851429Y-102913333D01*
X208756191Y-102960952D01*
X208565714Y-102960952D01*
X208470476Y-103008571D01*
X208422857Y-103056190D01*
X208375238Y-103151429D01*
X208375238Y-103341905D01*
X208422857Y-103437143D01*
X208470476Y-103484762D01*
X208565714Y-103532381D01*
X208756191Y-103532381D01*
X208851429Y-103484762D01*
X208899048Y-103437143D01*
X208946667Y-103341905D01*
X208946667Y-103151429D01*
X208899048Y-103056190D01*
X208851429Y-103008571D01*
X208756191Y-102960952D01*
X202866667Y-102532381D02*
X202866667Y-103246667D01*
X202819047Y-103389524D01*
X202723809Y-103484762D01*
X202580952Y-103532381D01*
X202485714Y-103532381D01*
X203390476Y-103532381D02*
X203580952Y-103532381D01*
X203676191Y-103484762D01*
X203723810Y-103437143D01*
X203819048Y-103294286D01*
X203866667Y-103103810D01*
X203866667Y-102722857D01*
X203819048Y-102627619D01*
X203771429Y-102580000D01*
X203676191Y-102532381D01*
X203485714Y-102532381D01*
X203390476Y-102580000D01*
X203342857Y-102627619D01*
X203295238Y-102722857D01*
X203295238Y-102960952D01*
X203342857Y-103056190D01*
X203390476Y-103103810D01*
X203485714Y-103151429D01*
X203676191Y-103151429D01*
X203771429Y-103103810D01*
X203819048Y-103056190D01*
X203866667Y-102960952D01*
X210010477Y-102532381D02*
X210010477Y-103246667D01*
X209962857Y-103389524D01*
X209867619Y-103484762D01*
X209724762Y-103532381D01*
X209629524Y-103532381D01*
X211010477Y-103532381D02*
X210439048Y-103532381D01*
X210724762Y-103532381D02*
X210724762Y-102532381D01*
X210629524Y-102675238D01*
X210534286Y-102770476D01*
X210439048Y-102818095D01*
X211629524Y-102532381D02*
X211724763Y-102532381D01*
X211820001Y-102580000D01*
X211867620Y-102627619D01*
X211915239Y-102722857D01*
X211962858Y-102913333D01*
X211962858Y-103151429D01*
X211915239Y-103341905D01*
X211867620Y-103437143D01*
X211820001Y-103484762D01*
X211724763Y-103532381D01*
X211629524Y-103532381D01*
X211534286Y-103484762D01*
X211486667Y-103437143D01*
X211439048Y-103341905D01*
X211391429Y-103151429D01*
X211391429Y-102913333D01*
X211439048Y-102722857D01*
X211486667Y-102627619D01*
X211534286Y-102580000D01*
X211629524Y-102532381D01*
X195246667Y-93432381D02*
X195246667Y-94146667D01*
X195199047Y-94289524D01*
X195103809Y-94384762D01*
X194960952Y-94432381D01*
X194865714Y-94432381D01*
X196199048Y-93432381D02*
X195722857Y-93432381D01*
X195675238Y-93908571D01*
X195722857Y-93860952D01*
X195818095Y-93813333D01*
X196056191Y-93813333D01*
X196151429Y-93860952D01*
X196199048Y-93908571D01*
X196246667Y-94003810D01*
X196246667Y-94241905D01*
X196199048Y-94337143D01*
X196151429Y-94384762D01*
X196056191Y-94432381D01*
X195818095Y-94432381D01*
X195722857Y-94384762D01*
X195675238Y-94337143D01*
X187626667Y-93432381D02*
X187626667Y-94146667D01*
X187579047Y-94289524D01*
X187483809Y-94384762D01*
X187340952Y-94432381D01*
X187245714Y-94432381D01*
X188531429Y-93432381D02*
X188340952Y-93432381D01*
X188245714Y-93480000D01*
X188198095Y-93527619D01*
X188102857Y-93670476D01*
X188055238Y-93860952D01*
X188055238Y-94241905D01*
X188102857Y-94337143D01*
X188150476Y-94384762D01*
X188245714Y-94432381D01*
X188436191Y-94432381D01*
X188531429Y-94384762D01*
X188579048Y-94337143D01*
X188626667Y-94241905D01*
X188626667Y-94003810D01*
X188579048Y-93908571D01*
X188531429Y-93860952D01*
X188436191Y-93813333D01*
X188245714Y-93813333D01*
X188150476Y-93860952D01*
X188102857Y-93908571D01*
X188055238Y-94003810D01*
M02*
