M48
;DRILL file {KiCad 4.0.7-e2-6376~58~ubuntu16.04.1} date Tue Aug  7 11:06:38 2018
;FORMAT={-:-/ absolute / inch / decimal}
FMAT,2
INCH,TZ
T1C0.031
T2C0.039
%
G90
G05
M72
T1
X7.1Y-4.15
X7.1Y-4.25
X7.1Y-4.35
X7.1Y-4.45
X7.1Y-4.55
X7.1Y-4.65
X7.1Y-4.75
X7.1Y-4.85
X7.1Y-4.95
X7.1Y-5.05
X7.1Y-5.15
X7.1Y-5.25
X7.1Y-5.35
X7.1Y-5.45
X7.1Y-5.55
X7.1Y-5.65
X7.1Y-5.75
X7.1Y-5.85
X7.1Y-5.95
X7.1Y-6.05
X7.24Y-4.15
X7.24Y-4.25
X7.24Y-4.35
X7.24Y-4.45
X7.24Y-4.55
X7.24Y-4.65
X7.24Y-4.75
X7.24Y-4.85
X7.24Y-4.95
X7.24Y-5.05
X7.24Y-5.15
X7.24Y-5.25
X7.24Y-5.35
X7.24Y-5.45
X7.24Y-5.55
X7.24Y-5.65
X7.24Y-5.75
X7.24Y-5.85
X7.24Y-5.95
X7.24Y-6.05
X7.54Y-4.15
X7.54Y-4.25
X7.54Y-4.35
X7.54Y-4.45
X7.54Y-4.55
X7.54Y-4.65
X7.54Y-4.75
X7.54Y-4.85
X7.54Y-4.95
X7.54Y-5.05
X7.54Y-5.15
X7.54Y-5.25
X7.54Y-5.35
X7.54Y-5.45
X7.54Y-5.55
X7.54Y-5.65
X7.54Y-5.75
X7.54Y-5.85
X7.54Y-5.95
X7.54Y-6.05
X7.7Y-4.15
X7.7Y-4.25
X7.7Y-4.35
X7.7Y-4.45
X7.7Y-4.55
X7.7Y-4.65
X7.7Y-4.75
X7.7Y-4.85
X7.7Y-4.95
X7.7Y-5.05
X7.7Y-5.15
X7.7Y-5.25
X7.7Y-5.35
X7.7Y-5.45
X7.7Y-5.55
X7.7Y-5.65
X7.7Y-5.75
X7.7Y-5.85
X7.7Y-5.95
X7.7Y-6.05
T2
X6.5Y-4.15
X6.5Y-4.25
X6.5Y-4.35
X6.5Y-4.45
X6.5Y-4.55
X6.5Y-4.65
X6.5Y-4.75
X6.5Y-4.85
X6.5Y-4.95
X6.5Y-5.05
X6.5Y-5.15
X6.5Y-5.25
X6.5Y-5.35
X6.5Y-5.45
X6.5Y-5.55
X6.5Y-5.65
X6.5Y-5.75
X6.5Y-5.85
X6.5Y-5.95
X6.5Y-6.05
X6.6Y-4.15
X6.6Y-4.25
X6.6Y-4.35
X6.6Y-4.45
X6.6Y-4.55
X6.6Y-4.65
X6.6Y-4.75
X6.6Y-4.85
X6.6Y-4.95
X6.6Y-5.05
X6.6Y-5.15
X6.6Y-5.25
X6.6Y-5.35
X6.6Y-5.45
X6.6Y-5.55
X6.6Y-5.65
X6.6Y-5.75
X6.6Y-5.85
X6.6Y-5.95
X6.6Y-6.05
X6.7Y-4.15
X6.7Y-4.25
X6.7Y-4.35
X6.7Y-4.45
X6.7Y-4.55
X6.7Y-4.65
X6.7Y-4.75
X6.7Y-4.85
X6.7Y-4.95
X6.7Y-5.05
X6.7Y-5.15
X6.7Y-5.25
X6.7Y-5.35
X6.7Y-5.45
X6.7Y-5.55
X6.7Y-5.65
X6.7Y-5.75
X6.7Y-5.85
X6.7Y-5.95
X6.7Y-6.05
X6.8Y-4.15
X6.8Y-4.25
X6.8Y-4.35
X6.8Y-4.45
X6.8Y-4.55
X6.8Y-4.65
X6.8Y-4.75
X6.8Y-4.85
X6.8Y-4.95
X6.8Y-5.05
X6.8Y-5.15
X6.8Y-5.25
X6.8Y-5.35
X6.8Y-5.45
X6.8Y-5.55
X6.8Y-5.65
X6.8Y-5.75
X6.8Y-5.85
X6.8Y-5.95
X6.8Y-6.05
X8.Y-4.15
X8.Y-4.25
X8.Y-4.35
X8.Y-4.45
X8.Y-4.55
X8.Y-4.65
X8.Y-4.75
X8.Y-4.85
X8.Y-4.95
X8.Y-5.05
X8.Y-5.15
X8.Y-5.25
X8.Y-5.35
X8.Y-5.45
X8.Y-5.55
X8.Y-5.65
X8.Y-5.75
X8.Y-5.85
X8.Y-5.95
X8.Y-6.05
X8.1Y-4.15
X8.1Y-4.25
X8.1Y-4.35
X8.1Y-4.45
X8.1Y-4.55
X8.1Y-4.65
X8.1Y-4.75
X8.1Y-4.85
X8.1Y-4.95
X8.1Y-5.05
X8.1Y-5.15
X8.1Y-5.25
X8.1Y-5.35
X8.1Y-5.45
X8.1Y-5.55
X8.1Y-5.65
X8.1Y-5.75
X8.1Y-5.85
X8.1Y-5.95
X8.1Y-6.05
X8.2Y-4.15
X8.2Y-4.25
X8.2Y-4.35
X8.2Y-4.45
X8.2Y-4.55
X8.2Y-4.65
X8.2Y-4.75
X8.2Y-4.85
X8.2Y-4.95
X8.2Y-5.05
X8.2Y-5.15
X8.2Y-5.25
X8.2Y-5.35
X8.2Y-5.45
X8.2Y-5.55
X8.2Y-5.65
X8.2Y-5.75
X8.2Y-5.85
X8.2Y-5.95
X8.2Y-6.05
X8.3Y-4.15
X8.3Y-4.25
X8.3Y-4.35
X8.3Y-4.45
X8.3Y-4.55
X8.3Y-4.65
X8.3Y-4.75
X8.3Y-4.85
X8.3Y-4.95
X8.3Y-5.05
X8.3Y-5.15
X8.3Y-5.25
X8.3Y-5.35
X8.3Y-5.45
X8.3Y-5.55
X8.3Y-5.65
X8.3Y-5.75
X8.3Y-5.85
X8.3Y-5.95
X8.3Y-6.05
T0
M30
