G04 #@! TF.FileFunction,Copper,L1,Top,Signal*
%FSLAX46Y46*%
G04 Gerber Fmt 4.6, Leading zero omitted, Abs format (unit mm)*
G04 Created by KiCad (PCBNEW 4.0.7-e2-6376~58~ubuntu16.04.1) date Tue Aug  7 11:06:41 2018*
%MOMM*%
%LPD*%
G01*
G04 APERTURE LIST*
%ADD10C,0.100000*%
%ADD11R,1.700000X1.700000*%
%ADD12O,1.700000X1.700000*%
%ADD13R,1.600000X1.600000*%
%ADD14O,1.600000X1.600000*%
%ADD15C,0.304800*%
%ADD16C,0.152400*%
G04 APERTURE END LIST*
D10*
D11*
X172720000Y-105410000D03*
D12*
X172720000Y-107950000D03*
X172720000Y-110490000D03*
X172720000Y-113030000D03*
X172720000Y-115570000D03*
X172720000Y-118110000D03*
X172720000Y-120650000D03*
X172720000Y-123190000D03*
X172720000Y-125730000D03*
X172720000Y-128270000D03*
X172720000Y-130810000D03*
X172720000Y-133350000D03*
X172720000Y-135890000D03*
X172720000Y-138430000D03*
X172720000Y-140970000D03*
X172720000Y-143510000D03*
X172720000Y-146050000D03*
X172720000Y-148590000D03*
X172720000Y-151130000D03*
X172720000Y-153670000D03*
D11*
X165100000Y-105410000D03*
D12*
X165100000Y-107950000D03*
X165100000Y-110490000D03*
X165100000Y-113030000D03*
X165100000Y-115570000D03*
X165100000Y-118110000D03*
X165100000Y-120650000D03*
X165100000Y-123190000D03*
X165100000Y-125730000D03*
X165100000Y-128270000D03*
X165100000Y-130810000D03*
X165100000Y-133350000D03*
X165100000Y-135890000D03*
X165100000Y-138430000D03*
X165100000Y-140970000D03*
X165100000Y-143510000D03*
X165100000Y-146050000D03*
X165100000Y-148590000D03*
X165100000Y-151130000D03*
X165100000Y-153670000D03*
D11*
X170180000Y-105410000D03*
D12*
X170180000Y-107950000D03*
X170180000Y-110490000D03*
X170180000Y-113030000D03*
X170180000Y-115570000D03*
X170180000Y-118110000D03*
X170180000Y-120650000D03*
X170180000Y-123190000D03*
X170180000Y-125730000D03*
X170180000Y-128270000D03*
X170180000Y-130810000D03*
X170180000Y-133350000D03*
X170180000Y-135890000D03*
X170180000Y-138430000D03*
X170180000Y-140970000D03*
X170180000Y-143510000D03*
X170180000Y-146050000D03*
X170180000Y-148590000D03*
X170180000Y-151130000D03*
X170180000Y-153670000D03*
D11*
X167640000Y-105410000D03*
D12*
X167640000Y-107950000D03*
X167640000Y-110490000D03*
X167640000Y-113030000D03*
X167640000Y-115570000D03*
X167640000Y-118110000D03*
X167640000Y-120650000D03*
X167640000Y-123190000D03*
X167640000Y-125730000D03*
X167640000Y-128270000D03*
X167640000Y-130810000D03*
X167640000Y-133350000D03*
X167640000Y-135890000D03*
X167640000Y-138430000D03*
X167640000Y-140970000D03*
X167640000Y-143510000D03*
X167640000Y-146050000D03*
X167640000Y-148590000D03*
X167640000Y-151130000D03*
X167640000Y-153670000D03*
D11*
X205740000Y-105410000D03*
D12*
X205740000Y-107950000D03*
X205740000Y-110490000D03*
X205740000Y-113030000D03*
X205740000Y-115570000D03*
X205740000Y-118110000D03*
X205740000Y-120650000D03*
X205740000Y-123190000D03*
X205740000Y-125730000D03*
X205740000Y-128270000D03*
X205740000Y-130810000D03*
X205740000Y-133350000D03*
X205740000Y-135890000D03*
X205740000Y-138430000D03*
X205740000Y-140970000D03*
X205740000Y-143510000D03*
X205740000Y-146050000D03*
X205740000Y-148590000D03*
X205740000Y-151130000D03*
X205740000Y-153670000D03*
D11*
X208280000Y-105410000D03*
D12*
X208280000Y-107950000D03*
X208280000Y-110490000D03*
X208280000Y-113030000D03*
X208280000Y-115570000D03*
X208280000Y-118110000D03*
X208280000Y-120650000D03*
X208280000Y-123190000D03*
X208280000Y-125730000D03*
X208280000Y-128270000D03*
X208280000Y-130810000D03*
X208280000Y-133350000D03*
X208280000Y-135890000D03*
X208280000Y-138430000D03*
X208280000Y-140970000D03*
X208280000Y-143510000D03*
X208280000Y-146050000D03*
X208280000Y-148590000D03*
X208280000Y-151130000D03*
X208280000Y-153670000D03*
D11*
X203200000Y-105410000D03*
D12*
X203200000Y-107950000D03*
X203200000Y-110490000D03*
X203200000Y-113030000D03*
X203200000Y-115570000D03*
X203200000Y-118110000D03*
X203200000Y-120650000D03*
X203200000Y-123190000D03*
X203200000Y-125730000D03*
X203200000Y-128270000D03*
X203200000Y-130810000D03*
X203200000Y-133350000D03*
X203200000Y-135890000D03*
X203200000Y-138430000D03*
X203200000Y-140970000D03*
X203200000Y-143510000D03*
X203200000Y-146050000D03*
X203200000Y-148590000D03*
X203200000Y-151130000D03*
X203200000Y-153670000D03*
D11*
X210820000Y-105410000D03*
D12*
X210820000Y-107950000D03*
X210820000Y-110490000D03*
X210820000Y-113030000D03*
X210820000Y-115570000D03*
X210820000Y-118110000D03*
X210820000Y-120650000D03*
X210820000Y-123190000D03*
X210820000Y-125730000D03*
X210820000Y-128270000D03*
X210820000Y-130810000D03*
X210820000Y-133350000D03*
X210820000Y-135890000D03*
X210820000Y-138430000D03*
X210820000Y-140970000D03*
X210820000Y-143510000D03*
X210820000Y-146050000D03*
X210820000Y-148590000D03*
X210820000Y-151130000D03*
X210820000Y-153670000D03*
D13*
X180340000Y-105410000D03*
D14*
X195580000Y-153670000D03*
X180340000Y-107950000D03*
X195580000Y-151130000D03*
X180340000Y-110490000D03*
X195580000Y-148590000D03*
X180340000Y-113030000D03*
X195580000Y-146050000D03*
X180340000Y-115570000D03*
X195580000Y-143510000D03*
X180340000Y-118110000D03*
X195580000Y-140970000D03*
X180340000Y-120650000D03*
X195580000Y-138430000D03*
X180340000Y-123190000D03*
X195580000Y-135890000D03*
X180340000Y-125730000D03*
X195580000Y-133350000D03*
X180340000Y-128270000D03*
X195580000Y-130810000D03*
X180340000Y-130810000D03*
X195580000Y-128270000D03*
X180340000Y-133350000D03*
X195580000Y-125730000D03*
X180340000Y-135890000D03*
X195580000Y-123190000D03*
X180340000Y-138430000D03*
X195580000Y-120650000D03*
X180340000Y-140970000D03*
X195580000Y-118110000D03*
X180340000Y-143510000D03*
X195580000Y-115570000D03*
X180340000Y-146050000D03*
X195580000Y-113030000D03*
X180340000Y-148590000D03*
X195580000Y-110490000D03*
X180340000Y-151130000D03*
X195580000Y-107950000D03*
X180340000Y-153670000D03*
X195580000Y-105410000D03*
D13*
X183896000Y-105410000D03*
D14*
X191516000Y-153670000D03*
X183896000Y-107950000D03*
X191516000Y-151130000D03*
X183896000Y-110490000D03*
X191516000Y-148590000D03*
X183896000Y-113030000D03*
X191516000Y-146050000D03*
X183896000Y-115570000D03*
X191516000Y-143510000D03*
X183896000Y-118110000D03*
X191516000Y-140970000D03*
X183896000Y-120650000D03*
X191516000Y-138430000D03*
X183896000Y-123190000D03*
X191516000Y-135890000D03*
X183896000Y-125730000D03*
X191516000Y-133350000D03*
X183896000Y-128270000D03*
X191516000Y-130810000D03*
X183896000Y-130810000D03*
X191516000Y-128270000D03*
X183896000Y-133350000D03*
X191516000Y-125730000D03*
X183896000Y-135890000D03*
X191516000Y-123190000D03*
X183896000Y-138430000D03*
X191516000Y-120650000D03*
X183896000Y-140970000D03*
X191516000Y-118110000D03*
X183896000Y-143510000D03*
X191516000Y-115570000D03*
X183896000Y-146050000D03*
X191516000Y-113030000D03*
X183896000Y-148590000D03*
X191516000Y-110490000D03*
X183896000Y-151130000D03*
X191516000Y-107950000D03*
X183896000Y-153670000D03*
X191516000Y-105410000D03*
D15*
X172720000Y-113030000D02*
X180340000Y-113030000D01*
X170180000Y-113030000D02*
X172720000Y-113030000D01*
X170180000Y-110490000D02*
X172720000Y-110490000D01*
X180340000Y-110490000D02*
X172720000Y-110490000D01*
X170180000Y-115570000D02*
X172720000Y-115570000D01*
X180340000Y-115570000D02*
X172720000Y-115570000D01*
X167640000Y-113030000D02*
X168794801Y-111875199D01*
X168794801Y-111875199D02*
X182741199Y-111875199D01*
X182741199Y-111875199D02*
X183096001Y-112230001D01*
X183096001Y-112230001D02*
X183896000Y-113030000D01*
X165100000Y-113030000D02*
X167640000Y-113030000D01*
X167640000Y-110490000D02*
X168794801Y-109335199D01*
X168794801Y-109335199D02*
X182741199Y-109335199D01*
X182741199Y-109335199D02*
X183096001Y-109690001D01*
X183096001Y-109690001D02*
X183896000Y-110490000D01*
X165100000Y-110490000D02*
X167640000Y-110490000D01*
X167640000Y-115570000D02*
X168794801Y-114415199D01*
X168794801Y-114415199D02*
X182741199Y-114415199D01*
X182741199Y-114415199D02*
X183096001Y-114770001D01*
X183096001Y-114770001D02*
X183896000Y-115570000D01*
X165100000Y-115570000D02*
X167640000Y-115570000D01*
X170180000Y-105410000D02*
X172720000Y-105410000D01*
X180340000Y-105410000D02*
X172720000Y-105410000D01*
X203200000Y-153670000D02*
X195580000Y-153670000D01*
X203200000Y-153670000D02*
X205740000Y-153670000D01*
X172720000Y-107950000D02*
X180340000Y-107950000D01*
X170180000Y-107950000D02*
X172720000Y-107950000D01*
X205740000Y-151130000D02*
X203200000Y-151130000D01*
X195580000Y-151130000D02*
X203200000Y-151130000D01*
X203200000Y-148590000D02*
X205740000Y-148590000D01*
X195580000Y-148590000D02*
X203200000Y-148590000D01*
X203200000Y-146050000D02*
X195580000Y-146050000D01*
X205740000Y-146050000D02*
X203200000Y-146050000D01*
X203200000Y-143510000D02*
X205740000Y-143510000D01*
X195580000Y-143510000D02*
X203200000Y-143510000D01*
X172720000Y-118110000D02*
X180340000Y-118110000D01*
X170180000Y-118110000D02*
X172720000Y-118110000D01*
X203200000Y-140970000D02*
X195580000Y-140970000D01*
X205740000Y-140970000D02*
X203200000Y-140970000D01*
X172720000Y-120650000D02*
X170180000Y-120650000D01*
D16*
X173990000Y-120650000D02*
X170180000Y-120650000D01*
D15*
X180340000Y-120650000D02*
X173990000Y-120650000D01*
X203200000Y-138430000D02*
X205740000Y-138430000D01*
X195580000Y-138430000D02*
X203200000Y-138430000D01*
X172720000Y-123190000D02*
X180340000Y-123190000D01*
X170180000Y-123190000D02*
X172720000Y-123190000D01*
X203200000Y-135890000D02*
X195580000Y-135890000D01*
X205740000Y-135890000D02*
X203200000Y-135890000D01*
X170180000Y-125730000D02*
X172720000Y-125730000D01*
X180340000Y-125730000D02*
X172720000Y-125730000D01*
X203200000Y-133350000D02*
X205740000Y-133350000D01*
X195580000Y-133350000D02*
X203200000Y-133350000D01*
X172720000Y-128270000D02*
X180340000Y-128270000D01*
X170180000Y-128270000D02*
X172720000Y-128270000D01*
X203200000Y-130810000D02*
X195580000Y-130810000D01*
X205740000Y-130810000D02*
X203200000Y-130810000D01*
X172720000Y-130810000D02*
X170180000Y-130810000D01*
X180340000Y-130810000D02*
X172720000Y-130810000D01*
X203200000Y-128270000D02*
X205740000Y-128270000D01*
X195580000Y-128270000D02*
X203200000Y-128270000D01*
X172720000Y-133350000D02*
X180340000Y-133350000D01*
X170180000Y-133350000D02*
X172720000Y-133350000D01*
X203200000Y-125730000D02*
X195580000Y-125730000D01*
X205740000Y-125730000D02*
X203200000Y-125730000D01*
X170180000Y-135890000D02*
X172720000Y-135890000D01*
X172720000Y-135890000D02*
X180340000Y-135890000D01*
X203200000Y-123190000D02*
X205740000Y-123190000D01*
X195580000Y-123190000D02*
X203200000Y-123190000D01*
X172720000Y-138430000D02*
X180340000Y-138430000D01*
X170180000Y-138430000D02*
X172720000Y-138430000D01*
X203200000Y-120650000D02*
X195580000Y-120650000D01*
X205740000Y-120650000D02*
X203200000Y-120650000D01*
X170180000Y-140970000D02*
X172720000Y-140970000D01*
X180340000Y-140970000D02*
X172720000Y-140970000D01*
X203200000Y-118110000D02*
X205740000Y-118110000D01*
X195580000Y-118110000D02*
X203200000Y-118110000D01*
X172720000Y-143510000D02*
X180340000Y-143510000D01*
X170180000Y-143510000D02*
X172720000Y-143510000D01*
X203200000Y-115570000D02*
X195580000Y-115570000D01*
X205740000Y-115570000D02*
X203200000Y-115570000D01*
X170180000Y-146050000D02*
X172720000Y-146050000D01*
X180340000Y-146050000D02*
X172720000Y-146050000D01*
X203200000Y-113030000D02*
X205740000Y-113030000D01*
X195580000Y-113030000D02*
X203200000Y-113030000D01*
X180340000Y-148590000D02*
X172720000Y-148590000D01*
X170180000Y-148590000D02*
X172720000Y-148590000D01*
X205740000Y-110490000D02*
X203200000Y-110490000D01*
X195580000Y-110490000D02*
X203200000Y-110490000D01*
X172720000Y-151130000D02*
X180340000Y-151130000D01*
X172720000Y-151130000D02*
X170180000Y-151130000D01*
X203200000Y-107950000D02*
X205740000Y-107950000D01*
X203200000Y-107950000D02*
X195580000Y-107950000D01*
X170180000Y-153670000D02*
X172720000Y-153670000D01*
X180340000Y-153670000D02*
X172720000Y-153670000D01*
X205740000Y-105410000D02*
X203200000Y-105410000D01*
X195580000Y-105410000D02*
X203200000Y-105410000D01*
X183896000Y-105410000D02*
X183896000Y-104305200D01*
X183730800Y-104140000D02*
X167755200Y-104140000D01*
X183896000Y-104305200D02*
X183730800Y-104140000D01*
X167755200Y-104140000D02*
X167640000Y-104255200D01*
X167640000Y-104255200D02*
X167640000Y-105410000D01*
X165100000Y-105410000D02*
X167640000Y-105410000D01*
X208280000Y-153670000D02*
X207125199Y-152515199D01*
X207125199Y-152515199D02*
X192670801Y-152515199D01*
X192670801Y-152515199D02*
X192315999Y-152870001D01*
X192315999Y-152870001D02*
X191516000Y-153670000D01*
X208280000Y-153670000D02*
X210820000Y-153670000D01*
X167640000Y-107950000D02*
X168794801Y-106795199D01*
X168794801Y-106795199D02*
X182741199Y-106795199D01*
X182741199Y-106795199D02*
X183096001Y-107150001D01*
X183096001Y-107150001D02*
X183896000Y-107950000D01*
X165100000Y-107950000D02*
X167640000Y-107950000D01*
X208280000Y-151130000D02*
X207125199Y-149975199D01*
X207125199Y-149975199D02*
X192670801Y-149975199D01*
X192670801Y-149975199D02*
X192315999Y-150330001D01*
X192315999Y-150330001D02*
X191516000Y-151130000D01*
X208280000Y-151130000D02*
X210820000Y-151130000D01*
X208280000Y-148590000D02*
X207125199Y-147435199D01*
X207125199Y-147435199D02*
X192670801Y-147435199D01*
X192670801Y-147435199D02*
X192315999Y-147790001D01*
X192315999Y-147790001D02*
X191516000Y-148590000D01*
X208280000Y-148590000D02*
X210820000Y-148590000D01*
X208280000Y-146050000D02*
X207125199Y-144895199D01*
X192670801Y-144895199D02*
X192315999Y-145250001D01*
X207125199Y-144895199D02*
X192670801Y-144895199D01*
X192315999Y-145250001D02*
X191516000Y-146050000D01*
X208280000Y-146050000D02*
X210820000Y-146050000D01*
X208280000Y-143510000D02*
X207125199Y-142355199D01*
X207125199Y-142355199D02*
X192670801Y-142355199D01*
X192670801Y-142355199D02*
X192315999Y-142710001D01*
X192315999Y-142710001D02*
X191516000Y-143510000D01*
X208280000Y-143510000D02*
X210820000Y-143510000D01*
X167640000Y-118110000D02*
X168794801Y-116955199D01*
X168794801Y-116955199D02*
X182741199Y-116955199D01*
X182741199Y-116955199D02*
X183096001Y-117310001D01*
X183096001Y-117310001D02*
X183896000Y-118110000D01*
X165100000Y-118110000D02*
X167640000Y-118110000D01*
X208280000Y-140970000D02*
X207125199Y-139815199D01*
X192315999Y-140170001D02*
X191516000Y-140970000D01*
X207125199Y-139815199D02*
X192670801Y-139815199D01*
X192670801Y-139815199D02*
X192315999Y-140170001D01*
X208280000Y-140970000D02*
X210820000Y-140970000D01*
X167640000Y-120650000D02*
X168794801Y-119495199D01*
X168794801Y-119495199D02*
X182741199Y-119495199D01*
X182741199Y-119495199D02*
X183096001Y-119850001D01*
X183096001Y-119850001D02*
X183896000Y-120650000D01*
X165100000Y-120650000D02*
X167640000Y-120650000D01*
X208280000Y-138430000D02*
X207125199Y-137275199D01*
X207125199Y-137275199D02*
X192670801Y-137275199D01*
X192670801Y-137275199D02*
X192315999Y-137630001D01*
X192315999Y-137630001D02*
X191516000Y-138430000D01*
X208280000Y-138430000D02*
X210820000Y-138430000D01*
X167640000Y-123190000D02*
X168794801Y-122035199D01*
X168794801Y-122035199D02*
X182741199Y-122035199D01*
X182741199Y-122035199D02*
X183096001Y-122390001D01*
X183096001Y-122390001D02*
X183896000Y-123190000D01*
X165100000Y-123190000D02*
X167640000Y-123190000D01*
X208280000Y-135890000D02*
X207125199Y-134735199D01*
X207125199Y-134735199D02*
X192670801Y-134735199D01*
X192670801Y-134735199D02*
X192315999Y-135090001D01*
X192315999Y-135090001D02*
X191516000Y-135890000D01*
X208280000Y-135890000D02*
X210820000Y-135890000D01*
X167640000Y-125730000D02*
X168794801Y-124575199D01*
X168794801Y-124575199D02*
X182741199Y-124575199D01*
X183096001Y-124930001D02*
X183896000Y-125730000D01*
X182741199Y-124575199D02*
X183096001Y-124930001D01*
X167640000Y-125730000D02*
X165100000Y-125730000D01*
X208280000Y-133350000D02*
X207125199Y-132195199D01*
X207125199Y-132195199D02*
X192670801Y-132195199D01*
X192670801Y-132195199D02*
X192315999Y-132550001D01*
X192315999Y-132550001D02*
X191516000Y-133350000D01*
X208280000Y-133350000D02*
X210820000Y-133350000D01*
X167640000Y-128270000D02*
X168794801Y-127115199D01*
X168794801Y-127115199D02*
X182741199Y-127115199D01*
X182741199Y-127115199D02*
X183096001Y-127470001D01*
X183096001Y-127470001D02*
X183896000Y-128270000D01*
X165100000Y-128270000D02*
X167640000Y-128270000D01*
X208280000Y-130810000D02*
X207125199Y-129655199D01*
X207125199Y-129655199D02*
X192670801Y-129655199D01*
X192670801Y-129655199D02*
X192315999Y-130010001D01*
X192315999Y-130010001D02*
X191516000Y-130810000D01*
X208280000Y-130810000D02*
X210820000Y-130810000D01*
X167640000Y-130810000D02*
X168794801Y-129655199D01*
X168794801Y-129655199D02*
X182741199Y-129655199D01*
X182741199Y-129655199D02*
X183096001Y-130010001D01*
X183096001Y-130010001D02*
X183896000Y-130810000D01*
X165100000Y-130810000D02*
X167640000Y-130810000D01*
X208280000Y-128270000D02*
X207125199Y-127115199D01*
X207125199Y-127115199D02*
X192670801Y-127115199D01*
X192670801Y-127115199D02*
X192315999Y-127470001D01*
X192315999Y-127470001D02*
X191516000Y-128270000D01*
X208280000Y-128270000D02*
X210820000Y-128270000D01*
X167640000Y-133350000D02*
X168794801Y-132195199D01*
X168794801Y-132195199D02*
X182741199Y-132195199D01*
X182741199Y-132195199D02*
X183096001Y-132550001D01*
X183096001Y-132550001D02*
X183896000Y-133350000D01*
X165100000Y-133350000D02*
X167640000Y-133350000D01*
X208280000Y-125730000D02*
X206894801Y-124344801D01*
X206894801Y-124344801D02*
X192901199Y-124344801D01*
X192901199Y-124344801D02*
X192315999Y-124930001D01*
X192315999Y-124930001D02*
X191516000Y-125730000D01*
X208280000Y-125730000D02*
X210820000Y-125730000D01*
X167640000Y-135890000D02*
X168794801Y-134735199D01*
X168794801Y-134735199D02*
X182741199Y-134735199D01*
X182741199Y-134735199D02*
X183096001Y-135090001D01*
X183096001Y-135090001D02*
X183896000Y-135890000D01*
X165100000Y-135890000D02*
X167640000Y-135890000D01*
X208280000Y-123190000D02*
X207125199Y-122035199D01*
X207125199Y-122035199D02*
X192670801Y-122035199D01*
X192670801Y-122035199D02*
X192315999Y-122390001D01*
X192315999Y-122390001D02*
X191516000Y-123190000D01*
X210820000Y-123190000D02*
X208280000Y-123190000D01*
X167640000Y-138430000D02*
X168910000Y-137160000D01*
X168910000Y-137160000D02*
X182626000Y-137160000D01*
X182626000Y-137160000D02*
X183096001Y-137630001D01*
X183096001Y-137630001D02*
X183896000Y-138430000D01*
X165100000Y-138430000D02*
X167640000Y-138430000D01*
X208280000Y-120650000D02*
X207125199Y-119495199D01*
X207125199Y-119495199D02*
X192670801Y-119495199D01*
X192670801Y-119495199D02*
X192315999Y-119850001D01*
X192315999Y-119850001D02*
X191516000Y-120650000D01*
X208280000Y-120650000D02*
X210820000Y-120650000D01*
X168910000Y-139700000D02*
X182626000Y-139700000D01*
X182626000Y-139700000D02*
X183896000Y-140970000D01*
X167640000Y-140970000D02*
X168910000Y-139700000D01*
X165100000Y-140970000D02*
X167640000Y-140970000D01*
X208280000Y-118110000D02*
X207125199Y-116955199D01*
X207125199Y-116955199D02*
X192670801Y-116955199D01*
X192670801Y-116955199D02*
X192315999Y-117310001D01*
X192315999Y-117310001D02*
X191516000Y-118110000D01*
X210820000Y-118110000D02*
X208280000Y-118110000D01*
X167640000Y-143510000D02*
X168794801Y-142355199D01*
X168794801Y-142355199D02*
X182741199Y-142355199D01*
X182741199Y-142355199D02*
X183096001Y-142710001D01*
X183096001Y-142710001D02*
X183896000Y-143510000D01*
X167640000Y-143510000D02*
X165100000Y-143510000D01*
X208280000Y-115570000D02*
X207125199Y-114415199D01*
X207125199Y-114415199D02*
X192670801Y-114415199D01*
X192670801Y-114415199D02*
X192315999Y-114770001D01*
X192315999Y-114770001D02*
X191516000Y-115570000D01*
X208280000Y-115570000D02*
X210820000Y-115570000D01*
X167640000Y-146050000D02*
X168794801Y-144895199D01*
X168794801Y-144895199D02*
X182741199Y-144895199D01*
X183096001Y-145250001D02*
X183896000Y-146050000D01*
X182741199Y-144895199D02*
X183096001Y-145250001D01*
X165100000Y-146050000D02*
X167640000Y-146050000D01*
X208280000Y-113030000D02*
X207125199Y-111875199D01*
X207125199Y-111875199D02*
X192670801Y-111875199D01*
X192670801Y-111875199D02*
X192315999Y-112230001D01*
X192315999Y-112230001D02*
X191516000Y-113030000D01*
X210820000Y-113030000D02*
X208280000Y-113030000D01*
X167640000Y-148590000D02*
X168794801Y-147435199D01*
X168794801Y-147435199D02*
X182741199Y-147435199D01*
X182741199Y-147435199D02*
X183096001Y-147790001D01*
X183096001Y-147790001D02*
X183896000Y-148590000D01*
X165100000Y-148590000D02*
X167640000Y-148590000D01*
X208280000Y-110490000D02*
X206894801Y-109104801D01*
X206894801Y-109104801D02*
X192901199Y-109104801D01*
X192901199Y-109104801D02*
X192315999Y-109690001D01*
X192315999Y-109690001D02*
X191516000Y-110490000D01*
X208280000Y-110490000D02*
X210820000Y-110490000D01*
X167640000Y-151130000D02*
X169025199Y-149744801D01*
X169025199Y-149744801D02*
X182510801Y-149744801D01*
X182510801Y-149744801D02*
X183096001Y-150330001D01*
X183096001Y-150330001D02*
X183896000Y-151130000D01*
X165100000Y-151130000D02*
X167640000Y-151130000D01*
X208280000Y-107950000D02*
X207125199Y-106795199D01*
X207125199Y-106795199D02*
X192670801Y-106795199D01*
X192670801Y-106795199D02*
X192315999Y-107150001D01*
X192315999Y-107150001D02*
X191516000Y-107950000D01*
X210820000Y-107950000D02*
X208280000Y-107950000D01*
X168910000Y-152400000D02*
X182626000Y-152400000D01*
X182626000Y-152400000D02*
X183896000Y-153670000D01*
X167640000Y-153670000D02*
X168910000Y-152400000D01*
X165100000Y-153670000D02*
X167640000Y-153670000D01*
X208280000Y-105410000D02*
X208279999Y-104255199D01*
X208279999Y-104255199D02*
X192670801Y-104255199D01*
X192670801Y-104255199D02*
X191516000Y-105410000D01*
X208280000Y-105410000D02*
X210820000Y-105410000D01*
M02*
